<?xml version="1.0" encoding="utf-8"?>
<!-- Generator: Adobe Illustrator 28.0.0, SVG Export Plug-In . SVG Version: 6.00 Build 0)  -->
<svg version="1.1" id="Layer_1" xmlns="http://www.w3.org/2000/svg" xmlns:xlink="http://www.w3.org/1999/xlink" x="0px" y="0px"
	 viewBox="0 0 1080 1080" style="enable-background:new 0 0 1080 1080;" xml:space="preserve">
<style type="text/css">
	.st0{fill:#FFFFFF;}
	.st1{fill:url(#SVGID_1_);}
	.st2{fill:url(#SVGID_00000046336603057399794240000015377331450411613358_);}
	.st3{fill:url(#SVGID_00000107571888700418014390000006043249463169393835_);}
	.st4{fill:url(#SVGID_00000006681146789527894760000004010304901297871488_);}
	.st5{fill:url(#SVGID_00000024718593366594521330000002794135054410523581_);}
	.st6{fill:url(#SVGID_00000070809771331629439140000001842629645262967176_);}
	.st7{fill:url(#SVGID_00000164502258025577043980000005414161184914825601_);}
	.st8{fill:url(#SVGID_00000181046207000097014070000005834306251654361997_);}
	.st9{fill:url(#SVGID_00000139980351814046173960000003445142563890091138_);}
	.st10{fill:url(#SVGID_00000175291266536090458540000004711151254878582184_);}
	.st11{fill:url(#SVGID_00000002351472785952897390000001201947637220289955_);}
	.st12{fill:url(#SVGID_00000143598766992281038800000004302175881109201846_);}
	.st13{fill:url(#SVGID_00000144303492737542519760000013709210701716792738_);}
	.st14{fill:url(#SVGID_00000117678614812387245250000001418467888088317590_);}
	.st15{fill:url(#SVGID_00000129908838320260492250000013909166264949996214_);}
	.st16{fill:url(#SVGID_00000098935507220182714120000006999743226333485454_);}
	.st17{fill:url(#SVGID_00000053536430431492231780000001220226702867015871_);}
	.st18{fill:url(#SVGID_00000011724905932118675360000016513020530671312292_);}
	.st19{fill:url(#SVGID_00000166634781085770167700000002388645503035167662_);}
	.st20{fill:url(#SVGID_00000077311906386723778160000000219925999831114419_);}
	.st21{fill:url(#SVGID_00000171704459742599797580000011812032381336148897_);}
	.st22{fill:none;stroke:#FF7900;stroke-width:8.7123;stroke-miterlimit:10;}
	.st23{fill:#FF7900;}
</style>
<g>
	<g>
		<rect x="160.9" y="160.9" class="st0" width="758.3" height="758.3"/>
		
			<linearGradient id="SVGID_1_" gradientUnits="userSpaceOnUse" x1="70.7" y1="542" x2="1009.3" y2="542" gradientTransform="matrix(1 0 0 -1 0 1082)">
			<stop  offset="0" style="stop-color:#040404"/>
			<stop  offset="0.5661" style="stop-color:#262623"/>
			<stop  offset="1" style="stop-color:#000000"/>
		</linearGradient>
		<path class="st1" d="M1009.3,1009.3H70.7V70.7h938.6V1009.3z M163,917h754V163H163V917z"/>
		<g>
			
				<radialGradient id="SVGID_00000096056320425859205400000014268489360820355722_" cx="471.3736" cy="-374.88" r="15.4364" gradientTransform="matrix(0 1 1 0 490.9264 492.9264)" gradientUnits="userSpaceOnUse">
				<stop  offset="0" style="stop-color:#FFFFFF"/>
				<stop  offset="0.6402" style="stop-color:#FFE100"/>
				<stop  offset="1" style="stop-color:#C99000"/>
			</radialGradient>
			<path style="fill:url(#SVGID_00000096056320425859205400000014268489360820355722_);" d="M107,951.8c6.9-5,16.5-3.5,21.6,3.4
				c5,6.9,3.5,16.5-3.4,21.6c-6.9,5-16.5,3.5-21.6-3.4C98.5,966.5,100.1,956.8,107,951.8z"/>
			
				<radialGradient id="SVGID_00000170969304155004274790000013410816044054813370_" cx="471.3736" cy="473.0272" r="15.4364" gradientTransform="matrix(0 1 1 0 490.9264 492.9264)" gradientUnits="userSpaceOnUse">
				<stop  offset="0" style="stop-color:#FFFFFF"/>
				<stop  offset="0.6402" style="stop-color:#FFE100"/>
				<stop  offset="1" style="stop-color:#C99000"/>
			</radialGradient>
			<path style="fill:url(#SVGID_00000170969304155004274790000013410816044054813370_);" d="M954.9,951.8c6.9-5,16.5-3.5,21.6,3.4
				c5,6.9,3.5,16.5-3.4,21.6c-6.9,5-16.5,3.5-21.6-3.4C946.5,966.5,948,956.8,954.9,951.8z"/>
			
				<radialGradient id="SVGID_00000175316148894436488570000006460285473163765160_" cx="471.3736" cy="261.0736" r="15.4248" gradientTransform="matrix(0 1 1 0 490.9264 492.9264)" gradientUnits="userSpaceOnUse">
				<stop  offset="0" style="stop-color:#FFFFFF"/>
				<stop  offset="0.6402" style="stop-color:#FFE100"/>
				<stop  offset="1" style="stop-color:#C99000"/>
			</radialGradient>
			<path style="fill:url(#SVGID_00000175316148894436488570000006460285473163765160_);" d="M742.9,951.8c6.9-5,16.5-3.5,21.6,3.4
				c5,6.9,3.5,16.5-3.4,21.6c-6.9,5-16.5,3.5-21.6-3.4C734.5,966.5,736,956.8,742.9,951.8z"/>
			
				<radialGradient id="SVGID_00000099637776521787713710000006546627335885338255_" cx="471.3736" cy="49.0736" r="15.4505" gradientTransform="matrix(0 1 1 0 490.9264 492.9264)" gradientUnits="userSpaceOnUse">
				<stop  offset="0" style="stop-color:#FFFFFF"/>
				<stop  offset="0.6402" style="stop-color:#FFE100"/>
				<stop  offset="1" style="stop-color:#C99000"/>
			</radialGradient>
			<path style="fill:url(#SVGID_00000099637776521787713710000006546627335885338255_);" d="M530.9,951.8c6.9-5,16.5-3.5,21.6,3.4
				c5,6.9,3.5,16.5-3.4,21.6c-6.9,5-16.5,3.5-21.6-3.4C522.5,966.5,524,956.8,530.9,951.8z"/>
			
				<radialGradient id="SVGID_00000159469558616605246190000005631298985528742543_" cx="471.3736" cy="-162.9032" r="15.4364" gradientTransform="matrix(0 1 1 0 490.9264 492.9264)" gradientUnits="userSpaceOnUse">
				<stop  offset="0" style="stop-color:#FFFFFF"/>
				<stop  offset="0.6402" style="stop-color:#FFE100"/>
				<stop  offset="1" style="stop-color:#C99000"/>
			</radialGradient>
			<path style="fill:url(#SVGID_00000159469558616605246190000005631298985528742543_);" d="M319,951.8c6.9-5,16.5-3.5,21.6,3.4
				c5,6.9,3.5,16.5-3.4,21.6c-6.9,5-16.5,3.5-21.6-3.4C310.5,966.5,312.1,956.8,319,951.8z"/>
		</g>
		<g>
			<g>
				
					<radialGradient id="SVGID_00000012465024791918189490000008029369035833278103_" cx="-376.88" cy="-374.88" r="15.4367" gradientTransform="matrix(0 1 1 0 490.9264 492.9264)" gradientUnits="userSpaceOnUse">
					<stop  offset="0" style="stop-color:#FFFFFF"/>
					<stop  offset="0.6402" style="stop-color:#FFE100"/>
					<stop  offset="1" style="stop-color:#C99000"/>
				</radialGradient>
				<path style="fill:url(#SVGID_00000012465024791918189490000008029369035833278103_);" d="M107,103.6c6.9-5,16.5-3.5,21.6,3.4
					c5,6.9,3.5,16.5-3.4,21.6c-6.9,5-16.5,3.5-21.6-3.4C98.5,118.2,100.1,108.6,107,103.6z"/>
				
					<radialGradient id="SVGID_00000017482359451337413040000015001881589767924144_" cx="-376.88" cy="473.0272" r="15.4367" gradientTransform="matrix(0 1 1 0 490.9264 492.9264)" gradientUnits="userSpaceOnUse">
					<stop  offset="0" style="stop-color:#FFFFFF"/>
					<stop  offset="0.6402" style="stop-color:#FFE100"/>
					<stop  offset="1" style="stop-color:#C99000"/>
				</radialGradient>
				<path style="fill:url(#SVGID_00000017482359451337413040000015001881589767924144_);" d="M954.9,103.6c6.9-5,16.5-3.5,21.6,3.4
					c5,6.9,3.5,16.5-3.4,21.6c-6.9,5-16.5,3.5-21.6-3.4C946.5,118.2,948,108.6,954.9,103.6z"/>
				
					<radialGradient id="SVGID_00000157998076680502329210000017540574231942090916_" cx="-376.88" cy="261.0736" r="15.4252" gradientTransform="matrix(0 1 1 0 490.9264 492.9264)" gradientUnits="userSpaceOnUse">
					<stop  offset="0" style="stop-color:#FFFFFF"/>
					<stop  offset="0.6402" style="stop-color:#FFE100"/>
					<stop  offset="1" style="stop-color:#C99000"/>
				</radialGradient>
				<path style="fill:url(#SVGID_00000157998076680502329210000017540574231942090916_);" d="M742.9,103.6c6.9-5,16.5-3.5,21.6,3.4
					c5,6.9,3.5,16.5-3.4,21.6c-6.9,5-16.5,3.5-21.6-3.4C734.5,118.2,736,108.6,742.9,103.6z"/>
				
					<radialGradient id="SVGID_00000133504125177177054660000007436955826496826026_" cx="-376.88" cy="49.0736" r="15.4367" gradientTransform="matrix(0 1 1 0 490.9264 492.9264)" gradientUnits="userSpaceOnUse">
					<stop  offset="0" style="stop-color:#FFFFFF"/>
					<stop  offset="0.6402" style="stop-color:#FFE100"/>
					<stop  offset="1" style="stop-color:#C99000"/>
				</radialGradient>
				<path style="fill:url(#SVGID_00000133504125177177054660000007436955826496826026_);" d="M530.9,103.6c6.9-5,16.5-3.5,21.6,3.4
					c5,6.9,3.5,16.5-3.4,21.6c-6.9,5-16.5,3.5-21.6-3.4C522.5,118.2,524,108.6,530.9,103.6z"/>
				
					<radialGradient id="SVGID_00000062150669574051563520000000346452713080912007_" cx="-376.88" cy="-162.9032" r="15.4367" gradientTransform="matrix(0 1 1 0 490.9264 492.9264)" gradientUnits="userSpaceOnUse">
					<stop  offset="0" style="stop-color:#FFFFFF"/>
					<stop  offset="0.6402" style="stop-color:#FFE100"/>
					<stop  offset="1" style="stop-color:#C99000"/>
				</radialGradient>
				<path style="fill:url(#SVGID_00000062150669574051563520000000346452713080912007_);" d="M319,103.6c6.9-5,16.5-3.5,21.6,3.4
					c5,6.9,3.5,16.5-3.4,21.6c-6.9,5-16.5,3.5-21.6-3.4C310.5,118.2,312.1,108.6,319,103.6z"/>
			</g>
			<g>
				
					<radialGradient id="SVGID_00000052096531853910079900000010126344723267209619_" cx="-4057.606" cy="1757.9957" r="15.4367" gradientTransform="matrix(-1 0 0 1 -3941.5593 -1641.9493)" gradientUnits="userSpaceOnUse">
					<stop  offset="0" style="stop-color:#FFFFFF"/>
					<stop  offset="0.6402" style="stop-color:#FFE100"/>
					<stop  offset="1" style="stop-color:#C99000"/>
				</radialGradient>
				<path style="fill:url(#SVGID_00000052096531853910079900000010126344723267209619_);" d="M128.5,107c5,6.9,3.5,16.5-3.4,21.6
					c-6.9,5-16.5,3.5-21.6-3.4c-5-6.9-3.5-16.5,3.4-21.6C113.9,98.5,123.5,100.1,128.5,107z"/>
				
					<radialGradient id="SVGID_00000173843961682302871610000014357168155959106734_" cx="-4057.606" cy="2605.9028" r="15.4367" gradientTransform="matrix(-1 0 0 1 -3941.5593 -1641.9493)" gradientUnits="userSpaceOnUse">
					<stop  offset="0" style="stop-color:#FFFFFF"/>
					<stop  offset="0.6402" style="stop-color:#FFE100"/>
					<stop  offset="1" style="stop-color:#C99000"/>
				</radialGradient>
				<path style="fill:url(#SVGID_00000173843961682302871610000014357168155959106734_);" d="M128.5,954.9c5,6.9,3.5,16.5-3.4,21.6
					c-6.9,5-16.5,3.5-21.6-3.4c-5-6.9-3.5-16.5,3.4-21.6C113.9,946.5,123.5,948,128.5,954.9z"/>
				
					<radialGradient id="SVGID_00000116214152168395067680000004978281347605375138_" cx="-4057.606" cy="2393.9492" r="15.4251" gradientTransform="matrix(-1 0 0 1 -3941.5593 -1641.9493)" gradientUnits="userSpaceOnUse">
					<stop  offset="0" style="stop-color:#FFFFFF"/>
					<stop  offset="0.6402" style="stop-color:#FFE100"/>
					<stop  offset="1" style="stop-color:#C99000"/>
				</radialGradient>
				<path style="fill:url(#SVGID_00000116214152168395067680000004978281347605375138_);" d="M128.5,742.9c5,6.9,3.5,16.5-3.4,21.6
					c-6.9,5-16.5,3.5-21.6-3.4c-5-6.9-3.5-16.5,3.4-21.6C113.9,734.5,123.5,736,128.5,742.9z"/>
				
					<radialGradient id="SVGID_00000045614910491568271580000013005705655939777671_" cx="-4057.606" cy="2181.9492" r="15.4367" gradientTransform="matrix(-1 0 0 1 -3941.5593 -1641.9493)" gradientUnits="userSpaceOnUse">
					<stop  offset="0" style="stop-color:#FFFFFF"/>
					<stop  offset="0.6402" style="stop-color:#FFE100"/>
					<stop  offset="1" style="stop-color:#C99000"/>
				</radialGradient>
				<path style="fill:url(#SVGID_00000045614910491568271580000013005705655939777671_);" d="M128.5,530.9c5,6.9,3.5,16.5-3.4,21.6
					c-6.9,5-16.5,3.5-21.6-3.4c-5-6.9-3.5-16.5,3.4-21.6C113.9,522.5,123.5,524,128.5,530.9z"/>
				
					<radialGradient id="SVGID_00000145034977416243614590000000996029595657517445_" cx="-4057.606" cy="1969.9725" r="15.4367" gradientTransform="matrix(-1 0 0 1 -3941.5593 -1641.9493)" gradientUnits="userSpaceOnUse">
					<stop  offset="0" style="stop-color:#FFFFFF"/>
					<stop  offset="0.6402" style="stop-color:#FFE100"/>
					<stop  offset="1" style="stop-color:#C99000"/>
				</radialGradient>
				<path style="fill:url(#SVGID_00000145034977416243614590000000996029595657517445_);" d="M128.5,319c5,6.9,3.5,16.5-3.4,21.6
					c-6.9,5-16.5,3.5-21.6-3.4c-5-6.9-3.5-16.5,3.4-21.6C113.9,310.5,123.5,312.1,128.5,319z"/>
			</g>
			<g>
				
					<radialGradient id="SVGID_00000007430167938070625900000007582318921268402845_" cx="-4905.5132" cy="1757.9957" r="15.4367" gradientTransform="matrix(-1 0 0 1 -3941.5593 -1641.9493)" gradientUnits="userSpaceOnUse">
					<stop  offset="0" style="stop-color:#FFFFFF"/>
					<stop  offset="0.6402" style="stop-color:#FFE100"/>
					<stop  offset="1" style="stop-color:#C99000"/>
				</radialGradient>
				<path style="fill:url(#SVGID_00000007430167938070625900000007582318921268402845_);" d="M976.4,107c5,6.9,3.5,16.5-3.4,21.6
					c-6.9,5-16.5,3.5-21.6-3.4c-5-6.9-3.5-16.5,3.4-21.6C961.8,98.5,971.4,100.1,976.4,107z"/>
				
					<radialGradient id="SVGID_00000088854791993140056270000012860516236959688872_" cx="-4905.5132" cy="2605.9028" r="15.4367" gradientTransform="matrix(-1 0 0 1 -3941.5593 -1641.9493)" gradientUnits="userSpaceOnUse">
					<stop  offset="0" style="stop-color:#FFFFFF"/>
					<stop  offset="0.6402" style="stop-color:#FFE100"/>
					<stop  offset="1" style="stop-color:#C99000"/>
				</radialGradient>
				<path style="fill:url(#SVGID_00000088854791993140056270000012860516236959688872_);" d="M976.4,954.9c5,6.9,3.5,16.5-3.4,21.6
					c-6.9,5-16.5,3.5-21.6-3.4c-5-6.9-3.5-16.5,3.4-21.6C961.8,946.5,971.4,948,976.4,954.9z"/>
				
					<radialGradient id="SVGID_00000047019420952882554990000002026782951706206606_" cx="-4905.5132" cy="2393.9492" r="15.4251" gradientTransform="matrix(-1 0 0 1 -3941.5593 -1641.9493)" gradientUnits="userSpaceOnUse">
					<stop  offset="0" style="stop-color:#FFFFFF"/>
					<stop  offset="0.6402" style="stop-color:#FFE100"/>
					<stop  offset="1" style="stop-color:#C99000"/>
				</radialGradient>
				<path style="fill:url(#SVGID_00000047019420952882554990000002026782951706206606_);" d="M976.4,742.9c5,6.9,3.5,16.5-3.4,21.6
					c-6.9,5-16.5,3.5-21.6-3.4c-5-6.9-3.5-16.5,3.4-21.6C961.8,734.5,971.4,736,976.4,742.9z"/>
				
					<radialGradient id="SVGID_00000132048469804164697750000008223015571612483760_" cx="-4905.5132" cy="2181.9492" r="15.4367" gradientTransform="matrix(-1 0 0 1 -3941.5593 -1641.9493)" gradientUnits="userSpaceOnUse">
					<stop  offset="0" style="stop-color:#FFFFFF"/>
					<stop  offset="0.6402" style="stop-color:#FFE100"/>
					<stop  offset="1" style="stop-color:#C99000"/>
				</radialGradient>
				<path style="fill:url(#SVGID_00000132048469804164697750000008223015571612483760_);" d="M976.4,530.9c5,6.9,3.5,16.5-3.4,21.6
					c-6.9,5-16.5,3.5-21.6-3.4c-5-6.9-3.5-16.5,3.4-21.6C961.8,522.5,971.4,524,976.4,530.9z"/>
				
					<radialGradient id="SVGID_00000109742308377206744440000017482849683559576449_" cx="-4905.5132" cy="1969.9725" r="15.4367" gradientTransform="matrix(-1 0 0 1 -3941.5593 -1641.9493)" gradientUnits="userSpaceOnUse">
					<stop  offset="0" style="stop-color:#FFFFFF"/>
					<stop  offset="0.6402" style="stop-color:#FFE100"/>
					<stop  offset="1" style="stop-color:#C99000"/>
				</radialGradient>
				<path style="fill:url(#SVGID_00000109742308377206744440000017482849683559576449_);" d="M976.4,319c5,6.9,3.5,16.5-3.4,21.6
					c-6.9,5-16.5,3.5-21.6-3.4c-5-6.9-3.5-16.5,3.4-21.6C961.8,310.5,971.4,312.1,976.4,319z"/>
			</g>
		</g>
		<rect x="164.7" y="163.4" class="st22" width="750.6" height="753.2"/>
	</g>
	<g>
		<g>
			<path class="st23" d="M324.9,609h-41.3l-4,22.7l0.3,0.3c2.8-2.8,5.7-4.7,8.9-5.9c3.1-1.2,6.7-1.8,10.7-1.8c5,0,9.3,0.9,13.2,2.7
				c3.8,1.8,7,4.2,9.6,7.3s4.6,6.7,6,10.8s2.1,8.6,2.1,13.2c0,5.1-1,9.9-3,14.4c-2,4.4-4.7,8.3-8.1,11.5s-7.3,5.8-11.8,7.6
				s-9.2,2.7-14.3,2.6c-4.9,0-9.5-0.7-13.9-2s-8.4-3.3-11.8-6s-6.2-6-8.2-9.9c-2-4-3.1-8.6-3.2-13.8h20.3c0.5,4.5,2.2,8.1,5.2,10.9
				c3,2.8,6.7,4.2,11.2,4.2c2.7,0,5.1-0.5,7.2-1.6c2.1-1,3.9-2.5,5.4-4.3s2.7-3.9,3.5-6.2s1.2-4.7,1.2-7.2c0-2.6-0.4-5-1.1-7.3
				c-0.8-2.3-1.9-4.3-3.4-6s-3.4-3.1-5.5-4c-2.1-1-4.6-1.4-7.2-1.4c-3.6,0-6.6,0.6-8.9,1.9c-2.3,1.3-4.4,3.3-6.4,6.1h-18.3l9.9-55.3
				l55.9,0.1L324.9,609z"/>
			<path class="st23" d="M335.9,641.9c0-9.7,1-17.9,3-24.5s4.6-11.9,8-15.9c3.3-4,7.2-6.9,11.7-8.6c4.4-1.7,9.1-2.6,14.1-2.6
				s9.7,0.9,14.2,2.6c4.5,1.7,8.4,4.6,11.8,8.6s6,9.3,8,15.9c1.9,6.6,2.9,14.8,2.9,24.5c0,10-1,18.3-3,25s-4.6,12.1-8,16.1
				c-3.4,4.1-7.3,7-11.8,8.7s-9.2,2.6-14.2,2.6s-9.6-0.9-14.1-2.6c-4.4-1.7-8.3-4.6-11.6-8.7c-3.3-4.1-6-9.5-7.9-16.2
				C336.9,660.2,335.9,651.9,335.9,641.9z M356.2,641.9c0,2.9,0.1,6.3,0.3,10.4c0.2,4.1,0.8,8,1.8,11.7c1,3.8,2.6,7,4.8,9.7
				c2.2,2.7,5.3,4,9.4,4s7.3-1.3,9.6-4c2.3-2.7,3.9-5.9,4.9-9.6c1-3.8,1.6-7.7,1.8-11.7c0.2-4.1,0.3-7.5,0.3-10.4
				c0-1.7,0-3.8-0.1-6.2c0-2.4-0.2-4.9-0.6-7.5c-0.3-2.6-0.8-5.1-1.4-7.7c-0.6-2.5-1.5-4.8-2.8-6.8c-1.2-2-2.8-3.6-4.7-4.9
				c-1.9-1.2-4.2-1.9-7-1.9c-2.7,0-5,0.6-6.9,1.9c-1.9,1.2-3.5,2.9-4.7,4.9s-2.1,4.3-2.8,6.8c-0.7,2.5-1.1,5.1-1.4,7.6
				c-0.3,2.6-0.5,5.1-0.5,7.5C356.2,638.1,356.2,640.2,356.2,641.9z"/>
			<path class="st23" d="M415.4,641.9c0-9.7,1-17.9,3-24.5s4.6-11.9,8-15.9c3.3-4,7.2-6.9,11.7-8.6c4.4-1.7,9.1-2.6,14.1-2.6
				s9.7,0.9,14.2,2.6c4.5,1.7,8.4,4.6,11.8,8.6s6,9.3,8,15.9c1.9,6.6,2.9,14.8,2.9,24.5c0,10-1,18.3-3,25s-4.6,12.1-8,16.1
				c-3.4,4.1-7.3,7-11.8,8.7s-9.2,2.6-14.2,2.6s-9.6-0.9-14.1-2.6c-4.4-1.7-8.3-4.6-11.6-8.7c-3.3-4.1-6-9.5-7.9-16.2
				C416.4,660.3,415.4,652,415.4,641.9z M435.7,642c0,2.9,0.1,6.3,0.3,10.4c0.2,4.1,0.8,8,1.8,11.7c1,3.8,2.6,7,4.8,9.7
				c2.2,2.7,5.3,4,9.4,4s7.3-1.3,9.6-4c2.3-2.7,3.9-5.9,4.9-9.6c1-3.8,1.6-7.7,1.8-11.7c0.2-4.1,0.3-7.5,0.3-10.4
				c0-1.7,0-3.8-0.1-6.2c0-2.4-0.2-4.9-0.6-7.5c-0.3-2.6-0.8-5.1-1.4-7.7c-0.6-2.5-1.5-4.8-2.8-6.8c-1.2-2-2.8-3.6-4.7-4.9
				c-1.9-1.2-4.2-1.9-7-1.9c-2.7,0-5,0.6-6.9,1.9c-1.9,1.2-3.5,2.9-4.7,4.9s-2.1,4.3-2.8,6.8c-0.7,2.5-1.1,5.1-1.4,7.6
				c-0.3,2.6-0.5,5.1-0.5,7.5C435.7,638.2,435.7,640.3,435.7,642z"/>
			<path class="st23" d="M541.6,590.5l76.3,0.1v18.9l-53.9-0.1v21.9h49.5v17.4H564v25l55,0.1v18.9l-77.5-0.1L541.6,590.5z"/>
			<path class="st23" d="M707.9,681.1c-4,5.1-8.4,8.8-13.3,10.9s-9.8,3.1-14.7,3.1c-7.9,0-15-1.4-21.2-4.2s-11.4-6.5-15.7-11.3
				s-7.6-10.4-9.8-16.9c-2.3-6.5-3.4-13.4-3.4-20.7c0-7.5,1.2-14.6,3.5-21.2c2.3-6.6,5.6-12.3,9.9-17.1c4.3-4.9,9.5-8.7,15.7-11.4
				c6.2-2.8,13.3-4.1,21.2-4.1c5.2,0,10.3,0.8,15.2,2.4c4.9,1.6,9.3,3.9,13.2,6.9c3.9,3.1,7.2,6.8,9.8,11.3s4.2,9.6,4.8,15.4h-21.4
				c-1.3-5.7-3.9-10-7.8-12.9s-8.5-4.3-13.8-4.3c-5.1,0-9.3,1-12.9,2.9c-3.5,2-6.4,4.6-8.6,7.9c-2.2,3.3-3.8,7-4.8,11.2
				s-1.5,8.5-1.5,13c0,4.3,0.5,8.5,1.5,12.5c1,4.1,2.6,7.7,4.8,10.9s5,5.8,8.6,7.8c3.5,2,7.8,2.9,12.9,2.9c7.3,0,13.1-1.9,17.2-5.6
				c4.1-3.8,6.5-9.2,7.2-16.4h-22.6v-16.7h42.9l-0.1,55.2h-14.3L707.9,681.1z"/>
			<path class="st23" d="M742.7,590.7h46c6.4,0,11.8,0.9,16.3,2.8c4.5,1.9,8.1,4.3,10.9,7.4c2.8,3.1,4.9,6.6,6.1,10.5
				c1.3,4,1.9,8,1.9,12.1c0,4.2-0.7,8.2-1.9,12.2c-1.3,3.9-3.3,7.4-6.2,10.4c-2.8,3-6.5,5.5-10.9,7.4c-4.5,1.9-9.9,2.8-16.3,2.8H765
				v36.6h-22.4L742.7,590.7z M765.1,638.7h17.4c2.6,0,5.1-0.2,7.4-0.6c2.4-0.4,4.5-1.1,6.3-2.2c1.8-1.1,3.3-2.6,4.4-4.6
				c1.1-2,1.6-4.6,1.7-7.9c0-3.2-0.5-5.9-1.6-7.9s-2.5-3.6-4.4-4.7c-1.8-1.1-3.9-1.8-6.3-2.2c-2.4-0.4-4.9-0.6-7.4-0.6h-17.4
				L765.1,638.7z"/>
		</g>
		<g>
			<path class="st23" d="M309.6,310.8l-56-92.8h37.7l35.6,60l35.3-60h37.3L343,311.6v58.3h-33.4V310.8z"/>
			<path class="st23" d="M405.6,294.6c0-11.2,1.7-21.7,5.1-31.5c3.4-9.8,8.3-18.3,14.7-25.5c6.4-7.2,14.2-12.9,23.4-17
				c9.2-4.1,19.7-6.2,31.5-6.2s22.3,2.1,31.5,6.2c9.2,4.1,17,9.8,23.4,17c6.4,7.2,11.3,15.8,14.7,25.5c3.4,9.8,5.1,20.3,5.1,31.5
				c0,10.9-1.7,21.2-5.1,30.9c-3.4,9.7-8.3,18-14.7,25.1s-14.2,12.7-23.4,16.8c-9.2,4.1-19.7,6.2-31.5,6.2s-22.3-2.1-31.5-6.2
				s-17-9.7-23.4-16.8c-6.4-7.1-11.3-15.5-14.7-25.1C407.3,315.8,405.6,305.5,405.6,294.6z M439,294.6c0,6.4,0.7,12.6,2.2,18.6
				s3.9,11.5,7.1,16.3c3.3,4.8,7.5,8.7,12.8,11.6c5.2,2.9,11.6,4.4,19.2,4.4c7.5,0,13.9-1.5,19.2-4.4c5.2-2.9,9.5-6.8,12.8-11.6
				c3.3-4.8,5.6-10.3,7.1-16.3s2.2-12.2,2.2-18.6c0-6.7-0.7-13.1-2.2-19.4c-1.5-6.2-3.9-11.8-7.1-16.7c-3.3-4.9-7.5-8.8-12.8-11.7
				c-5.3-2.9-11.6-4.4-19.2-4.4c-7.5,0-13.9,1.5-19.2,4.4c-5.3,2.9-9.5,6.8-12.8,11.7c-3.3,4.9-5.6,10.5-7.1,16.7
				C439.8,281.5,439,287.9,439,294.6z"/>
			<path class="st23" d="M707,312.5c0,20.6-5.7,35.9-17.2,46s-27.4,15.1-47.7,15.1c-20.6,0-36.5-5-47.8-15s-16.9-25.4-16.9-46.1V218
				h33.4v94.5c0,4.1,0.4,8.2,1.1,12.1c0.7,4,2.2,7.5,4.5,10.6s5.4,5.6,9.5,7.5c4,1.8,9.5,2.8,16.3,2.8c11.9,0,20.2-2.7,24.7-8
				s6.8-13.7,6.8-25V218H707L707,312.5L707,312.5z"/>
			<path class="st23" d="M415,556.6h-33.2L356,453.1h-0.4l-25.3,103.5h-33.9l-40.2-152h33.4l24.1,103.5h0.4l26.4-103.5h31.3
				l26,104.7h0.4l24.9-104.7h32.8L415,556.6z"/>
			<path class="st23" d="M464.6,481.2c0-11.2,1.7-21.7,5.1-31.5c3.4-9.8,8.3-18.3,14.7-25.5c6.4-7.2,14.2-12.9,23.4-17
				c9.2-4.1,19.7-6.2,31.5-6.2c11.8,0,22.3,2.1,31.5,6.2s17,9.8,23.4,17s11.3,15.8,14.7,25.5c3.4,9.8,5.1,20.3,5.1,31.5
				c0,10.9-1.7,21.2-5.1,30.9c-3.4,9.7-8.3,18-14.7,25.1s-14.2,12.7-23.4,16.8s-19.7,6.2-31.5,6.2s-22.3-2.1-31.5-6.2
				c-9.2-4.1-17-9.7-23.4-16.8c-6.4-7.1-11.3-15.5-14.7-25.1C466.3,502.4,464.6,492.1,464.6,481.2z M498,481.2
				c0,6.4,0.7,12.6,2.2,18.6c1.5,6,3.9,11.5,7.1,16.3c3.3,4.8,7.5,8.7,12.8,11.6c5.2,2.9,11.6,4.4,19.2,4.4c7.5,0,13.9-1.5,19.2-4.4
				c5.2-2.9,9.5-6.8,12.8-11.6s5.6-10.3,7.1-16.3s2.2-12.2,2.2-18.6c0-6.7-0.7-13.1-2.2-19.4c-1.5-6.2-3.9-11.8-7.1-16.7
				c-3.3-4.9-7.5-8.8-12.8-11.7c-5.3-2.9-11.6-4.4-19.2-4.4c-7.5,0-13.9,1.5-19.2,4.4s-9.5,6.8-12.8,11.7
				c-3.3,4.9-5.6,10.5-7.1,16.7C498.8,468.1,498,474.5,498,481.2z"/>
			<path class="st23" d="M636.8,404.6H670l63.4,102h0.4v-102h31.3v152h-33.4l-63.2-101.8h-0.4v101.8h-31.3V404.6z"/>
			<path class="st23" d="M793,523.8h33.4v32.8H793V523.8z M825.2,445.4L817,511h-15.1l-8.1-65.6v-31.3h31.5L825.2,445.4L825.2,445.4
				z"/>
		</g>
	</g>
	<g>
		<rect x="253.5" y="724.9" width="573" height="146.6"/>
		<g>
			<g>
				<g>
					<path class="st0" d="M670,757.5h-57.5c-6.4,0-11.7,5.3-11.7,11.8S606,781,612.5,781h29.3l-47.2,47.5c-4.6,4.6-4.6,12,0,16.6
						c4.6,4.6,11.9,4.6,16.5,0l47.2-47.5v29.5c0,6.5,5.2,11.8,11.7,11.8c6.4,0,11.7-5.3,11.7-11.8v-57.9
						C681.7,762.8,676.4,757.5,670,757.5z"/>
				</g>
				<g>
					<path class="st23" d="M705,838.9h57.5c6.4,0,11.7-5.3,11.7-11.8c0-6.5-5.2-11.8-11.7-11.8h-29.3l47.2-47.5
						c4.6-4.6,4.6-12,0-16.6c-4.6-4.6-11.9-4.6-16.5,0l-47.2,47.5v-29.5c0-6.5-5.2-11.8-11.7-11.8c-6.4,0-11.7,5.3-11.7,11.8v57.9
						C693.3,833.7,698.6,838.9,705,838.9z"/>
				</g>
			</g>
			<g>
				<path class="st0" d="M467.9,819.1c0.4-0.2,0.7-0.4,1-0.7c0.3-0.3,0.5-0.6,0.7-1c0.2-0.4,0.3-0.8,0.3-1.2s-0.1-0.8-0.3-1.2
					c-0.2-0.4-0.4-0.7-0.7-1c-0.3-0.3-0.6-0.5-1-0.7c-0.4-0.2-0.8-0.3-1.2-0.3s-0.8,0.1-1.2,0.3c-0.4,0.2-0.7,0.4-1,0.7
					c-0.3,0.3-0.5,0.6-0.6,1c-0.2,0.4-0.2,0.8-0.2,1.2s0.1,0.8,0.2,1.2c0.2,0.4,0.4,0.7,0.6,1c0.3,0.3,0.6,0.5,1,0.7
					c0.4,0.2,0.8,0.3,1.2,0.3S467.5,819.3,467.9,819.1z"/>
				<path class="st0" d="M461.8,818.5c0.3-0.3,0.5-0.6,0.7-1c0.2-0.4,0.3-0.8,0.3-1.2s-0.1-0.8-0.3-1.2c-0.2-0.4-0.4-0.7-0.7-1
					c-0.3-0.3-0.6-0.5-1-0.7c-0.4-0.2-0.8-0.3-1.2-0.3c-0.4,0-0.8,0.1-1.2,0.3c-0.4,0.2-0.7,0.4-1,0.7c-0.3,0.3-0.5,0.6-0.6,1
					c-0.2,0.4-0.2,0.8-0.2,1.2s0.1,0.8,0.2,1.2c0.2,0.4,0.4,0.7,0.6,1c0.3,0.3,0.6,0.5,1,0.7s0.8,0.3,1.2,0.3c0.4,0,0.8-0.1,1.2-0.3
					C461.3,818.9,461.6,818.7,461.8,818.5z"/>
				<path class="st0" d="M461.1,824.7c0.3,0.3,0.6,0.5,1,0.7c0.4,0.2,0.8,0.3,1.2,0.3c0.4,0,0.8-0.1,1.2-0.3c0.4-0.2,0.7-0.4,1-0.7
					c0.3-0.3,0.5-0.6,0.7-1c0.2-0.4,0.3-0.8,0.3-1.2c0-0.4-0.1-0.8-0.3-1.2c-0.2-0.4-0.4-0.7-0.7-1c-0.3-0.3-0.6-0.5-1-0.7
					c-0.4-0.2-0.8-0.3-1.2-0.3c-0.4,0-0.8,0.1-1.2,0.3c-0.4,0.2-0.7,0.4-1,0.7c-0.3,0.3-0.5,0.6-0.7,1c-0.2,0.4-0.3,0.8-0.3,1.2
					s0.1,0.8,0.3,1.2C460.6,824.1,460.8,824.4,461.1,824.7z"/>
				<path class="st0" d="M453.2,836.7c2.5,0.7,5.3,1.1,8.3,1.1c0.7,0,1.7-0.1,2.9-0.2c1.2-0.2,2.5-0.4,3.9-0.8s3-1,4.6-1.7
					c1.6-0.7,3.3-1.6,4.9-2.7l-3.6-6.7c-1.4,0.7-2.8,1.2-4,1.7c-1.2,0.4-2.4,0.8-3.5,1c-1.1,0.3-2,0.4-2.9,0.5
					c-0.9,0.1-1.8,0.1-2.5,0.1c-1.6,0-3.1-0.2-4.5-0.7c-1.4-0.4-2.6-1.1-3.5-2c-1-0.9-1.8-1.9-2.3-3.2c-0.5-1.2-0.8-2.7-0.8-4.3
					c0-1.5,0.2-2.8,0.7-4c0.4-1.2,1.2-2.2,2-3.1c0.9-0.9,2-1.5,3.3-2c1.3-0.5,2.8-0.7,4.5-0.7h25h17.6v-28.8h-9.4v20.5h-8.2h-3.9
					c-0.1-3-0.5-5.8-1.3-8.4c-0.8-2.7-1.9-5-3.5-7c-1.6-2-3.6-3.6-6.1-4.8c-2.5-1.2-5.5-1.8-9-1.8c-1,0-2,0.1-3,0.2
					c-1,0.1-2,0.3-2.9,0.5c-0.9,0.2-1.8,0.4-2.6,0.6c-0.8,0.2-1.5,0.4-2,0.6v8.4c0.9-0.3,1.8-0.5,2.7-0.7c0.9-0.2,1.7-0.3,2.5-0.4
					c0.8-0.1,1.5-0.2,2.1-0.2c0.6,0,1.1-0.1,1.5-0.1c2.1,0,4,0.3,5.5,0.9c1.5,0.6,2.8,1.4,3.7,2.6c1,1.1,1.7,2.5,2.2,4.1
					c0.5,1.6,0.8,3.5,1,5.6h-11.7c-3,0-5.7,0.4-8.2,1.2c-2.5,0.8-4.6,2-6.3,3.5s-3.1,3.5-4.1,5.8c-1,2.3-1.5,4.9-1.5,7.9
					c0,3.2,0.5,5.9,1.6,8.3c1.1,2.3,2.5,4.3,4.3,5.8C448.5,834.8,450.7,836,453.2,836.7z"/>
				<path class="st0" d="M495,771.5c0.4,0.5,1,0.8,1.6,1.1c0.6,0.3,1.3,0.4,2,0.4c0.7,0,1.3-0.1,2-0.4c0.6-0.3,1.2-0.6,1.6-1.1
					c0.4-0.5,0.8-1,1.1-1.6c0.3-0.6,0.4-1.3,0.4-2c0-0.7-0.1-1.4-0.4-2c-0.3-0.6-0.6-1.2-1.1-1.6c-0.4-0.5-1-0.8-1.6-1.1
					c-0.6-0.3-1.3-0.4-2-0.4c-0.7,0-1.4,0.1-2,0.4c-0.6,0.3-1.2,0.6-1.6,1.1c-0.5,0.5-0.8,1-1.1,1.6c-0.3,0.6-0.4,1.3-0.4,2
					c0,0.7,0.1,1.4,0.4,2C494.2,770.5,494.5,771.1,495,771.5z"/>
				<path class="st0" d="M515.4,808.8c0,1.9-0.2,3.4-0.4,4.5c-0.3,1.2-0.7,2-1.4,2.6c-0.6,0.6-1.4,1-2.3,1.2c-0.9,0.2-2,0.3-3.3,0.3
					h-1.1v8.8h2.2c2.7,0,5.1-0.3,7-0.9c2-0.6,3.6-1.6,4.9-2.9s2.2-3.1,2.8-5.3c0.6-2.2,0.9-4.9,0.9-8.1v-28.5h-9.4L515.4,808.8
					L515.4,808.8z"/>
				<path class="st0" d="M535.1,805.6c1.2,1.2,2.7,2.1,4.3,2.6c1.7,0.6,3.5,0.9,5.4,0.9c2,0,3.8-0.2,5.3-0.6c0,0.6-0.2,1.3-0.3,2
					c-0.2,0.7-0.4,1.4-0.8,2c-0.4,0.6-0.9,1.3-1.5,1.9s-1.4,1.1-2.5,1.5c-1,0.4-2.2,0.8-3.6,1.1c-1.4,0.3-3.1,0.4-5.1,0.4h-1.7v8.8
					h2.2c4.4,0,8.1-0.5,11.1-1.4c2.9-1,5.3-2.3,7.1-4.2c1.8-1.8,3-4.1,3.7-6.7c0.7-2.7,1.1-5.7,1.1-9v-9c0-2.3-0.3-4.5-0.7-6.6
					c-0.5-2-1.3-3.8-2.4-5.4c-1.1-1.5-2.6-2.7-4.3-3.7c-1.8-0.9-4-1.3-6.7-1.3c-2.4,0-4.5,0.4-6.3,1.3s-3.4,2.1-4.6,3.5
					s-2.1,3.2-2.8,5.1c-0.6,2-1,4-1,6.1c0,2.4,0.4,4.5,1.1,6.3C532.9,803,533.8,804.4,535.1,805.6z M540.6,791.5
					c0.2-0.9,0.5-1.7,0.9-2.3s0.9-1.2,1.6-1.5s1.4-0.5,2.4-0.5s1.7,0.2,2.3,0.6c0.6,0.4,1.2,0.9,1.5,1.6c0.4,0.7,0.7,1.5,0.8,2.5
					c0.2,1,0.3,2.1,0.3,3.3v4.8c-1.2,0.7-2.8,1-4.8,1c-1.8,0-3.1-0.6-4-1.8c-0.9-1.2-1.3-2.7-1.3-4.8
					C540.3,793.4,540.4,792.5,540.6,791.5z"/>
				<rect x="566.1" y="759.1" class="st0" width="9.4" height="50.1"/>
			</g>
			<g>
				<path class="st0" d="M352,753c-0.6-0.3-1.3-0.4-2-0.4c-0.7,0-1.3,0.1-2,0.4c-0.6,0.3-1.2,0.6-1.6,1.1c-0.5,0.5-0.9,1-1.1,1.7
					c-0.3,0.6-0.4,1.3-0.4,2c0,0.7,0.1,1.3,0.4,2c0.3,0.6,0.6,1.2,1.1,1.6c0.5,0.5,1,0.8,1.6,1.1c0.6,0.3,1.2,0.4,2,0.4
					s1.4-0.1,2-0.4c0.6-0.3,1.2-0.6,1.6-1.1c0.4-0.5,0.8-1,1.1-1.6c0.3-0.6,0.4-1.3,0.4-2c0-0.7-0.1-1.4-0.4-2
					c-0.3-0.6-0.6-1.2-1.1-1.7C353.2,753.6,352.7,753.3,352,753z"/>
				<path class="st0" d="M346,763.5c-0.6-0.3-1.3-0.4-2-0.4c-0.7,0-1.4,0.1-2,0.4c-0.6,0.3-1.2,0.6-1.6,1.1c-0.4,0.5-0.8,1-1.1,1.6
					c-0.3,0.6-0.4,1.3-0.4,2s0.1,1.4,0.4,2c0.3,0.6,0.6,1.2,1.1,1.6s1,0.8,1.6,1.1c0.6,0.3,1.3,0.4,2,0.4c0.7,0,1.4-0.1,2-0.4
					c0.6-0.3,1.2-0.6,1.6-1.1c0.4-0.5,0.8-1,1.1-1.6c0.3-0.6,0.4-1.3,0.4-2s-0.1-1.4-0.4-2c-0.3-0.6-0.6-1.2-1.1-1.6
					S346.6,763.8,346,763.5z"/>
				<path class="st0" d="M363.6,801.2h-4.8c-1.6,0-2.7-0.4-3.3-1.2c-0.6-0.8-0.9-2.1-0.9-3.8v-12.3h-9.4v13.8c0,0.7-0.1,1.3-0.4,1.8
					s-0.5,0.8-0.9,1.1c-0.4,0.3-0.9,0.4-1.4,0.5c-0.6,0.1-1.2,0.1-1.9,0.1c-1.8,0-3.2-0.4-4-1.3s-1.2-2.1-1.2-3.7v-12.3h-9.4v24.4
					c0,1.8-0.2,3.3-0.6,4.6c-0.4,1.2-1,2.3-1.9,3.1c-0.8,0.8-1.9,1.3-3.2,1.7c-1.3,0.4-2.8,0.5-4.6,0.5c-3.5,0-6-0.9-7.7-2.7
					c-1.7-1.8-2.5-4.3-2.5-7.7v-10h-9.4v9.9c0,12.5,6.5,18.7,19.5,18.7c3.1,0,5.8-0.3,8.2-1s4.5-1.7,6.1-3.2c1.7-1.5,3-3.5,3.9-6
					c0.9-2.5,1.4-5.6,1.4-9.3c0.3,0.3,0.7,0.5,1.1,0.9c0.4,0.3,1,0.6,1.7,0.8c0.7,0.3,1.5,0.4,2.4,0.6c0.9,0.2,2,0.2,3.3,0.2
					c0.8,0,1.7,0,2.5-0.1c0.8-0.1,1.7-0.3,2.4-0.5c0.8-0.3,1.5-0.7,2.2-1.2c0.7-0.5,1.4-1.2,2-2c0.3,0.5,0.7,1.1,1.2,1.5
					c0.4,0.5,1.1,0.9,1.7,1.2c0.7,0.3,1.5,0.6,2.5,0.8c1,0.2,2.2,0.3,3.5,0.3H373v-28.8h-9.4L363.6,801.2L363.6,801.2z"/>
				<path class="st0" d="M352.2,764.6c-0.5,0.5-0.8,1-1.1,1.6c-0.3,0.6-0.4,1.3-0.4,2s0.1,1.4,0.4,2c0.3,0.6,0.6,1.2,1.1,1.6
					c0.4,0.5,1,0.8,1.6,1.1c0.6,0.3,1.3,0.4,2,0.4s1.3-0.1,2-0.4c0.6-0.3,1.2-0.6,1.6-1.1c0.4-0.5,0.8-1,1.1-1.6
					c0.3-0.6,0.4-1.3,0.4-2s-0.1-1.4-0.4-2c-0.3-0.6-0.6-1.2-1.1-1.6s-1-0.8-1.6-1.1s-1.3-0.4-2-0.4s-1.4,0.1-2,0.4
					C353.2,763.8,352.7,764.1,352.2,764.6z"/>
				<path class="st0" d="M422.3,792.8c-0.3-1-0.8-2-1.4-3c-0.6-1-1.5-2.1-2.6-3.3c-1.1-1.2-2.4-2.3-4-3.6c-1.6-1.2-3.5-2.6-5.7-4
					v-0.3l14-6.8v-10.8l-24.6,13.1v10.1c2.4,1.1,4.6,2.3,6.5,3.5c1.9,1.2,3.5,2.5,4.9,3.7c1.3,1.2,2.4,2.4,3.1,3.5
					c0.7,1.1,1.1,2.1,1.1,3c0,1.1-0.4,1.8-1,2.4c-0.7,0.5-1.8,0.8-3.2,0.8h-16.2H393h-1.2c-0.6,0-1.1,0-1.5-0.1
					c-0.4-0.1-0.8-0.3-1.1-0.5c-0.3-0.3-0.5-0.7-0.6-1.2c-0.2-0.5-0.2-1.2-0.2-2v-37.9H379v39.1c0,2.1,0.3,3.8,0.8,5.2
					c0.5,1.4,1.3,2.5,2.3,3.4s2.1,1.4,3.5,1.8s2.8,0.5,4.5,0.5h3h0.1h17.3c1.8,0,3.4-0.2,4.7-0.6c1.3-0.4,2.4-0.9,3.4-1.6
					c0.9-0.6,1.7-1.4,2.3-2.2c0.6-0.8,1.1-1.6,1.4-2.5c0.4-0.8,0.6-1.6,0.7-2.4c0.1-0.8,0.2-1.4,0.2-2c0-0.9,0-1.8-0.1-2.7
					C422.8,794.7,422.6,793.8,422.3,792.8z"/>
			</g>
		</g>
	</g>
</g>
</svg>
