<?xml version="1.0" encoding="utf-8"?>
<!-- Generator: Adobe Illustrator 28.0.0, SVG Export Plug-In . SVG Version: 6.00 Build 0)  -->
<svg version="1.1" id="Layer_1" xmlns="http://www.w3.org/2000/svg" xmlns:xlink="http://www.w3.org/1999/xlink" x="0px" y="0px"
	 viewBox="0 0 1080 1080" style="enable-background:new 0 0 1080 1080;" xml:space="preserve">
<style type="text/css">
	.st0{fill:#007534;}
	.st1{fill:#219E73;}
	.st2{fill:#FDFDFD;}
</style>
<g>
	<g>
		<g>
			<path class="st0" d="M360.5,198.1c80.4,0,160.9,0,241.3,0c0,63.5,0.1,127,0.1,190.5c0,9.5,0,9.5,9.3,9.5c60.8,0,121.7,0,182.5,0
				c3.3,2.2,1.9,5.7,1.9,8.6c0.1,126.9,0.1,253.8,0,380.6c0,3.3-0.1,6.7-0.3,10c-2.6,46.2-40.7,83.2-86.8,83.3
				c-112,0.3-224,0.1-336,0.1c-13.1,0-25.6-2.9-37.2-8.9c-32.6-17.1-50-44.1-50-80.9c-0.2-167.8-0.1-335.5-0.1-503.3
				c0-1.8,0.1-3.6,0.2-5.3c2-38.2,28.3-71,65.2-81.1C354,200.2,357.6,200.3,360.5,198.1z M647.4,570c-5-0.3-9.8,0.4-14.5,1.5
				c-15.1,3.5-27.8,15.6-29.7,28.1c-2.8,18.3,5.3,32.5,23,39.5c9.9,3.9,20.1,6.7,30,10.4c4.6,1.7,8.3,4.8,7.7,10.4
				c-0.5,5.7-4.6,8.2-9.7,9.5c-9.9,2.6-22-2.1-25.2-12.2c-2.8-9-7.1-7.8-13.2-5.3c-1.2,0.5-2.5,0.8-3.8,1.1
				c-14.7,4.3-15.8,7.6-7.4,21.1c0.6,0.9,1.2,1.8,1.9,2.7c12.4,16.7,35,23.7,57.4,17.7c18.8-5,30.5-17.2,31.4-32.5
				c1.2-21.5-6.5-33.2-26.7-41.5c-8.5-3.5-17.6-4.4-26.2-7.2c-4.4-1.4-8.8-3.5-8.3-8.9c0.6-5.9,5.5-7.5,10.8-7.8
				c9.9-0.7,16.2,3,20.8,13.1c1.5,3.2,2.6,3.8,5.8,2.3c6.4-3,12.9-5.8,19.6-8.2c3.9-1.4,4.9-3.2,2.8-6.8c-1.5-2.7-2.6-5.7-4.5-8.1
				C678.8,575.1,664.1,570.4,647.4,570z M441.8,657c7.1,12,13.7,23,20.2,34c1.2,2,2,4.4,5.2,4.3c9.7-0.1,19.3-0.1,29.9-0.1
				c-1.2-2.4-1.9-3.9-2.8-5.4c-11-18.7-22-37.4-33.2-56c-2.1-3.5-2.1-6.1,0-9.6c8.5-13.8,16.6-27.7,24.8-41.6
				c2.1-3.5,4.2-7.1,6.6-11.3c-10.1,0-19.2,0.2-28.3-0.1c-3.6-0.1-5.6,1-7.3,4.1c-4.7,8.4-9.8,16.7-15.2,25.8
				c-5.5-9.1-10.4-17.4-15.5-25.6c-1.1-1.8-1.5-4.2-4.5-4.2c-10.1,0.1-20.1,0-31.2,0c10.9,18.3,21.2,35.6,31.7,52.7
				c2.2,3.5,2.2,6,0.1,9.5c-10.9,18-21.6,36.1-32.3,54.2c-1.3,2.2-3.4,4.1-3.2,7.4c9.2,0,18.2-0.2,27.3,0.1c3.6,0.1,5.5-1.2,7.3-4.2
				C427.9,680,434.6,669.1,441.8,657z M509.4,633.5c0,18.9,0,37.7,0,56.6c0,3.3,0.2,5.3,4.5,5.3c25.5-0.2,51-0.2,76.6,0
				c3.7,0,4.5-1.4,4.4-4.7c-0.2-5.5-0.3-11.1,0-16.6c0.3-4.3-1.1-5.8-5.6-5.7c-13.8,0.3-27.5-0.3-41.3,0.3c-6.4,0.3-7.6-2-7.5-7.8
				c0.3-28,0-55.9,0.2-83.9c0-4.2-0.9-5.8-5.4-5.6c-6.9,0.4-13.8,0.4-20.6,0c-4.5-0.3-5.5,1.4-5.4,5.6
				C509.5,595.8,509.4,614.6,509.4,633.5z"/>
			<path class="st1" d="M603.2,198.1c21,22.2,42,44.5,63.2,66.6c41.2,43.2,82.6,86.3,123.9,129.4c1.2,1.3,2.3,2.7,3.5,4
				c-60.8,0-121.7,0-182.5,0c-9.3,0-9.3,0-9.3-9.5c0-63.5-0.1-127-0.1-190.5C602.3,198.1,602.8,198.1,603.2,198.1z"/>
			<path class="st2" d="M647.4,570c16.6,0.4,31.4,5.1,42.1,18.8c1.9,2.4,3,5.4,4.5,8.1c2.1,3.6,1,5.4-2.8,6.8
				c-6.7,2.4-13.2,5.2-19.6,8.2c-3.3,1.5-4.3,0.9-5.8-2.3c-4.6-10-10.9-13.8-20.8-13.1c-5.2,0.4-10.1,1.9-10.8,7.8
				c-0.6,5.4,3.8,7.5,8.3,8.9c8.6,2.8,17.7,3.7,26.2,7.2c20.2,8.3,27.9,20,26.7,41.5c-0.8,15.4-12.6,27.5-31.4,32.5
				c-22.4,6-45-1-57.4-17.7c-0.7-0.9-1.3-1.8-1.9-2.7c-8.4-13.5-7.3-16.8,7.4-21.1c1.3-0.4,2.6-0.6,3.8-1.1
				c6.1-2.4,10.4-3.6,13.2,5.3c3.1,10.1,15.3,14.9,25.2,12.2c5.1-1.4,9.2-3.8,9.7-9.5c0.5-5.5-3.2-8.7-7.7-10.4
				c-9.9-3.7-20.2-6.6-30-10.4c-17.7-6.9-25.8-21.2-23-39.5c1.9-12.5,14.6-24.5,29.7-28.1C637.6,570.4,642.5,569.7,647.4,570z"/>
			<path class="st2" d="M441.8,657c-7.2,12.1-13.9,23.1-20.3,34.2c-1.7,3-3.7,4.3-7.3,4.2c-9.1-0.3-18.1-0.1-27.3-0.1
				c-0.2-3.3,1.9-5.2,3.2-7.4c10.7-18.1,21.3-36.3,32.3-54.2c2.2-3.5,2.1-6-0.1-9.5c-10.5-17.1-20.8-34.4-31.7-52.7
				c11,0,21.1,0.1,31.2,0c3,0,3.4,2.4,4.5,4.2c5,8.2,10,16.5,15.5,25.6c5.4-9.1,10.5-17.3,15.2-25.8c1.8-3.1,3.8-4.2,7.3-4.1
				c9.1,0.3,18.2,0.1,28.3,0.1c-2.4,4.2-4.5,7.7-6.6,11.3c-8.2,13.9-16.4,27.9-24.8,41.6c-2.1,3.5-2.2,6.1,0,9.6
				c11.2,18.6,22.2,37.3,33.2,56c0.9,1.5,1.6,3,2.8,5.4c-10.6,0-20.2-0.1-29.9,0.1c-3.2,0-4-2.3-5.2-4.3
				C455.4,680,448.9,669,441.8,657z"/>
			<path class="st2" d="M509.4,633.5c0-18.9,0.1-37.7-0.1-56.6c0-4.2,0.9-5.9,5.4-5.6c6.9,0.4,13.8,0.4,20.6,0
				c4.5-0.3,5.5,1.3,5.4,5.6c-0.2,28,0.1,55.9-0.2,83.9c-0.1,5.8,1.1,8.1,7.5,7.8c13.7-0.5,27.5,0,41.3-0.3c4.5-0.1,5.8,1.4,5.6,5.7
				c-0.3,5.5-0.2,11.1,0,16.6c0.1,3.3-0.7,4.7-4.4,4.7c-25.5-0.1-51-0.2-76.6,0c-4.3,0-4.5-2-4.5-5.3
				C509.5,671.2,509.4,652.4,509.4,633.5z"/>
		</g>
	</g>
</g>
</svg>
