<?xml version="1.0" encoding="utf-8"?>
<!-- Generator: Adobe Illustrator 28.0.0, SVG Export Plug-In . SVG Version: 6.00 Build 0)  -->
<svg version="1.1" id="Layer_1" xmlns="http://www.w3.org/2000/svg" xmlns:xlink="http://www.w3.org/1999/xlink" x="0px" y="0px"
	 viewBox="0 0 1080 1080" style="enable-background:new 0 0 1080 1080;" xml:space="preserve">
<style type="text/css">
	.st0{fill:#FF7900;}
	.st1{fill:url(#SVGID_1_);}
	.st2{fill:url(#SVGID_00000115509366904437418090000005594681895894099862_);}
	.st3{fill:url(#SVGID_00000016756335002009689690000013890318178642688942_);}
	.st4{fill:url(#SVGID_00000047049522471452116000000014479824503425721998_);}
	.st5{fill:url(#SVGID_00000088122512385179060460000008505615702944240005_);}
	.st6{fill:url(#SVGID_00000123433950917239498050000015908707318169280955_);}
	.st7{fill:url(#SVGID_00000065772415987779447950000008707505555032078731_);}
	.st8{fill:url(#SVGID_00000087406001995899118740000002847013245772729520_);}
	.st9{fill:url(#SVGID_00000125580248931981787500000005836282181087033222_);}
	.st10{fill:url(#SVGID_00000136369579010042518020000012096367261606727597_);}
	.st11{fill:url(#SVGID_00000126307401445027805540000014590772797362219672_);}
	.st12{fill:url(#SVGID_00000017491534947549596080000012891125692837286327_);}
	.st13{fill:url(#SVGID_00000145019868601153770550000005458687734805289348_);}
	.st14{fill:url(#SVGID_00000180357477440205035130000007446707747153330057_);}
	.st15{fill:url(#SVGID_00000116956444714538091160000002201311065167231380_);}
	.st16{fill:url(#SVGID_00000111913601245841449360000001465212879761185667_);}
	.st17{fill:url(#SVGID_00000131329688521976815600000009097108087064080549_);}
	.st18{fill:url(#SVGID_00000140004213124360635150000000519072078645981877_);}
	.st19{fill:url(#SVGID_00000154422728934686837130000012158688787824587174_);}
	.st20{fill:url(#SVGID_00000142176391125798405500000016239971690899764132_);}
	.st21{fill:url(#SVGID_00000049937898089689516860000011828854801144040356_);}
	.st22{fill:url(#SVGID_00000025429852661321747100000009882389093129579907_);}
	.st23{fill:url(#SVGID_00000091725142104644670750000000747374837613072520_);}
	.st24{fill:url(#SVGID_00000160871061703378587560000017837779767682914968_);}
	.st25{fill:url(#SVGID_00000139975776411890861490000008315418877148261027_);}
</style>
<g>
	<path class="st0" d="M540,186.2c47.7,0,94,9.3,137.6,27.8c20.9,8.9,41.2,19.8,60.1,32.6c18.7,12.7,36.3,27.2,52.3,43.2
		c16,16,30.5,33.6,43.2,52.3c12.8,18.9,23.7,39.1,32.6,60.1c18.4,43.6,27.8,89.9,27.8,137.6s-9.3,94-27.8,137.6
		c-8.9,20.9-19.8,41.2-32.6,60.1c-12.7,18.7-27.2,36.3-43.2,52.3c-16,16-33.6,30.5-52.3,43.2c-18.9,12.8-39.1,23.7-60.1,32.6
		C634,884,587.7,893.4,540,893.4s-94-9.3-137.6-27.8c-20.9-8.9-41.2-19.8-60.1-32.6c-18.7-12.7-36.3-27.2-52.3-43.2
		c-16-16-30.5-33.6-43.2-52.3c-12.8-18.9-23.7-39.1-32.6-60.1c-18.4-43.6-27.8-89.9-27.8-137.6s9.3-94,27.8-137.6
		c8.9-20.9,19.8-41.2,32.6-60.1c12.7-18.7,27.2-36.3,43.2-52.3c16-16,33.6-30.5,52.3-43.2c18.9-12.8,39.1-23.7,60.1-32.6
		C445.9,195.5,492.2,186.2,540,186.2L540,186.2z M540,177c-200.4,0-362.8,162.4-362.8,362.8S339.6,902.5,540,902.5
		s362.8-162.4,362.8-362.8S740.3,177,540,177L540,177z"/>
	<g>
		<linearGradient id="SVGID_1_" gradientUnits="userSpaceOnUse" x1="539.9726" y1="144.9515" x2="539.9726" y2="941.7341">
			<stop  offset="0" style="stop-color:#040404"/>
			<stop  offset="0.5661" style="stop-color:#262623"/>
			<stop  offset="1" style="stop-color:#000000"/>
		</linearGradient>
		<path class="st1" d="M540,945.4c-54.6,0-107.6-10.7-157.5-31.8c-48.2-20.4-91.5-49.6-128.6-86.7c-37.2-37.2-66.3-80.4-86.7-128.6
			c-21.1-49.9-31.8-102.9-31.8-157.5c0-54.6,10.7-107.6,31.8-157.5c20.4-48.2,49.6-91.5,86.7-128.6c37.2-37.2,80.4-66.3,128.6-86.7
			c49.9-21.1,102.9-31.8,157.5-31.8c54.6,0,107.6,10.7,157.5,31.8c48.2,20.4,91.5,49.6,128.6,86.7c37.2,37.2,66.3,80.4,86.7,128.6
			c21.1,49.9,31.8,102.9,31.8,157.5c0,54.6-10.7,107.6-31.8,157.5c-20.4,48.2-49.6,91.5-86.7,128.6c-37.2,37.2-80.4,66.3-128.6,86.7
			C647.6,934.7,594.6,945.4,540,945.4z M540,178.8c-199.6,0-362,162.4-362,362c0,199.6,162.4,362,362,362c199.6,0,362-162.4,362-362
			C902,341.2,739.6,178.8,540,178.8z"/>
		
			<radialGradient id="SVGID_00000131360080931882512230000010168915209007632776_" cx="538.27" cy="134.8253" r="555.9445" gradientUnits="userSpaceOnUse">
			<stop  offset="0" style="stop-color:#737373"/>
			<stop  offset="1" style="stop-color:#2B2B2B"/>
		</radialGradient>
		<path style="fill:url(#SVGID_00000131360080931882512230000010168915209007632776_);" d="M135.8,540.8
			c-0.4-52.9,9.9-106,29.9-155.1c20.1-49.1,50.1-94.1,87.5-131.8c37.4-37.7,82.4-67.9,131.4-88.3c24.5-10.2,50.1-18,76.1-23.1
			c26.1-5.2,52.6-7.8,79.2-7.8c26.6,0,53.1,2.6,79.2,7.8c26.1,5.2,51.6,12.9,76.1,23.1c49.1,20.4,94,50.5,131.4,88.3
			c37.4,37.7,67.4,82.7,87.5,131.8c20.1,49.1,30.3,102.1,29.9,155.1H944c0-26.5-2.6-52.9-7.7-78.9c-5.1-26-12.8-51.4-22.9-75.8
			c-10.1-24.4-22.7-47.9-37.4-69.9c-14.7-22-31.6-42.5-50.3-61.3c-18.7-18.7-39.2-35.6-61.2-50.3c-22-14.7-45.4-27.3-69.8-37.4
			c-24.4-10.1-49.9-17.8-75.8-23c-26-5.1-52.4-7.5-78.9-7.6c-26.5,0-52.9,2.4-78.9,7.6c-26,5.1-51.4,12.8-75.8,23
			c-24.4,10.1-47.9,22.7-69.8,37.4c-22,14.7-42.5,31.6-61.2,50.3c-18.7,18.7-35.6,39.3-50.3,61.3c-14.7,22-27.2,45.4-37.4,69.9
			c-10.1,24.4-17.8,49.9-22.9,75.8c-5.1,26-7.7,52.4-7.7,78.9H135.8z"/>
		
			<radialGradient id="SVGID_00000134937473712168893440000010142339426932156338_" cx="541.4619" cy="912.1085" r="362.5599" gradientUnits="userSpaceOnUse">
			<stop  offset="0" style="stop-color:#8B8B8B"/>
			<stop  offset="1" style="stop-color:#3B3B3B"/>
		</radialGradient>
		<path style="fill:url(#SVGID_00000134937473712168893440000010142339426932156338_);" d="M902.1,541.2
			c0.5,47.3-8.7,94.8-26.7,138.7c-18.1,43.9-45,84.1-78.5,117.8c-8.4,8.4-17.2,16.4-26.4,24c-9.2,7.6-18.7,14.6-28.6,21.2
			c-19.8,13.2-40.8,24.5-62.8,33.6c-22,9.1-44.8,16.1-68.2,20.7c-23.3,4.6-47.1,7-70.9,7c-23.8,0-47.6-2.4-70.9-7
			c-23.3-4.6-46.2-11.6-68.2-20.7c-43.9-18.2-84.3-45.1-117.8-78.9c-33.6-33.7-60.5-73.9-78.5-117.8c-18-43.9-27.2-91.4-26.7-138.7
			h0.2c0,23.7,2.3,47.3,7,70.5c4.6,23.2,11.6,45.9,20.7,67.7c18.2,43.7,45.1,83.6,78.7,117c16.8,16.7,35.2,31.7,54.8,44.8
			c19.7,13.1,40.6,24.3,62.5,33.4c21.8,9,44.6,15.9,67.8,20.5c23.2,4.6,46.8,6.9,70.5,6.9c23.6,0,47.3-2.3,70.5-6.9
			c23.2-4.6,45.9-11.5,67.8-20.5c21.9-9,42.8-20.2,62.5-33.3c19.7-13.1,38.1-28.2,54.8-44.8c33.5-33.4,60.5-73.3,78.7-117
			c9.1-21.8,16-44.6,20.7-67.7c4.6-23.2,6.9-46.8,7-70.5H902.1z"/>
	</g>
	<g>
		<g>
			
				<linearGradient id="SVGID_00000126296682077793450750000001604245123446637705_" gradientUnits="userSpaceOnUse" x1="539.9725" y1="148.4095" x2="539.9725" y2="935.7888">
				<stop  offset="5.618000e-03" style="stop-color:#DC9D25"/>
				<stop  offset="0.1612" style="stop-color:#DC9E36"/>
				<stop  offset="0.2567" style="stop-color:#DC9E43"/>
				<stop  offset="0.651" style="stop-color:#996200"/>
				<stop  offset="0.9494" style="stop-color:#DC9627"/>
			</linearGradient>
			<circle style="fill:url(#SVGID_00000126296682077793450750000001604245123446637705_);" cx="540" cy="157" r="10.6"/>
			
				<linearGradient id="SVGID_00000140717094115865112780000014657966620576574090_" gradientUnits="userSpaceOnUse" x1="767.1293" y1="148.4096" x2="767.1293" y2="935.7899">
				<stop  offset="5.618000e-03" style="stop-color:#DC9D25"/>
				<stop  offset="0.1612" style="stop-color:#DC9E36"/>
				<stop  offset="0.2567" style="stop-color:#DC9E43"/>
				<stop  offset="0.651" style="stop-color:#996200"/>
				<stop  offset="0.9494" style="stop-color:#DC9627"/>
			</linearGradient>
			<path style="fill:url(#SVGID_00000140717094115865112780000014657966620576574090_);" d="M775.7,237c-3.5,4.8-10.1,5.8-14.9,2.4
				c-4.8-3.5-5.8-10.1-2.4-14.9c3.5-4.8,10.1-5.8,14.9-2.4C778.1,225.6,779.2,232.3,775.7,237z"/>
			
				<linearGradient id="SVGID_00000044164770873515427720000016197774695964368821_" gradientUnits="userSpaceOnUse" x1="907.5199" y1="148.4098" x2="907.5199" y2="935.7896">
				<stop  offset="5.618000e-03" style="stop-color:#DC9D25"/>
				<stop  offset="0.1612" style="stop-color:#DC9E36"/>
				<stop  offset="0.2567" style="stop-color:#DC9E43"/>
				<stop  offset="0.651" style="stop-color:#996200"/>
				<stop  offset="0.9494" style="stop-color:#DC9627"/>
			</linearGradient>
			<circle style="fill:url(#SVGID_00000044164770873515427720000016197774695964368821_);" cx="907.5" cy="424" r="10.6"/>
			
				<linearGradient id="SVGID_00000018954069900711258820000008562152799503056256_" gradientUnits="userSpaceOnUse" x1="907.5199" y1="148.4107" x2="907.5199" y2="935.7894">
				<stop  offset="5.618000e-03" style="stop-color:#DC9D25"/>
				<stop  offset="0.1612" style="stop-color:#DC9E36"/>
				<stop  offset="0.2567" style="stop-color:#DC9E43"/>
				<stop  offset="0.651" style="stop-color:#996200"/>
				<stop  offset="0.9494" style="stop-color:#DC9627"/>
			</linearGradient>
			<circle style="fill:url(#SVGID_00000018954069900711258820000008562152799503056256_);" cx="907.5" cy="662.9" r="10.6"/>
			
				<linearGradient id="SVGID_00000132766127910117379610000001579207783194455991_" gradientUnits="userSpaceOnUse" x1="767.1293" y1="148.4093" x2="767.1293" y2="935.7906">
				<stop  offset="5.618000e-03" style="stop-color:#DC9D25"/>
				<stop  offset="0.1612" style="stop-color:#DC9E36"/>
				<stop  offset="0.2567" style="stop-color:#DC9E43"/>
				<stop  offset="0.651" style="stop-color:#996200"/>
				<stop  offset="0.9494" style="stop-color:#DC9627"/>
			</linearGradient>
			<path style="fill:url(#SVGID_00000132766127910117379610000001579207783194455991_);" d="M758.5,862.3
				c-3.5-4.8-2.4-11.4,2.4-14.9c4.8-3.5,11.4-2.4,14.9,2.4c3.5,4.8,2.4,11.4-2.4,14.9C768.6,868.2,762,867.1,758.5,862.3z"/>
			
				<linearGradient id="SVGID_00000101085490039770950650000012242304244241789088_" gradientUnits="userSpaceOnUse" x1="539.9725" y1="148.4112" x2="539.9725" y2="935.7905">
				<stop  offset="5.618000e-03" style="stop-color:#DC9D25"/>
				<stop  offset="0.1612" style="stop-color:#DC9E36"/>
				<stop  offset="0.2567" style="stop-color:#DC9E43"/>
				<stop  offset="0.651" style="stop-color:#996200"/>
				<stop  offset="0.9494" style="stop-color:#DC9627"/>
			</linearGradient>
			<circle style="fill:url(#SVGID_00000101085490039770950650000012242304244241789088_);" cx="540" cy="929.9" r="10.6"/>
			
				<linearGradient id="SVGID_00000172408828508295152240000008711441088663357061_" gradientUnits="userSpaceOnUse" x1="312.8158" y1="148.4093" x2="312.8158" y2="935.7906">
				<stop  offset="5.618000e-03" style="stop-color:#DC9D25"/>
				<stop  offset="0.1612" style="stop-color:#DC9E36"/>
				<stop  offset="0.2567" style="stop-color:#DC9E43"/>
				<stop  offset="0.651" style="stop-color:#996200"/>
				<stop  offset="0.9494" style="stop-color:#DC9627"/>
			</linearGradient>
			<circle style="fill:url(#SVGID_00000172408828508295152240000008711441088663357061_);" cx="312.8" cy="856.1" r="10.6"/>
			
				<linearGradient id="SVGID_00000160158648804971845360000004737050035219648937_" gradientUnits="userSpaceOnUse" x1="172.4252" y1="148.4107" x2="172.4252" y2="935.7894">
				<stop  offset="5.618000e-03" style="stop-color:#DC9D25"/>
				<stop  offset="0.1612" style="stop-color:#DC9E36"/>
				<stop  offset="0.2567" style="stop-color:#DC9E43"/>
				<stop  offset="0.651" style="stop-color:#996200"/>
				<stop  offset="0.9494" style="stop-color:#DC9627"/>
			</linearGradient>
			<circle style="fill:url(#SVGID_00000160158648804971845360000004737050035219648937_);" cx="172.4" cy="662.9" r="10.6"/>
			
				<linearGradient id="SVGID_00000150093205255746584510000009780852848077835919_" gradientUnits="userSpaceOnUse" x1="172.4252" y1="148.4098" x2="172.4252" y2="935.7896">
				<stop  offset="5.618000e-03" style="stop-color:#DC9D25"/>
				<stop  offset="0.1612" style="stop-color:#DC9E36"/>
				<stop  offset="0.2567" style="stop-color:#DC9E43"/>
				<stop  offset="0.651" style="stop-color:#996200"/>
				<stop  offset="0.9494" style="stop-color:#DC9627"/>
			</linearGradient>
			<circle style="fill:url(#SVGID_00000150093205255746584510000009780852848077835919_);" cx="172.4" cy="424" r="10.6"/>
			
				<linearGradient id="SVGID_00000039129987431809546560000011946286966173350335_" gradientUnits="userSpaceOnUse" x1="312.8158" y1="148.4096" x2="312.8158" y2="935.7899">
				<stop  offset="5.618000e-03" style="stop-color:#DC9D25"/>
				<stop  offset="0.1612" style="stop-color:#DC9E36"/>
				<stop  offset="0.2567" style="stop-color:#DC9E43"/>
				<stop  offset="0.651" style="stop-color:#996200"/>
				<stop  offset="0.9494" style="stop-color:#DC9627"/>
			</linearGradient>
			<path style="fill:url(#SVGID_00000039129987431809546560000011946286966173350335_);" d="M321.4,224.5c3.5,4.8,2.4,11.4-2.4,14.9
				c-4.8,3.5-11.4,2.4-14.9-2.4c-3.5-4.8-2.4-11.4,2.4-14.9C311.3,218.7,318,219.8,321.4,224.5z"/>
			
				<linearGradient id="SVGID_00000069398549425632836650000005434177433311454395_" gradientUnits="userSpaceOnUse" x1="539.9725" y1="148.4095" x2="539.9725" y2="935.7888">
				<stop  offset="5.618000e-03" style="stop-color:#DC9D25"/>
				<stop  offset="0.1612" style="stop-color:#DC9E36"/>
				<stop  offset="0.2567" style="stop-color:#DC9E43"/>
				<stop  offset="0.651" style="stop-color:#996200"/>
				<stop  offset="0.9494" style="stop-color:#DC9627"/>
			</linearGradient>
			<circle style="fill:url(#SVGID_00000069398549425632836650000005434177433311454395_);" cx="540" cy="157" r="10.6"/>
		</g>
		<g>
			
				<radialGradient id="SVGID_00000090973039641399275440000018181617189025963423_" cx="539.9725" cy="153.3046" r="10.6469" gradientUnits="userSpaceOnUse">
				<stop  offset="0" style="stop-color:#FFFFFF"/>
				<stop  offset="0.6402" style="stop-color:#FF4D00"/>
				<stop  offset="1" style="stop-color:#C90300"/>
			</radialGradient>
			<circle style="fill:url(#SVGID_00000090973039641399275440000018181617189025963423_);" cx="540" cy="153.3" r="10.6"/>
			
				<radialGradient id="SVGID_00000031904671206934080530000005405272872227908772_" cx="767.1293" cy="227.1122" r="10.6476" gradientUnits="userSpaceOnUse">
				<stop  offset="0" style="stop-color:#FFFFFF"/>
				<stop  offset="0.6402" style="stop-color:#FFE100"/>
				<stop  offset="1" style="stop-color:#C99000"/>
			</radialGradient>
			<path style="fill:url(#SVGID_00000031904671206934080530000005405272872227908772_);" d="M775.7,233.4
				c-3.5,4.8-10.1,5.8-14.9,2.4c-4.8-3.5-5.8-10.1-2.4-14.9c3.5-4.8,10.1-5.8,14.9-2.4C778.1,222,779.2,228.6,775.7,233.4z"/>
			
				<radialGradient id="SVGID_00000139256075567254814120000007189016750483902891_" cx="907.5199" cy="420.3433" r="10.6498" gradientUnits="userSpaceOnUse">
				<stop  offset="0" style="stop-color:#FFFFFF"/>
				<stop  offset="0.6402" style="stop-color:#FFE100"/>
				<stop  offset="1" style="stop-color:#C99000"/>
			</radialGradient>
			<circle style="fill:url(#SVGID_00000139256075567254814120000007189016750483902891_);" cx="907.5" cy="420.3" r="10.6"/>
			
				<radialGradient id="SVGID_00000005244349208738423800000013360458329611729855_" cx="907.5199" cy="659.1901" r="10.6498" gradientUnits="userSpaceOnUse">
				<stop  offset="0" style="stop-color:#FFFFFF"/>
				<stop  offset="0.6402" style="stop-color:#FFE100"/>
				<stop  offset="1" style="stop-color:#C99000"/>
			</radialGradient>
			<circle style="fill:url(#SVGID_00000005244349208738423800000013360458329611729855_);" cx="907.5" cy="659.2" r="10.6"/>
			
				<radialGradient id="SVGID_00000145057773855023266420000008231356100046895550_" cx="767.1293" cy="852.4211" r="10.6476" gradientUnits="userSpaceOnUse">
				<stop  offset="0" style="stop-color:#FFFFFF"/>
				<stop  offset="0.6402" style="stop-color:#FFE100"/>
				<stop  offset="1" style="stop-color:#C99000"/>
			</radialGradient>
			<path style="fill:url(#SVGID_00000145057773855023266420000008231356100046895550_);" d="M758.5,858.7
				c-3.5-4.8-2.4-11.4,2.4-14.9c4.8-3.5,11.4-2.4,14.9,2.4c3.5,4.8,2.4,11.4-2.4,14.9C768.6,864.5,762,863.4,758.5,858.7z"/>
			
				<radialGradient id="SVGID_00000173138892268272660020000006554354870726713021_" cx="539.9725" cy="926.2289" r="10.6469" gradientUnits="userSpaceOnUse">
				<stop  offset="0" style="stop-color:#FFFFFF"/>
				<stop  offset="0.6402" style="stop-color:#FFE100"/>
				<stop  offset="1" style="stop-color:#C99000"/>
			</radialGradient>
			<circle style="fill:url(#SVGID_00000173138892268272660020000006554354870726713021_);" cx="540" cy="926.2" r="10.6"/>
			
				<radialGradient id="SVGID_00000180342081726079080690000006202960064276414117_" cx="312.8158" cy="852.4211" r="10.6476" gradientUnits="userSpaceOnUse">
				<stop  offset="0" style="stop-color:#FFFFFF"/>
				<stop  offset="0.6402" style="stop-color:#FFE100"/>
				<stop  offset="1" style="stop-color:#C99000"/>
			</radialGradient>
			<path style="fill:url(#SVGID_00000180342081726079080690000006202960064276414117_);" d="M304.2,846.2c3.5-4.8,10.1-5.8,14.9-2.4
				c4.8,3.5,5.8,10.1,2.4,14.9c-3.5,4.8-10.1,5.8-14.9,2.4C301.8,857.6,300.7,850.9,304.2,846.2z"/>
			
				<radialGradient id="SVGID_00000116232445483837732270000017495978562853934492_" cx="172.4252" cy="659.1901" r="10.6498" gradientUnits="userSpaceOnUse">
				<stop  offset="0" style="stop-color:#FFFFFF"/>
				<stop  offset="0.6402" style="stop-color:#FFE100"/>
				<stop  offset="1" style="stop-color:#C99000"/>
			</radialGradient>
			<circle style="fill:url(#SVGID_00000116232445483837732270000017495978562853934492_);" cx="172.4" cy="659.2" r="10.6"/>
			
				<radialGradient id="SVGID_00000072999449852739556870000014034822050301525678_" cx="172.4252" cy="420.3433" r="10.6498" gradientUnits="userSpaceOnUse">
				<stop  offset="0" style="stop-color:#FFFFFF"/>
				<stop  offset="0.6402" style="stop-color:#FFE100"/>
				<stop  offset="1" style="stop-color:#C99000"/>
			</radialGradient>
			<circle style="fill:url(#SVGID_00000072999449852739556870000014034822050301525678_);" cx="172.4" cy="420.3" r="10.6"/>
			
				<radialGradient id="SVGID_00000060733419177202146750000008385932091570534312_" cx="312.8158" cy="227.1122" r="10.6476" gradientUnits="userSpaceOnUse">
				<stop  offset="0" style="stop-color:#FFFFFF"/>
				<stop  offset="0.6402" style="stop-color:#FFE100"/>
				<stop  offset="1" style="stop-color:#C99000"/>
			</radialGradient>
			<path style="fill:url(#SVGID_00000060733419177202146750000008385932091570534312_);" d="M321.4,220.9c3.5,4.8,2.4,11.4-2.4,14.9
				c-4.8,3.5-11.4,2.4-14.9-2.4c-3.5-4.8-2.4-11.4,2.4-14.9C311.3,215,318,216.1,321.4,220.9z"/>
			
				<radialGradient id="SVGID_00000068645289402115577220000018208076215975961522_" cx="539.9725" cy="153.3046" r="10.6469" gradientUnits="userSpaceOnUse">
				<stop  offset="0" style="stop-color:#FFFFFF"/>
				<stop  offset="0.6402" style="stop-color:#FFE100"/>
				<stop  offset="1" style="stop-color:#C99000"/>
			</radialGradient>
			<circle style="fill:url(#SVGID_00000068645289402115577220000018208076215975961522_);" cx="540" cy="153.3" r="10.6"/>
		</g>
	</g>
</g>
</svg>
