<?xml version="1.0" encoding="utf-8"?>
<!-- Generator: Adobe Illustrator 28.0.0, SVG Export Plug-In . SVG Version: 6.00 Build 0)  -->
<svg version="1.1" id="Layer_1" xmlns="http://www.w3.org/2000/svg" xmlns:xlink="http://www.w3.org/1999/xlink" x="0px" y="0px"
	 viewBox="0 0 548.5 345.8" style="enable-background:new 0 0 548.5 345.8;" xml:space="preserve">
<style type="text/css">
	.st0{fill:#EB661B;}
	.st1{fill-rule:evenodd;clip-rule:evenodd;fill:#EB661B;}
	.st2{fill:#FFFFFF;}
</style>
<g>
	<g>
		<g>
			<path class="st0" d="M38.7,236H20v-11.5h51.1V236H52.4v50.8H38.7V236z"/>
			<path class="st0" d="M78.2,224.5h13.7v23.9h25.2v-23.9h13.7v62.3h-13.7v-26.9H91.9v26.9H78.2V224.5z"/>
			<path class="st0" d="M142.9,224.5h46.6V236h-32.9v13.4h30.2V260h-30.2v15.3h33.6v11.5h-47.3V224.5z"/>
			<path class="st0" d="M283.1,286.8h-13.6l-10.6-42.4h-0.2l-10.4,42.4h-13.9l-16.5-62.3h13.7l9.9,42.4h0.2l10.8-42.4h12.8
				l10.6,42.9h0.2l10.2-42.9h13.4L283.1,286.8z"/>
			<path class="st0" d="M306.1,224.5h13.7v23.9H345v-23.9h13.7v62.3H345v-26.9h-25.2v26.9h-13.7V224.5z"/>
			<path class="st0" d="M370.8,224.5h46.6V236h-32.9v13.4h30.2V260h-30.2v15.3h33.6v11.5h-47.3V224.5z"/>
			<path class="st0" d="M427.3,224.5H474V236H441v13.4h30.2V260H441v15.3h33.6v11.5h-47.3V224.5z"/>
			<path class="st0" d="M483.9,224.5h13.7v50.8H528v11.5h-44.1V224.5z"/>
		</g>
	</g>
	<rect x="18.9" y="26.2" class="st1" width="508.6" height="188.8"/>
	<g>
		<path class="st2" d="M67.1,146.9c0,5,0.9,9.2,2.7,12.6c1.8,3.5,4.2,6.3,7.1,8.4c3,2.1,6.4,3.7,10.4,4.8c3.9,1,8.1,1.6,12.5,1.6
			c2.9,0,6-0.2,9.3-0.7c3.3-0.5,6.4-1.4,9.3-2.8c2.9-1.4,5.3-3.3,7.3-5.7c1.9-2.4,2.9-5.5,2.9-9.2c0-4-1.3-7.3-3.8-9.7
			c-2.6-2.5-5.9-4.6-10-6.3c-4.1-1.7-8.8-3.2-14.1-4.4c-5.2-1.2-10.6-2.5-16-4c-5.5-1.4-10.9-3.1-16.2-5.1c-5.3-2-9.9-4.6-14.1-7.8
			c-4.1-3.2-7.5-7.1-10-11.8c-2.6-4.7-3.8-10.5-3.8-17.4c0-7.6,1.6-14.2,4.9-19.8c3.2-5.6,7.5-10.3,12.7-14
			c5.2-3.7,11.2-6.5,17.8-8.3c6.6-1.8,13.3-2.7,19.9-2.7c7.7,0,15.2,0.9,22.3,2.6c7.1,1.7,13.4,4.5,19,8.4
			c5.5,3.9,9.9,8.8,13.2,14.8c3.2,6,4.9,13.3,4.9,21.9h-31.5c-0.3-4.4-1.2-8.1-2.8-11c-1.6-2.9-3.7-5.2-6.3-6.8
			c-2.6-1.7-5.7-2.8-9.1-3.5c-3.5-0.7-7.1-1-11-1c-2.6,0-5.3,0.3-7.9,0.8c-2.6,0.6-5,1.5-7.1,2.9c-2.1,1.4-3.9,3.1-5.3,5.3
			c-1.4,2.1-2.1,4.7-2.1,7.8c0,2.9,0.6,5.3,1.7,7c1.1,1.8,3.3,3.4,6.5,4.9c3.2,1.5,7.7,3,13.5,4.6c5.7,1.6,13.2,3.6,22.5,5.9
			c1.8,0.4,4.1,1,7,1.8c2.9,0.8,6,1.8,9.2,3.1c3.2,1.3,6.5,3,9.7,5.1c3.2,2.1,6.2,4.6,8.9,7.7c2.7,3,4.9,6.7,6.5,10.9
			c1.7,4.2,2.5,9.1,2.5,14.6c0,6.8-1.3,13.1-3.9,18.9c-2.6,5.8-6.5,10.8-11.7,15c-5.2,4.2-11.6,7.5-19.3,9.9s-16.5,3.6-26.6,3.6
			c-8.2,0-16.1-1-23.7-3.1c-7.7-2.1-14.4-5.2-20.2-9.5c-5.8-4.3-10.5-9.7-14-16.4c-3.5-6.6-5.2-14.5-5.1-23.6H67.1z"/>
		<path class="st2" d="M179.4,48.1h66.7c9.3,0,17.1,1.3,23.6,4c6.5,2.7,11.8,6.3,15.8,10.7c4.1,4.4,7,9.5,8.9,15.2
			c1.9,5.7,2.8,11.6,2.8,17.5c0,6.1-0.9,11.9-2.8,17.6c-1.9,5.7-4.8,10.7-8.9,15.1c-4.1,4.4-9.4,8-15.8,10.7c-6.5,2.7-14.4,4-23.6,4
			h-34.2v53h-32.5V48.1z M211.9,117.7h25.3c3.7,0,7.3-0.3,10.8-0.8c3.5-0.6,6.5-1.6,9.1-3.2c2.6-1.6,4.7-3.8,6.3-6.7
			c1.6-2.9,2.4-6.7,2.4-11.4c0-4.7-0.8-8.5-2.4-11.4c-1.6-2.9-3.7-5.1-6.3-6.7c-2.6-1.6-5.7-2.7-9.1-3.2c-3.5-0.6-7-0.8-10.8-0.8
			h-25.3V117.7z"/>
		<path class="st2" d="M317.5,48.1h32.5V196h-32.5V48.1z"/>
		<path class="st2" d="M378.7,48.1H411l61.7,99.2h0.4V48.1h30.5V196h-32.5l-61.5-99h-0.4v99h-30.5V48.1z"/>
	</g>
</g>
</svg>
