<?xml version="1.0" encoding="utf-8"?>
<!-- Generator: Adobe Illustrator 28.0.0, SVG Export Plug-In . SVG Version: 6.00 Build 0)  -->
<svg version="1.1" id="Layer_1" xmlns="http://www.w3.org/2000/svg" xmlns:xlink="http://www.w3.org/1999/xlink" x="0px" y="0px"
	 viewBox="0 0 1080 1080" style="enable-background:new 0 0 1080 1080;" xml:space="preserve">
<style type="text/css">
	.st0{fill-rule:evenodd;clip-rule:evenodd;fill:#FF7900;}
	.st1{fill-rule:evenodd;clip-rule:evenodd;fill:#FFFFFF;}
</style>
<g>
	<rect y="0.3" class="st0" width="1080" height="1079.5"/>
	<path class="st1" d="M418.5,961.1c-15.5,10.4-32.2,15.4-50.3,15.4c-28.4,0-45.1-19.3-45.1-43.7c0-34.7,30.9-52.7,95.4-59.2
		c0-9,0-9,0-9c0-10.4-7.7-16.8-23.2-16.8s-28.4,5.2-37.4,16.8c-27.1-15.5-27.1-15.5-27.1-15.5c14.2-19.3,36.1-29.5,64.5-29.5
		c40,0,61.9,18,61.9,45.1v109.2c-34.8,0-34.8,0-34.8,0L418.5,961.1z M363,929c0,10.2,6.4,20.6,18.1,20.6c11.6,0,24.5-5.2,36.1-16.7
		c0-36,0-36,0-36C379.8,901.9,363,911,363,929"/>
	<path class="st1" d="M489.2,827.4c32.2-5.2,32.2-5.2,32.2-5.2c3.9,18,3.9,18,3.9,18c18-12.8,33.5-20.6,51.5-20.6
		c30.9,0,47.6,16.8,47.6,49c0,105.8,0,105.8,0,105.8c-39.9,0-39.9,0-39.9,0c0-98,0-98,0-98c0-19.3-5.2-27.1-19.3-27.1
		c-11.6,0-23.2,5.2-37.3,16.8c0,108.3,0,108.3,0,108.3c-38.6,0-38.6,0-38.6,0v-147H489.2z"/>
	<path class="st1" d="M888.4,976.5c-45.2,0-72.3-28.3-72.3-77.1c0-51.5,27.1-79.8,71-79.8s69.7,28.3,69.7,77.2c0,2.6,0,5.1,0,7.7
		c-100.6,0-100.6,0-100.6,0c0,28.4,11.5,43.8,34.8,43.8c15.4,0,25.8-6.5,34.8-20.6c29.7,16.7,29.7,16.7,29.7,16.7
		C942.5,966.3,919.3,976.5,888.4,976.5 M918,878.8c0-20.6-11.6-32.1-30.9-32.1c-18.1,0-29.7,11.5-30.9,32.1H918z"/>
	<path class="st1" d="M126.2,979.2c-39.9,0-74.7-25.7-74.7-79.8c0-55.3,34.8-79.8,74.7-79.8c38.6,0,74.7,24.5,74.7,79.8
		C200.9,953.6,164.9,979.2,126.2,979.2 M126.2,853.1c-29.6,0-34.8,27.1-34.8,46.4c0,19.3,5.1,46.4,34.8,46.4
		c29.6,0,34.8-27.1,34.8-46.4C161,880.1,155.8,853.1,126.2,853.1"/>
	<path class="st1" d="M228.1,823.5c38.5,0,38.5,0,38.5,0c0,18,0,18,0,18c6.4-10.2,24.4-21.9,41.1-21.9c1.3,0,3.8,0,5.1,1.3
		c0,37.4,0,37.4,0,37.4c-2.6,0-2.6,0-2.6,0c-16.7,0-35.9,2.6-41.1,15.4c0,100.6,0,100.6,0,100.6c-41.1,0-41.1,0-41.1,0V823.5H228.1z
		"/>
	<path class="st1" d="M722.2,942c29.5,0,32.1-30.8,32.1-51.5c0-23.2-11.5-42.5-33.4-42.5c-14.1,0-29.5,10.4-29.5,45.1
		C691.4,911.2,692.6,942,722.2,942 M792.7,822.2c0,144.3,0,144.3,0,144.3c0,24.6-2.5,67.1-74.4,67.1c-29.5,0-56.5-11.6-62.9-37.4
		c39.8-6.4,39.8-6.4,39.8-6.4c1.3,7.7,6.4,14.1,28.2,14.1c20.5,0,30.8-9.1,30.8-33.5c0-16.7,0-16.7,0-16.7c-1.3-1.3-1.3-1.3-1.3-1.3
		c-6.4,11.6-15.4,21.9-38.5,21.9c-34.7,0-62.9-24.5-62.9-74.7c0-51.5,28.2-79.9,60.3-79.9c30.8,0,41.1,14.2,43.6,21.9
		c0-1.3,0-1.3,0-1.3c3.8-18,3.8-18,3.8-18L792.7,822.2L792.7,822.2z"/>
	<path class="st1" d="M971.9,773.5h-15.2v42.4h-8.2v-42.4h-16.8V766h40.2V773.5z M1037.6,815.9h-9.2v-41.3l-16.8,41.3h-5l-15.2-41.3
		h-1.6v41.3h-7.5V766h12.9l15.2,38.5l14.1-38.5h13L1037.6,815.9L1037.6,815.9z"/>
</g>
</svg>
