<?xml version="1.0" encoding="utf-8"?>
<!-- Generator: Adobe Illustrator 28.0.0, SVG Export Plug-In . SVG Version: 6.00 Build 0)  -->
<svg version="1.1" id="Layer_1" xmlns="http://www.w3.org/2000/svg" xmlns:xlink="http://www.w3.org/1999/xlink" x="0px" y="0px"
	 viewBox="0 0 1080 1080" style="enable-background:new 0 0 1080 1080;" xml:space="preserve">
<style type="text/css">
	.st0{fill-rule:evenodd;clip-rule:evenodd;fill:#FFFFFF;}
	.st1{fill:#FF7900;}
</style>
<g>
	<g>
		<g>
			<path class="st0" d="M539.7,1029.2h0.5c270.1,0,489.1-219,489.1-489.1l0,0C1029.2,270,810.2,51,540.1,51h-0.5
				C269.6,50.9,50.6,269.9,50.6,540.1l0,0C50.6,810.2,269.6,1029.2,539.7,1029.2z"/>
			<path class="st1" d="M540.2,1044.5h-0.5c-278.1,0-504.5-226.3-504.5-504.5c0-278.1,226.3-504.5,504.5-504.5
				c278.6,0,504.9,226.3,504.9,504.5C1044.6,818.2,818.3,1044.5,540.2,1044.5z M540.2,66.3c-261.8,0-474.3,212.5-474.3,473.8
				s212.5,473.8,473.8,473.8h0.5c261.2,0,473.8-212.5,473.8-473.8S801.4,66.3,540.2,66.3z"/>
		</g>
	</g>
	<g>
		<g>
			<g>
				<path class="st1" d="M794.4,501.6L609.5,316.6c-20.8-20.8-54.5-20.6-75.3,0.3c-20.9,20.9-21.1,54.7-0.3,75.3l94.2,94.2
					l-304.6,1.2c-29.5,0.1-53.4,24-53.5,53.5c-0.1,29.5,23.7,53.2,53.1,53.1l304.6-1.2L532.8,688c-20.9,20.9-21.1,54.7-0.3,75.3
					c20.8,20.8,54.5,20.6,75.3-0.3l186.3-186.3C815,556,815.2,522.2,794.4,501.6z"/>
			</g>
		</g>
	</g>
	<g>
		<path d="M569.9,790.4c-16.5,0-33-6.3-45.6-18.8c-25.2-25.2-25-66.2,0.3-91.5l75.2-75.2l-276.8,1.1c-0.1,0-0.2,0-0.3,0
			c-17.2,0-33.4-6.7-45.5-18.8c-12.2-12.2-18.9-28.5-18.8-45.8c0.1-35.6,29.3-64.8,64.9-64.9l277-1.1l-74.7-74.7
			c-12.2-12.2-18.9-28.5-18.8-45.8c0.1-17.3,6.9-33.5,19.1-45.8c12.3-12.3,28.5-19,45.8-19.1c0.1,0,0.2,0,0.3,0
			c17.2,0,33.4,6.7,45.5,18.8l185,184.7c25.2,25.2,25,66.2-0.3,91.5L615.9,771.3C603.3,784,586.6,790.4,569.9,790.4z M655.5,581.5
			L540.9,696.2c-7.9,7.9-12.4,18.4-12.4,29.6c0,11.1,4.2,21.6,12.1,29.5c16.2,16.2,42.8,16.1,59.1-0.3L786,568.8
			c16.4-16.4,16.5-42.9,0.3-59.1L601.4,324.8c-7.8-7.8-18.3-12.1-29.3-12.1c-0.1,0-0.1,0-0.2,0c-11.2,0-21.7,4.4-29.6,12.4
			c-16.4,16.4-16.5,42.9-0.3,59.1l113.8,113.8l-332.2,1.3c-23.1,0.1-41.9,18.9-42,42c0,11.1,4.2,21.6,12.1,29.5s18.3,12,29.5,12.1
			L655.5,581.5z"/>
	</g>
</g>
</svg>
