<?xml version="1.0" encoding="utf-8"?>
<!-- Generator: Adobe Illustrator 28.0.0, SVG Export Plug-In . SVG Version: 6.00 Build 0)  -->
<svg version="1.1" id="Layer_1" xmlns="http://www.w3.org/2000/svg" xmlns:xlink="http://www.w3.org/1999/xlink" x="0px" y="0px"
	 viewBox="0 0 1080 1080" style="enable-background:new 0 0 1080 1080;" xml:space="preserve">
<style type="text/css">
	.st0{fill:#FFFFFF;}
	.st1{fill:url(#SVGID_1_);}
	.st2{fill:url(#SVGID_00000054945638068477888760000014793794921181127608_);}
	.st3{fill:url(#SVGID_00000073686932349099837120000007244220064305370298_);}
	.st4{fill:url(#SVGID_00000123427286508517243930000001800213237088015268_);}
	.st5{fill:url(#SVGID_00000152977630754480277540000006354654504600073872_);}
	.st6{fill:url(#SVGID_00000118379796278817383930000014702112506894163645_);}
	.st7{fill:url(#SVGID_00000020396697047112211360000016187309113623792799_);}
	.st8{fill:url(#SVGID_00000043431572771700068690000009729795234949951389_);}
	.st9{fill:url(#SVGID_00000013876809831823848830000002821774483244992655_);}
	.st10{fill:url(#SVGID_00000180339527832754138860000012862462333940744333_);}
	.st11{fill:url(#SVGID_00000098942450115829580580000012021874079485456311_);}
	.st12{fill:url(#SVGID_00000008146669041370998000000017337316431443945121_);}
	.st13{fill:url(#SVGID_00000044156910387254869030000005380165935613481377_);}
	.st14{fill:url(#SVGID_00000071520700463684846590000000112103369670772649_);}
	.st15{fill:url(#SVGID_00000160913272897999865390000013290294237601997185_);}
	.st16{fill:url(#SVGID_00000099642952283283679430000006288172757285303186_);}
	.st17{fill:url(#SVGID_00000060733340443985019960000009291438407431661495_);}
	.st18{fill:url(#SVGID_00000019638723680099094060000018110643589980968627_);}
	.st19{fill:url(#SVGID_00000020389475574622372660000009880414477961898129_);}
	.st20{fill:url(#SVGID_00000053506476358032241200000011891399947964737177_);}
	.st21{fill:url(#SVGID_00000013173347643509026550000016750766637785133209_);}
	.st22{fill:none;stroke:#FF7900;stroke-width:8.7123;stroke-miterlimit:10;}
	.st23{fill:#FF7900;}
</style>
<g>
	<g>
		<rect x="160.9" y="160.9" class="st0" width="758.3" height="758.3"/>
		<linearGradient id="SVGID_1_" gradientUnits="userSpaceOnUse" x1="70.6972" y1="540" x2="1009.3029" y2="540">
			<stop  offset="0" style="stop-color:#040404"/>
			<stop  offset="0.5661" style="stop-color:#262623"/>
			<stop  offset="1" style="stop-color:#000000"/>
		</linearGradient>
		<path class="st1" d="M1009.3,1009.3H70.7V70.7h938.6V1009.3z M163,917h754V163H163V917z"/>
		<g>
			
				<radialGradient id="SVGID_00000173847018424802639130000008248136640761871507_" cx="52.373" cy="1875.88" r="15.4367" gradientTransform="matrix(0 1 -1 0 1991.9264 911.9264)" gradientUnits="userSpaceOnUse">
				<stop  offset="0" style="stop-color:#FFFFFF"/>
				<stop  offset="0.6402" style="stop-color:#FFE100"/>
				<stop  offset="1" style="stop-color:#C99000"/>
			</radialGradient>
			<path style="fill:url(#SVGID_00000173847018424802639130000008248136640761871507_);" d="M107,951.8c6.9-5,16.5-3.5,21.6,3.4
				c5,6.9,3.5,16.5-3.4,21.6c-6.9,5-16.5,3.5-21.6-3.4C98.5,966.5,100.1,956.8,107,951.8z"/>
			
				<radialGradient id="SVGID_00000181077546630766649030000016227805100491058831_" cx="52.373" cy="1027.9728" r="15.4367" gradientTransform="matrix(0 1 -1 0 1991.9264 911.9264)" gradientUnits="userSpaceOnUse">
				<stop  offset="0" style="stop-color:#FFFFFF"/>
				<stop  offset="0.6402" style="stop-color:#FFE100"/>
				<stop  offset="1" style="stop-color:#C99000"/>
			</radialGradient>
			<path style="fill:url(#SVGID_00000181077546630766649030000016227805100491058831_);" d="M954.9,951.8c6.9-5,16.5-3.5,21.6,3.4
				c5,6.9,3.5,16.5-3.4,21.6c-6.9,5-16.5,3.5-21.6-3.4C946.5,966.5,948,956.8,954.9,951.8z"/>
			
				<radialGradient id="SVGID_00000123402055877399542040000014802871241324059777_" cx="52.373" cy="1239.9496" r="15.4367" gradientTransform="matrix(0 1 -1 0 1991.9264 911.9264)" gradientUnits="userSpaceOnUse">
				<stop  offset="0" style="stop-color:#FFFFFF"/>
				<stop  offset="0.6402" style="stop-color:#FFE100"/>
				<stop  offset="1" style="stop-color:#C99000"/>
			</radialGradient>
			<path style="fill:url(#SVGID_00000123402055877399542040000014802871241324059777_);" d="M742.9,951.8c6.9-5,16.5-3.5,21.6,3.4
				c5,6.9,3.5,16.5-3.4,21.6c-6.9,5-16.5,3.5-21.6-3.4C734.5,966.5,736,956.8,742.9,951.8z"/>
			
				<radialGradient id="SVGID_00000127006094940486736090000012801910593644806058_" cx="52.373" cy="1451.9264" r="15.4367" gradientTransform="matrix(0 1 -1 0 1991.9264 911.9264)" gradientUnits="userSpaceOnUse">
				<stop  offset="0" style="stop-color:#FFFFFF"/>
				<stop  offset="0.6402" style="stop-color:#FFE100"/>
				<stop  offset="1" style="stop-color:#C99000"/>
			</radialGradient>
			<path style="fill:url(#SVGID_00000127006094940486736090000012801910593644806058_);" d="M530.9,951.8c6.9-5,16.5-3.5,21.6,3.4
				c5,6.9,3.5,16.5-3.4,21.6c-6.9,5-16.5,3.5-21.6-3.4C522.5,966.5,524,956.8,530.9,951.8z"/>
			
				<radialGradient id="SVGID_00000021823217909032358900000011917138732671303569_" cx="52.373" cy="1663.9032" r="15.4367" gradientTransform="matrix(0 1 -1 0 1991.9264 911.9264)" gradientUnits="userSpaceOnUse">
				<stop  offset="0" style="stop-color:#FFFFFF"/>
				<stop  offset="0.6402" style="stop-color:#FFE100"/>
				<stop  offset="1" style="stop-color:#C99000"/>
			</radialGradient>
			<path style="fill:url(#SVGID_00000021823217909032358900000011917138732671303569_);" d="M319,951.8c6.9-5,16.5-3.5,21.6,3.4
				c5,6.9,3.5,16.5-3.4,21.6c-6.9,5-16.5,3.5-21.6-3.4C310.5,966.5,312.1,956.8,319,951.8z"/>
		</g>
		<g>
			<g>
				
					<radialGradient id="SVGID_00000117672104186220835730000013445395528239202224_" cx="-795.88" cy="1875.88" r="15.4367" gradientTransform="matrix(0 1 -1 0 1991.9264 911.9264)" gradientUnits="userSpaceOnUse">
					<stop  offset="0" style="stop-color:#FFFFFF"/>
					<stop  offset="0.6402" style="stop-color:#FFE100"/>
					<stop  offset="1" style="stop-color:#C99000"/>
				</radialGradient>
				<path style="fill:url(#SVGID_00000117672104186220835730000013445395528239202224_);" d="M107,103.6c6.9-5,16.5-3.5,21.6,3.4
					c5,6.9,3.5,16.5-3.4,21.6c-6.9,5-16.5,3.5-21.6-3.4C98.5,118.2,100.1,108.6,107,103.6z"/>
				
					<radialGradient id="SVGID_00000049189552566006604810000012753418030181948034_" cx="-795.88" cy="1027.9728" r="15.4367" gradientTransform="matrix(0 1 -1 0 1991.9264 911.9264)" gradientUnits="userSpaceOnUse">
					<stop  offset="0" style="stop-color:#FFFFFF"/>
					<stop  offset="0.6402" style="stop-color:#FFE100"/>
					<stop  offset="1" style="stop-color:#C99000"/>
				</radialGradient>
				<path style="fill:url(#SVGID_00000049189552566006604810000012753418030181948034_);" d="M954.9,103.6c6.9-5,16.5-3.5,21.6,3.4
					c5,6.9,3.5,16.5-3.4,21.6c-6.9,5-16.5,3.5-21.6-3.4C946.5,118.2,948,108.6,954.9,103.6z"/>
				
					<radialGradient id="SVGID_00000063594443446424418190000001118908363774562217_" cx="-795.88" cy="1239.9496" r="15.4367" gradientTransform="matrix(0 1 -1 0 1991.9264 911.9264)" gradientUnits="userSpaceOnUse">
					<stop  offset="0" style="stop-color:#FFFFFF"/>
					<stop  offset="0.6402" style="stop-color:#FFE100"/>
					<stop  offset="1" style="stop-color:#C99000"/>
				</radialGradient>
				<path style="fill:url(#SVGID_00000063594443446424418190000001118908363774562217_);" d="M742.9,103.6c6.9-5,16.5-3.5,21.6,3.4
					c5,6.9,3.5,16.5-3.4,21.6c-6.9,5-16.5,3.5-21.6-3.4C734.5,118.2,736,108.6,742.9,103.6z"/>
				
					<radialGradient id="SVGID_00000082356462840563143210000001098351778485309354_" cx="-795.88" cy="1451.9264" r="15.4367" gradientTransform="matrix(0 1 -1 0 1991.9264 911.9264)" gradientUnits="userSpaceOnUse">
					<stop  offset="0" style="stop-color:#FFFFFF"/>
					<stop  offset="0.6402" style="stop-color:#FFE100"/>
					<stop  offset="1" style="stop-color:#C99000"/>
				</radialGradient>
				<path style="fill:url(#SVGID_00000082356462840563143210000001098351778485309354_);" d="M530.9,103.6c6.9-5,16.5-3.5,21.6,3.4
					c5,6.9,3.5,16.5-3.4,21.6c-6.9,5-16.5,3.5-21.6-3.4C522.5,118.2,524,108.6,530.9,103.6z"/>
				
					<radialGradient id="SVGID_00000143586738954222426410000010491275139042117764_" cx="-795.88" cy="1663.9032" r="15.4367" gradientTransform="matrix(0 1 -1 0 1991.9264 911.9264)" gradientUnits="userSpaceOnUse">
					<stop  offset="0" style="stop-color:#FFFFFF"/>
					<stop  offset="0.6402" style="stop-color:#FFE100"/>
					<stop  offset="1" style="stop-color:#C99000"/>
				</radialGradient>
				<path style="fill:url(#SVGID_00000143586738954222426410000010491275139042117764_);" d="M319,103.6c6.9-5,16.5-3.5,21.6,3.4
					c5,6.9,3.5,16.5-3.4,21.6c-6.9,5-16.5,3.5-21.6-3.4C310.5,118.2,312.1,108.6,319,103.6z"/>
			</g>
			<g>
				
					<radialGradient id="SVGID_00000073693791801567425220000005858593625756572343_" cx="-4057.606" cy="162.0043" r="15.4367" gradientTransform="matrix(-1 0 0 -1 -3941.5593 278.0507)" gradientUnits="userSpaceOnUse">
					<stop  offset="0" style="stop-color:#FFFFFF"/>
					<stop  offset="0.6402" style="stop-color:#FFE100"/>
					<stop  offset="1" style="stop-color:#C99000"/>
				</radialGradient>
				<path style="fill:url(#SVGID_00000073693791801567425220000005858593625756572343_);" d="M128.5,107c5,6.9,3.5,16.5-3.4,21.6
					c-6.9,5-16.5,3.5-21.6-3.4c-5-6.9-3.5-16.5,3.4-21.6C113.9,98.5,123.5,100.1,128.5,107z"/>
				
					<radialGradient id="SVGID_00000060711667370646829540000011778369833463343760_" cx="-4057.606" cy="-685.9029" r="15.4367" gradientTransform="matrix(-1 0 0 -1 -3941.5593 278.0507)" gradientUnits="userSpaceOnUse">
					<stop  offset="0" style="stop-color:#FFFFFF"/>
					<stop  offset="0.6402" style="stop-color:#FFE100"/>
					<stop  offset="1" style="stop-color:#C99000"/>
				</radialGradient>
				<path style="fill:url(#SVGID_00000060711667370646829540000011778369833463343760_);" d="M128.5,954.9c5,6.9,3.5,16.5-3.4,21.6
					c-6.9,5-16.5,3.5-21.6-3.4c-5-6.9-3.5-16.5,3.4-21.6C113.9,946.5,123.5,948,128.5,954.9z"/>
				
					<radialGradient id="SVGID_00000171719582433020978200000015440408887998783675_" cx="-4057.606" cy="-473.9261" r="15.4367" gradientTransform="matrix(-1 0 0 -1 -3941.5593 278.0507)" gradientUnits="userSpaceOnUse">
					<stop  offset="0" style="stop-color:#FFFFFF"/>
					<stop  offset="0.6402" style="stop-color:#FFE100"/>
					<stop  offset="1" style="stop-color:#C99000"/>
				</radialGradient>
				<path style="fill:url(#SVGID_00000171719582433020978200000015440408887998783675_);" d="M128.5,742.9c5,6.9,3.5,16.5-3.4,21.6
					c-6.9,5-16.5,3.5-21.6-3.4c-5-6.9-3.5-16.5,3.4-21.6C113.9,734.5,123.5,736,128.5,742.9z"/>
				
					<radialGradient id="SVGID_00000129897056840922516670000011530743833900132536_" cx="-4057.606" cy="-261.9493" r="15.4367" gradientTransform="matrix(-1 0 0 -1 -3941.5593 278.0507)" gradientUnits="userSpaceOnUse">
					<stop  offset="0" style="stop-color:#FFFFFF"/>
					<stop  offset="0.6402" style="stop-color:#FFE100"/>
					<stop  offset="1" style="stop-color:#C99000"/>
				</radialGradient>
				<path style="fill:url(#SVGID_00000129897056840922516670000011530743833900132536_);" d="M128.5,530.9c5,6.9,3.5,16.5-3.4,21.6
					c-6.9,5-16.5,3.5-21.6-3.4c-5-6.9-3.5-16.5,3.4-21.6C113.9,522.5,123.5,524,128.5,530.9z"/>
				
					<radialGradient id="SVGID_00000042730818910700478000000003479359737203727747_" cx="-4057.606" cy="-49.9725" r="15.4367" gradientTransform="matrix(-1 0 0 -1 -3941.5593 278.0507)" gradientUnits="userSpaceOnUse">
					<stop  offset="0" style="stop-color:#FFFFFF"/>
					<stop  offset="0.6402" style="stop-color:#FFE100"/>
					<stop  offset="1" style="stop-color:#C99000"/>
				</radialGradient>
				<path style="fill:url(#SVGID_00000042730818910700478000000003479359737203727747_);" d="M128.5,319c5,6.9,3.5,16.5-3.4,21.6
					c-6.9,5-16.5,3.5-21.6-3.4c-5-6.9-3.5-16.5,3.4-21.6C113.9,310.5,123.5,312.1,128.5,319z"/>
			</g>
			<g>
				
					<radialGradient id="SVGID_00000034772677385760109590000010014332564935121078_" cx="-4905.5132" cy="162.0043" r="15.4367" gradientTransform="matrix(-1 0 0 -1 -3941.5593 278.0507)" gradientUnits="userSpaceOnUse">
					<stop  offset="0" style="stop-color:#FFFFFF"/>
					<stop  offset="0.6402" style="stop-color:#FFE100"/>
					<stop  offset="1" style="stop-color:#C99000"/>
				</radialGradient>
				<path style="fill:url(#SVGID_00000034772677385760109590000010014332564935121078_);" d="M976.4,107c5,6.9,3.5,16.5-3.4,21.6
					c-6.9,5-16.5,3.5-21.6-3.4c-5-6.9-3.5-16.5,3.4-21.6C961.8,98.5,971.4,100.1,976.4,107z"/>
				
					<radialGradient id="SVGID_00000061439772445409431980000015256876079536845234_" cx="-4905.5132" cy="-685.9029" r="15.4367" gradientTransform="matrix(-1 0 0 -1 -3941.5593 278.0507)" gradientUnits="userSpaceOnUse">
					<stop  offset="0" style="stop-color:#FFFFFF"/>
					<stop  offset="0.6402" style="stop-color:#FFE100"/>
					<stop  offset="1" style="stop-color:#C99000"/>
				</radialGradient>
				<path style="fill:url(#SVGID_00000061439772445409431980000015256876079536845234_);" d="M976.4,954.9c5,6.9,3.5,16.5-3.4,21.6
					c-6.9,5-16.5,3.5-21.6-3.4c-5-6.9-3.5-16.5,3.4-21.6C961.8,946.5,971.4,948,976.4,954.9z"/>
				
					<radialGradient id="SVGID_00000021116804903874493950000013046452323777154440_" cx="-4905.5132" cy="-473.9261" r="15.4367" gradientTransform="matrix(-1 0 0 -1 -3941.5593 278.0507)" gradientUnits="userSpaceOnUse">
					<stop  offset="0" style="stop-color:#FFFFFF"/>
					<stop  offset="0.6402" style="stop-color:#FFE100"/>
					<stop  offset="1" style="stop-color:#C99000"/>
				</radialGradient>
				<path style="fill:url(#SVGID_00000021116804903874493950000013046452323777154440_);" d="M976.4,742.9c5,6.9,3.5,16.5-3.4,21.6
					c-6.9,5-16.5,3.5-21.6-3.4c-5-6.9-3.5-16.5,3.4-21.6C961.8,734.5,971.4,736,976.4,742.9z"/>
				
					<radialGradient id="SVGID_00000025414227246616238690000003669122261923912111_" cx="-4905.5132" cy="-261.9493" r="15.4367" gradientTransform="matrix(-1 0 0 -1 -3941.5593 278.0507)" gradientUnits="userSpaceOnUse">
					<stop  offset="0" style="stop-color:#FFFFFF"/>
					<stop  offset="0.6402" style="stop-color:#FFE100"/>
					<stop  offset="1" style="stop-color:#C99000"/>
				</radialGradient>
				<path style="fill:url(#SVGID_00000025414227246616238690000003669122261923912111_);" d="M976.4,530.9c5,6.9,3.5,16.5-3.4,21.6
					c-6.9,5-16.5,3.5-21.6-3.4c-5-6.9-3.5-16.5,3.4-21.6C961.8,522.5,971.4,524,976.4,530.9z"/>
				
					<radialGradient id="SVGID_00000145025481326068049450000002570126802259205272_" cx="-4905.5132" cy="-49.9725" r="15.4367" gradientTransform="matrix(-1 0 0 -1 -3941.5593 278.0507)" gradientUnits="userSpaceOnUse">
					<stop  offset="0" style="stop-color:#FFFFFF"/>
					<stop  offset="0.6402" style="stop-color:#FFE100"/>
					<stop  offset="1" style="stop-color:#C99000"/>
				</radialGradient>
				<path style="fill:url(#SVGID_00000145025481326068049450000002570126802259205272_);" d="M976.4,319c5,6.9,3.5,16.5-3.4,21.6
					c-6.9,5-16.5,3.5-21.6-3.4c-5-6.9-3.5-16.5,3.4-21.6C961.8,310.5,971.4,312.1,976.4,319z"/>
			</g>
		</g>
		
			<rect x="163.4" y="164.7" transform="matrix(-1.836970e-16 1 -1 -1.836970e-16 1080 1.023182e-12)" class="st22" width="753.2" height="750.6"/>
	</g>
	<g>
		<path class="st23" d="M293.6,328.3l-56-92.8h37.7l35.6,60l35.3-60h37.3L327,329.1v58.3h-33.4V328.3z"/>
		<path class="st23" d="M389.6,312.1c0-11.2,1.7-21.7,5.1-31.5c3.4-9.8,8.3-18.3,14.7-25.5c6.4-7.2,14.2-12.9,23.4-17
			c9.2-4.1,19.7-6.2,31.5-6.2c11.8,0,22.3,2.1,31.5,6.2c9.2,4.1,17,9.8,23.4,17c6.4,7.2,11.3,15.8,14.7,25.5
			c3.4,9.8,5.1,20.3,5.1,31.5c0,10.9-1.7,21.2-5.1,30.9c-3.4,9.7-8.3,18-14.7,25.1c-6.4,7.1-14.2,12.7-23.4,16.8
			c-9.2,4.1-19.7,6.2-31.5,6.2c-11.8,0-22.3-2.1-31.5-6.2c-9.2-4.1-17-9.7-23.4-16.8c-6.4-7.1-11.3-15.5-14.7-25.1
			C391.3,333.3,389.6,323,389.6,312.1z M423,312.1c0,6.4,0.7,12.6,2.2,18.6c1.5,6,3.9,11.5,7.1,16.3c3.3,4.8,7.5,8.7,12.8,11.6
			c5.2,2.9,11.6,4.4,19.2,4.4c7.5,0,13.9-1.5,19.2-4.4c5.2-2.9,9.5-6.8,12.8-11.6c3.3-4.8,5.6-10.3,7.1-16.3
			c1.5-6,2.2-12.2,2.2-18.6c0-6.7-0.7-13.1-2.2-19.4c-1.5-6.2-3.9-11.8-7.1-16.7c-3.3-4.9-7.5-8.8-12.8-11.7
			c-5.3-2.9-11.6-4.4-19.2-4.4c-7.5,0-13.9,1.5-19.2,4.4c-5.3,2.9-9.5,6.8-12.8,11.7c-3.3,4.9-5.6,10.5-7.1,16.7
			C423.8,299,423,305.4,423,312.1z"/>
		<path class="st23" d="M690.9,330c0,20.6-5.7,35.9-17.2,46c-11.5,10.1-27.4,15.1-47.7,15.1c-20.6,0-36.5-5-47.8-15
			c-11.3-10-16.9-25.4-16.9-46.1v-94.5h33.4V330c0,4.1,0.4,8.2,1.1,12.1c0.7,4,2.2,7.5,4.5,10.6c2.3,3.1,5.4,5.6,9.5,7.5
			c4,1.8,9.5,2.8,16.3,2.8c11.9,0,20.2-2.7,24.7-8c4.5-5.3,6.8-13.7,6.8-25v-94.5h33.4V330z"/>
		<path class="st23" d="M399,574.1h-33.2L340,470.6h-0.4l-25.3,103.5h-33.9l-40.2-152h33.4l24.1,103.5h0.4l26.4-103.5h31.3l26,104.7
			h0.4l24.9-104.7h32.8L399,574.1z"/>
		<path class="st23" d="M448.6,498.7c0-11.2,1.7-21.7,5.1-31.5c3.4-9.8,8.3-18.3,14.7-25.5c6.4-7.2,14.2-12.9,23.4-17
			c9.2-4.1,19.7-6.2,31.5-6.2c11.8,0,22.3,2.1,31.5,6.2c9.2,4.1,17,9.8,23.4,17c6.4,7.2,11.3,15.8,14.7,25.5
			c3.4,9.8,5.1,20.3,5.1,31.5c0,10.9-1.7,21.2-5.1,30.9c-3.4,9.7-8.3,18-14.7,25.1c-6.4,7.1-14.2,12.7-23.4,16.8
			c-9.2,4.1-19.7,6.2-31.5,6.2c-11.8,0-22.3-2.1-31.5-6.2c-9.2-4.1-17-9.7-23.4-16.8c-6.4-7.1-11.3-15.5-14.7-25.1
			C450.3,519.9,448.6,509.6,448.6,498.7z M482,498.7c0,6.4,0.7,12.6,2.2,18.6c1.5,6,3.9,11.5,7.1,16.3c3.3,4.8,7.5,8.7,12.8,11.6
			c5.2,2.9,11.6,4.4,19.2,4.4c7.5,0,13.9-1.5,19.2-4.4c5.2-2.9,9.5-6.8,12.8-11.6c3.3-4.8,5.6-10.3,7.1-16.3
			c1.5-6,2.2-12.2,2.2-18.6c0-6.7-0.7-13.1-2.2-19.4c-1.5-6.2-3.9-11.8-7.1-16.7c-3.3-4.9-7.5-8.8-12.8-11.7
			c-5.3-2.9-11.6-4.4-19.2-4.4c-7.5,0-13.9,1.5-19.2,4.4c-5.3,2.9-9.5,6.8-12.8,11.7c-3.3,4.9-5.6,10.5-7.1,16.7
			C482.7,485.6,482,492,482,498.7z"/>
		<path class="st23" d="M620.8,422.1H654l63.4,102h0.4v-102h31.3v152h-33.4l-63.2-101.8h-0.4v101.8h-31.3V422.1z"/>
		<path class="st23" d="M776.9,541.3h33.4v32.8h-33.4V541.3z M809.2,462.9l-8.3,65.6h-15.1l-8.1-65.6v-31.3h31.5V462.9z"/>
	</g>
	<g>
		<path class="st23" d="M308.7,626.2l-41.3,0l-4,22.7l0.3,0.3c2.8-2.8,5.7-4.7,8.9-5.9c3.1-1.2,6.7-1.8,10.7-1.8
			c5,0,9.3,0.9,13.2,2.7c3.8,1.8,7,4.2,9.6,7.3c2.6,3.1,4.6,6.7,6,10.8c1.4,4.1,2.1,8.6,2.1,13.2c0,5.1-1,9.9-3,14.4
			c-2,4.4-4.7,8.3-8.1,11.5c-3.4,3.2-7.3,5.8-11.8,7.6c-4.5,1.8-9.2,2.7-14.3,2.6c-4.9,0-9.5-0.7-13.9-2c-4.4-1.3-8.4-3.3-11.8-6
			c-3.4-2.7-6.2-6-8.2-9.9c-2-4-3.1-8.6-3.2-13.8l20.3,0c0.5,4.5,2.2,8.1,5.2,10.9c3,2.8,6.7,4.2,11.2,4.2c2.7,0,5.1-0.5,7.2-1.6
			c2.1-1,3.9-2.5,5.4-4.3c1.5-1.8,2.7-3.9,3.5-6.2c0.8-2.3,1.2-4.7,1.2-7.2c0-2.6-0.4-5-1.1-7.3c-0.8-2.3-1.9-4.3-3.4-6
			c-1.5-1.7-3.4-3.1-5.5-4c-2.1-1-4.6-1.4-7.2-1.4c-3.6,0-6.6,0.6-8.9,1.9c-2.3,1.3-4.4,3.3-6.4,6.1l-18.3,0l9.9-55.3l55.9,0.1
			L308.7,626.2z"/>
		<path class="st23" d="M319.7,659.1c0-9.7,1-17.9,3-24.5c2-6.6,4.6-11.9,8-15.9c3.3-4,7.2-6.9,11.7-8.6c4.4-1.7,9.1-2.6,14.1-2.6
			c5,0,9.7,0.9,14.2,2.6c4.5,1.7,8.4,4.6,11.8,8.6c3.4,4,6,9.3,8,15.9c1.9,6.6,2.9,14.8,2.9,24.5c0,10-1,18.3-3,25
			c-2,6.7-4.6,12.1-8,16.1c-3.4,4.1-7.3,7-11.8,8.7c-4.5,1.7-9.2,2.6-14.2,2.6c-5,0-9.6-0.9-14.1-2.6c-4.4-1.7-8.3-4.6-11.6-8.7
			c-3.3-4.1-6-9.5-7.9-16.2C320.7,677.4,319.7,669.1,319.7,659.1z M340,659.1c0,2.9,0.1,6.3,0.3,10.4c0.2,4.1,0.8,8,1.8,11.7
			c1,3.8,2.6,7,4.8,9.7c2.2,2.7,5.3,4,9.4,4c4.1,0,7.3-1.3,9.6-4c2.3-2.7,3.9-5.9,4.9-9.6c1-3.8,1.6-7.7,1.8-11.7
			c0.2-4.1,0.3-7.5,0.3-10.4c0-1.7,0-3.8-0.1-6.2c0-2.4-0.2-4.9-0.6-7.5c-0.3-2.6-0.8-5.1-1.4-7.7c-0.6-2.5-1.5-4.8-2.8-6.8
			c-1.2-2-2.8-3.6-4.7-4.9c-1.9-1.2-4.2-1.9-7-1.9c-2.7,0-5,0.6-6.9,1.9c-1.9,1.2-3.5,2.9-4.7,4.9c-1.2,2-2.1,4.3-2.8,6.8
			c-0.7,2.5-1.1,5.1-1.4,7.6c-0.3,2.6-0.5,5.1-0.5,7.5C340,655.3,340,657.4,340,659.1z"/>
		<path class="st23" d="M399.2,659.2c0-9.7,1-17.9,3-24.5c2-6.6,4.6-11.9,8-15.9c3.3-4,7.2-6.9,11.7-8.6c4.4-1.7,9.1-2.6,14.1-2.6
			c5,0,9.7,0.9,14.2,2.6c4.5,1.7,8.4,4.6,11.8,8.6c3.4,4,6,9.3,8,15.9c1.9,6.6,2.9,14.8,2.9,24.5c0,10-1,18.3-3,25
			c-2,6.7-4.6,12.1-8,16.1c-3.4,4.1-7.3,7-11.8,8.7c-4.5,1.7-9.2,2.6-14.2,2.6c-5,0-9.6-0.9-14.1-2.6c-4.4-1.7-8.3-4.6-11.6-8.7
			c-3.3-4.1-6-9.5-7.9-16.2C400.2,677.5,399.2,669.2,399.2,659.2z M419.5,659.2c0,2.9,0.1,6.3,0.3,10.4c0.2,4.1,0.8,8,1.8,11.7
			c1,3.8,2.6,7,4.8,9.7c2.2,2.7,5.3,4,9.4,4c4.1,0,7.3-1.3,9.6-4c2.3-2.7,3.9-5.9,4.9-9.6c1-3.8,1.6-7.7,1.8-11.7
			c0.2-4.1,0.3-7.5,0.3-10.4c0-1.7,0-3.8-0.1-6.2c0-2.4-0.2-4.9-0.6-7.5c-0.3-2.6-0.8-5.1-1.4-7.7c-0.6-2.5-1.5-4.8-2.8-6.8
			c-1.2-2-2.8-3.6-4.7-4.9c-1.9-1.2-4.2-1.9-7-1.9c-2.7,0-5,0.6-6.9,1.9c-1.9,1.2-3.5,2.9-4.7,4.9c-1.2,2-2.1,4.3-2.8,6.8
			c-0.7,2.5-1.1,5.1-1.4,7.6c-0.3,2.6-0.5,5.1-0.5,7.5C419.5,655.4,419.5,657.5,419.5,659.2z"/>
		<path class="st23" d="M525.4,607.7l76.3,0.1l0,18.9l-53.9-0.1l0,21.9l49.5,0l0,17.4l-49.5,0l0,25l55,0.1l0,18.9l-77.5-0.1
			L525.4,607.7z"/>
		<path class="st23" d="M691.7,698.3c-4,5.1-8.4,8.8-13.3,10.9s-9.8,3.1-14.7,3.1c-7.9,0-15-1.4-21.2-4.2
			c-6.2-2.8-11.4-6.5-15.7-11.3c-4.3-4.8-7.6-10.4-9.8-16.9c-2.3-6.5-3.4-13.4-3.4-20.7c0-7.5,1.2-14.6,3.5-21.2
			c2.3-6.6,5.6-12.3,9.9-17.1c4.3-4.9,9.5-8.7,15.7-11.4c6.2-2.8,13.3-4.1,21.2-4.1c5.2,0,10.3,0.8,15.2,2.4
			c4.9,1.6,9.3,3.9,13.2,6.9c3.9,3.1,7.2,6.8,9.8,11.3c2.6,4.5,4.2,9.6,4.8,15.4l-21.4,0c-1.3-5.7-3.9-10-7.8-12.9
			s-8.5-4.3-13.8-4.3c-5.1,0-9.3,1-12.9,2.9c-3.5,2-6.4,4.6-8.6,7.9c-2.2,3.3-3.8,7-4.8,11.2c-1,4.2-1.5,8.5-1.5,13
			c0,4.3,0.5,8.5,1.5,12.5c1,4.1,2.6,7.7,4.8,10.9c2.2,3.2,5,5.8,8.6,7.8c3.5,2,7.8,2.9,12.9,2.9c7.3,0,13.1-1.9,17.2-5.6
			c4.1-3.8,6.5-9.2,7.2-16.4l-22.6,0l0-16.7l42.9,0l-0.1,55.2l-14.3,0L691.7,698.3z"/>
		<path class="st23" d="M726.5,607.9l46,0c6.4,0,11.8,0.9,16.3,2.8c4.5,1.9,8.1,4.3,10.9,7.4c2.8,3.1,4.9,6.6,6.1,10.5
			c1.3,4,1.9,8,1.9,12.1c0,4.2-0.7,8.2-1.9,12.2c-1.3,3.9-3.3,7.4-6.2,10.4c-2.8,3-6.5,5.5-10.9,7.4c-4.5,1.9-9.9,2.8-16.3,2.8
			l-23.6,0l0,36.6l-22.4,0L726.5,607.9z M748.9,655.9l17.4,0c2.6,0,5.1-0.2,7.4-0.6c2.4-0.4,4.5-1.1,6.3-2.2
			c1.8-1.1,3.3-2.6,4.4-4.6c1.1-2,1.6-4.6,1.7-7.9c0-3.2-0.5-5.9-1.6-7.9c-1.1-2-2.5-3.6-4.4-4.7c-1.8-1.1-3.9-1.8-6.3-2.2
			c-2.4-0.4-4.9-0.6-7.4-0.6l-17.4,0L748.9,655.9z"/>
	</g>
	<g>
		<path class="st23" d="M245.5,744.1l40,0c4.1,0,7.7,0.4,11.1,1.1c3.3,0.7,6.2,1.9,8.6,3.5c2.4,1.6,4.2,3.8,5.5,6.5
			c1.3,2.7,2,6,2,10c0,4.2-1,7.8-3,10.7c-2,2.9-4.9,5.3-8.6,7.1c5.2,1.5,9.2,4.2,11.7,7.9c2.6,3.8,3.9,8.3,3.9,13.6
			c0,4.3-0.8,8-2.5,11.1c-1.7,3.1-3.9,5.7-6.7,7.7c-2.8,2-6,3.5-9.7,4.4c-3.6,0.9-7.3,1.4-11.1,1.4l-41.2,0L245.5,744.1z
			 M264.1,814.7l20,0c1.8,0,3.6-0.2,5.2-0.5c1.7-0.4,3.1-1,4.4-1.8c1.3-0.8,2.3-2,3-3.4c0.8-1.4,1.1-3.3,1.1-5.5
			c0-4.4-1.2-7.5-3.7-9.4c-2.5-1.9-5.7-2.8-9.8-2.8l-20.4,0L264.1,814.7z M264.2,778.6l18.9,0c3.3,0,6.1-0.8,8.2-2.4
			c2.1-1.6,3.2-4.2,3.2-7.7c0-2-0.4-3.6-1.1-4.9c-0.7-1.3-1.7-2.3-2.9-3c-1.2-0.7-2.6-1.2-4.1-1.5c-1.5-0.3-3.2-0.4-4.8-0.4l-17.5,0
			L264.2,778.6z"/>
		<path class="st23" d="M329.4,744.2l63.6,0.1l0,15.7l-44.9,0l0,18.2l41.2,0l0,14.5l-41.2,0l0,20.9l45.9,0l0,15.7l-64.6-0.1
			L329.4,744.2z"/>
		<path class="st23" d="M419.3,801.1c0,2.9,0.5,5.3,1.5,7.3c1,2,2.4,3.6,4.1,4.8c1.7,1.2,3.7,2.1,6,2.7c2.3,0.6,4.7,0.9,7.2,0.9
			c1.7,0,3.5-0.1,5.4-0.4c1.9-0.3,3.7-0.8,5.4-1.6c1.7-0.8,3.1-1.9,4.2-3.3c1.1-1.4,1.7-3.2,1.7-5.3c0-2.3-0.7-4.2-2.2-5.6
			c-1.5-1.4-3.4-2.6-5.8-3.6c-2.4-1-5.1-1.8-8.1-2.5c-3-0.7-6.1-1.5-9.2-2.3c-3.2-0.8-6.3-1.8-9.3-2.9c-3-1.2-5.7-2.6-8.1-4.5
			c-2.4-1.8-4.3-4.1-5.8-6.8c-1.5-2.7-2.2-6-2.2-10c0-4.4,0.9-8.2,2.8-11.4c1.9-3.2,4.3-5.9,7.3-8c3-2.1,6.4-3.7,10.3-4.8
			c3.8-1,7.6-1.5,11.4-1.5c4.4,0,8.7,0.5,12.8,1.5c4.1,1,7.7,2.6,10.9,4.8c3.2,2.2,5.7,5.1,7.6,8.5c1.9,3.5,2.8,7.7,2.8,12.6
			l-18.1,0c-0.2-2.5-0.7-4.6-1.6-6.3c-0.9-1.7-2.1-3-3.6-3.9c-1.5-1-3.3-1.6-5.2-2c-2-0.4-4.1-0.6-6.3-0.6c-1.5,0-3,0.2-4.5,0.5
			c-1.5,0.3-2.9,0.9-4.1,1.7c-1.2,0.8-2.2,1.8-3,3c-0.8,1.2-1.2,2.7-1.2,4.5c0,1.7,0.3,3,0.9,4.1c0.6,1,1.9,2,3.8,2.8
			c1.9,0.8,4.4,1.7,7.7,2.6c3.3,0.9,7.6,2.1,12.9,3.4c1,0.2,2.4,0.6,4.1,1c1.7,0.4,3.4,1,5.3,1.8c1.9,0.8,3.7,1.7,5.6,2.9
			c1.9,1.2,3.6,2.7,5.1,4.4c1.5,1.8,2.8,3.8,3.7,6.3c1,2.4,1.4,5.2,1.4,8.4c0,3.9-0.8,7.5-2.3,10.8c-1.5,3.3-3.8,6.2-6.7,8.6
			c-3,2.4-6.7,4.3-11.1,5.7c-4.4,1.4-9.5,2.1-15.3,2.1c-4.7,0-9.2-0.6-13.6-1.8c-4.4-1.2-8.3-3-11.6-5.5c-3.3-2.5-6-5.6-8-9.4
			c-2-3.8-3-8.3-2.9-13.6L419.3,801.1z"/>
		<path class="st23" d="M502.8,760.1l-25.5,0l0-15.7l69.7,0.1l0,15.7l-25.5,0l-0.1,69.4l-18.7,0L502.8,760.1z"/>
		<path class="st23" d="M637.7,829.6l-18.6,0l-14.4-57.9h-0.2l-14.2,57.9l-18.9,0l-22.4-85.1l18.7,0l13.4,57.9h0.2l14.8-57.9l17.5,0
			l14.5,58.7l0.2,0l14-58.6l18.4,0L637.7,829.6z"/>
		<path class="st23" d="M692.5,744.6l19.2,0l31.7,85.1l-19.4,0l-6.4-19l-31.8,0l-6.7,18.9l-18.9,0L692.5,744.6z M690.7,796.8l22,0
			L702,765.6h-0.2L690.7,796.8z"/>
		<path class="st23" d="M772.9,796.6l-31.3-52l21.1,0l19.9,33.6l19.8-33.6l20.9,0l-31.6,52.4l0,32.7l-18.7,0L772.9,796.6z"/>
	</g>
</g>
</svg>
