<?xml version="1.0" encoding="utf-8"?>
<!-- Generator: Adobe Illustrator 28.0.0, SVG Export Plug-In . SVG Version: 6.00 Build 0)  -->
<svg version="1.1" id="Layer_1" xmlns="http://www.w3.org/2000/svg" xmlns:xlink="http://www.w3.org/1999/xlink" x="0px" y="0px"
	 viewBox="0 0 1080 1080" style="enable-background:new 0 0 1080 1080;" xml:space="preserve">
<style type="text/css">
	.st0{fill:#FFFFFF;}
	.st1{fill:url(#SVGID_1_);}
	.st2{fill:url(#SVGID_00000170985221176583297100000012601806448827033991_);}
	.st3{fill:url(#SVGID_00000107578006099997192650000016423012174698233500_);}
	.st4{fill:url(#SVGID_00000110449405818894633470000016483421500493398448_);}
	.st5{fill:url(#SVGID_00000036223386557400295020000012254112925718676158_);}
	.st6{fill:url(#SVGID_00000003790329228637616550000014708249129295930558_);}
	.st7{fill:url(#SVGID_00000013158435704498321500000017518887587234954165_);}
	.st8{fill:url(#SVGID_00000036251533330900923920000000566301743320321184_);}
	.st9{fill:url(#SVGID_00000086668297717667860640000011380446115135147149_);}
	.st10{fill:url(#SVGID_00000095306803132325552940000008685973953865042564_);}
	.st11{fill:url(#SVGID_00000021113612996885073950000006251811205450427315_);}
	.st12{fill:url(#SVGID_00000060027438152645624750000007701781911708976805_);}
	.st13{fill:url(#SVGID_00000047044699784398177340000016080581651025339554_);}
	.st14{fill:url(#SVGID_00000060740743089685440120000013640410764091745938_);}
	.st15{fill:url(#SVGID_00000175289275212320681660000018183387359133309600_);}
	.st16{fill:url(#SVGID_00000175285901727985637570000013470665494456787339_);}
	.st17{fill:url(#SVGID_00000144338569699177435750000015841453070629715125_);}
	.st18{fill:url(#SVGID_00000087386345860242028360000003739657513465564301_);}
	.st19{fill:url(#SVGID_00000102507272337303512380000002983806968717808027_);}
	.st20{fill:url(#SVGID_00000039853952331475453600000002313085793076284034_);}
	.st21{fill:url(#SVGID_00000110438710800290980540000013616074961118313614_);}
	.st22{fill:none;stroke:#FF7900;stroke-width:8.7123;stroke-miterlimit:10;}
	.st23{fill:#FF7900;}
</style>
<g>
	<g>
		<rect x="160.9" y="160.9" class="st0" width="758.3" height="758.3"/>
		<linearGradient id="SVGID_1_" gradientUnits="userSpaceOnUse" x1="70.6972" y1="540" x2="1009.3029" y2="540">
			<stop  offset="0" style="stop-color:#040404"/>
			<stop  offset="0.5661" style="stop-color:#262623"/>
			<stop  offset="1" style="stop-color:#000000"/>
		</linearGradient>
		<path class="st1" d="M1009.3,1009.3H70.7V70.7h938.6V1009.3z M163,917h754V163H163V917z"/>
		<g>
			
				<radialGradient id="SVGID_00000135657432781804013590000003136546901053711790_" cx="52.373" cy="1875.88" r="15.4367" gradientTransform="matrix(0 1 -1 0 1991.9264 911.9264)" gradientUnits="userSpaceOnUse">
				<stop  offset="0" style="stop-color:#FFFFFF"/>
				<stop  offset="0.6402" style="stop-color:#FFE100"/>
				<stop  offset="1" style="stop-color:#C99000"/>
			</radialGradient>
			<path style="fill:url(#SVGID_00000135657432781804013590000003136546901053711790_);" d="M107,951.8c6.9-5,16.5-3.5,21.6,3.4
				c5,6.9,3.5,16.5-3.4,21.6c-6.9,5-16.5,3.5-21.6-3.4C98.5,966.5,100.1,956.8,107,951.8z"/>
			
				<radialGradient id="SVGID_00000141418042709753177550000014180814970323913346_" cx="52.373" cy="1027.9728" r="15.4367" gradientTransform="matrix(0 1 -1 0 1991.9264 911.9264)" gradientUnits="userSpaceOnUse">
				<stop  offset="0" style="stop-color:#FFFFFF"/>
				<stop  offset="0.6402" style="stop-color:#FFE100"/>
				<stop  offset="1" style="stop-color:#C99000"/>
			</radialGradient>
			<path style="fill:url(#SVGID_00000141418042709753177550000014180814970323913346_);" d="M954.9,951.8c6.9-5,16.5-3.5,21.6,3.4
				c5,6.9,3.5,16.5-3.4,21.6c-6.9,5-16.5,3.5-21.6-3.4C946.5,966.5,948,956.8,954.9,951.8z"/>
			
				<radialGradient id="SVGID_00000059296587654070214520000007633513249800125329_" cx="52.373" cy="1239.9496" r="15.4367" gradientTransform="matrix(0 1 -1 0 1991.9264 911.9264)" gradientUnits="userSpaceOnUse">
				<stop  offset="0" style="stop-color:#FFFFFF"/>
				<stop  offset="0.6402" style="stop-color:#FFE100"/>
				<stop  offset="1" style="stop-color:#C99000"/>
			</radialGradient>
			<path style="fill:url(#SVGID_00000059296587654070214520000007633513249800125329_);" d="M742.9,951.8c6.9-5,16.5-3.5,21.6,3.4
				c5,6.9,3.5,16.5-3.4,21.6c-6.9,5-16.5,3.5-21.6-3.4C734.5,966.5,736,956.8,742.9,951.8z"/>
			
				<radialGradient id="SVGID_00000156588979291835963870000002152980508203809689_" cx="52.373" cy="1451.9264" r="15.4367" gradientTransform="matrix(0 1 -1 0 1991.9264 911.9264)" gradientUnits="userSpaceOnUse">
				<stop  offset="0" style="stop-color:#FFFFFF"/>
				<stop  offset="0.6402" style="stop-color:#FFE100"/>
				<stop  offset="1" style="stop-color:#C99000"/>
			</radialGradient>
			<path style="fill:url(#SVGID_00000156588979291835963870000002152980508203809689_);" d="M530.9,951.8c6.9-5,16.5-3.5,21.6,3.4
				c5,6.9,3.5,16.5-3.4,21.6c-6.9,5-16.5,3.5-21.6-3.4C522.5,966.5,524,956.8,530.9,951.8z"/>
			
				<radialGradient id="SVGID_00000021816073595512133320000003298680026771460226_" cx="52.373" cy="1663.9032" r="15.4367" gradientTransform="matrix(0 1 -1 0 1991.9264 911.9264)" gradientUnits="userSpaceOnUse">
				<stop  offset="0" style="stop-color:#FFFFFF"/>
				<stop  offset="0.6402" style="stop-color:#FFE100"/>
				<stop  offset="1" style="stop-color:#C99000"/>
			</radialGradient>
			<path style="fill:url(#SVGID_00000021816073595512133320000003298680026771460226_);" d="M319,951.8c6.9-5,16.5-3.5,21.6,3.4
				c5,6.9,3.5,16.5-3.4,21.6c-6.9,5-16.5,3.5-21.6-3.4C310.5,966.5,312.1,956.8,319,951.8z"/>
		</g>
		<g>
			<g>
				
					<radialGradient id="SVGID_00000089538008179429202700000010904449413238962581_" cx="-795.88" cy="1875.88" r="15.4367" gradientTransform="matrix(0 1 -1 0 1991.9264 911.9264)" gradientUnits="userSpaceOnUse">
					<stop  offset="0" style="stop-color:#FFFFFF"/>
					<stop  offset="0.6402" style="stop-color:#FFE100"/>
					<stop  offset="1" style="stop-color:#C99000"/>
				</radialGradient>
				<path style="fill:url(#SVGID_00000089538008179429202700000010904449413238962581_);" d="M107,103.6c6.9-5,16.5-3.5,21.6,3.4
					c5,6.9,3.5,16.5-3.4,21.6c-6.9,5-16.5,3.5-21.6-3.4C98.5,118.2,100.1,108.6,107,103.6z"/>
				
					<radialGradient id="SVGID_00000172418621441647107200000013548714761376889244_" cx="-795.88" cy="1027.9728" r="15.4367" gradientTransform="matrix(0 1 -1 0 1991.9264 911.9264)" gradientUnits="userSpaceOnUse">
					<stop  offset="0" style="stop-color:#FFFFFF"/>
					<stop  offset="0.6402" style="stop-color:#FFE100"/>
					<stop  offset="1" style="stop-color:#C99000"/>
				</radialGradient>
				<path style="fill:url(#SVGID_00000172418621441647107200000013548714761376889244_);" d="M954.9,103.6c6.9-5,16.5-3.5,21.6,3.4
					c5,6.9,3.5,16.5-3.4,21.6c-6.9,5-16.5,3.5-21.6-3.4C946.5,118.2,948,108.6,954.9,103.6z"/>
				
					<radialGradient id="SVGID_00000140699305507229756500000009342263483594159549_" cx="-795.88" cy="1239.9496" r="15.4367" gradientTransform="matrix(0 1 -1 0 1991.9264 911.9264)" gradientUnits="userSpaceOnUse">
					<stop  offset="0" style="stop-color:#FFFFFF"/>
					<stop  offset="0.6402" style="stop-color:#FFE100"/>
					<stop  offset="1" style="stop-color:#C99000"/>
				</radialGradient>
				<path style="fill:url(#SVGID_00000140699305507229756500000009342263483594159549_);" d="M742.9,103.6c6.9-5,16.5-3.5,21.6,3.4
					c5,6.9,3.5,16.5-3.4,21.6c-6.9,5-16.5,3.5-21.6-3.4C734.5,118.2,736,108.6,742.9,103.6z"/>
				
					<radialGradient id="SVGID_00000137851935641233149000000017821071167465773236_" cx="-795.88" cy="1451.9264" r="15.4367" gradientTransform="matrix(0 1 -1 0 1991.9264 911.9264)" gradientUnits="userSpaceOnUse">
					<stop  offset="0" style="stop-color:#FFFFFF"/>
					<stop  offset="0.6402" style="stop-color:#FFE100"/>
					<stop  offset="1" style="stop-color:#C99000"/>
				</radialGradient>
				<path style="fill:url(#SVGID_00000137851935641233149000000017821071167465773236_);" d="M530.9,103.6c6.9-5,16.5-3.5,21.6,3.4
					c5,6.9,3.5,16.5-3.4,21.6c-6.9,5-16.5,3.5-21.6-3.4C522.5,118.2,524,108.6,530.9,103.6z"/>
				
					<radialGradient id="SVGID_00000155138902289372980230000004494254572183700115_" cx="-795.88" cy="1663.9032" r="15.4367" gradientTransform="matrix(0 1 -1 0 1991.9264 911.9264)" gradientUnits="userSpaceOnUse">
					<stop  offset="0" style="stop-color:#FFFFFF"/>
					<stop  offset="0.6402" style="stop-color:#FFE100"/>
					<stop  offset="1" style="stop-color:#C99000"/>
				</radialGradient>
				<path style="fill:url(#SVGID_00000155138902289372980230000004494254572183700115_);" d="M319,103.6c6.9-5,16.5-3.5,21.6,3.4
					c5,6.9,3.5,16.5-3.4,21.6c-6.9,5-16.5,3.5-21.6-3.4C310.5,118.2,312.1,108.6,319,103.6z"/>
			</g>
			<g>
				
					<radialGradient id="SVGID_00000069380707009192702840000008319706212993792397_" cx="-4057.606" cy="162.0043" r="15.4367" gradientTransform="matrix(-1 0 0 -1 -3941.5593 278.0507)" gradientUnits="userSpaceOnUse">
					<stop  offset="0" style="stop-color:#FFFFFF"/>
					<stop  offset="0.6402" style="stop-color:#FFE100"/>
					<stop  offset="1" style="stop-color:#C99000"/>
				</radialGradient>
				<path style="fill:url(#SVGID_00000069380707009192702840000008319706212993792397_);" d="M128.5,107c5,6.9,3.5,16.5-3.4,21.6
					c-6.9,5-16.5,3.5-21.6-3.4c-5-6.9-3.5-16.5,3.4-21.6C113.9,98.5,123.5,100.1,128.5,107z"/>
				
					<radialGradient id="SVGID_00000018946365463752545290000012087990269291031699_" cx="-4057.606" cy="-685.9029" r="15.4367" gradientTransform="matrix(-1 0 0 -1 -3941.5593 278.0507)" gradientUnits="userSpaceOnUse">
					<stop  offset="0" style="stop-color:#FFFFFF"/>
					<stop  offset="0.6402" style="stop-color:#FFE100"/>
					<stop  offset="1" style="stop-color:#C99000"/>
				</radialGradient>
				<path style="fill:url(#SVGID_00000018946365463752545290000012087990269291031699_);" d="M128.5,954.9c5,6.9,3.5,16.5-3.4,21.6
					c-6.9,5-16.5,3.5-21.6-3.4c-5-6.9-3.5-16.5,3.4-21.6C113.9,946.5,123.5,948,128.5,954.9z"/>
				
					<radialGradient id="SVGID_00000076575184312670562330000009607112845673382305_" cx="-4057.606" cy="-473.9261" r="15.4367" gradientTransform="matrix(-1 0 0 -1 -3941.5593 278.0507)" gradientUnits="userSpaceOnUse">
					<stop  offset="0" style="stop-color:#FFFFFF"/>
					<stop  offset="0.6402" style="stop-color:#FFE100"/>
					<stop  offset="1" style="stop-color:#C99000"/>
				</radialGradient>
				<path style="fill:url(#SVGID_00000076575184312670562330000009607112845673382305_);" d="M128.5,742.9c5,6.9,3.5,16.5-3.4,21.6
					c-6.9,5-16.5,3.5-21.6-3.4c-5-6.9-3.5-16.5,3.4-21.6C113.9,734.5,123.5,736,128.5,742.9z"/>
				
					<radialGradient id="SVGID_00000135689100677617246660000006939321143947385520_" cx="-4057.606" cy="-261.9493" r="15.4367" gradientTransform="matrix(-1 0 0 -1 -3941.5593 278.0507)" gradientUnits="userSpaceOnUse">
					<stop  offset="0" style="stop-color:#FFFFFF"/>
					<stop  offset="0.6402" style="stop-color:#FFE100"/>
					<stop  offset="1" style="stop-color:#C99000"/>
				</radialGradient>
				<path style="fill:url(#SVGID_00000135689100677617246660000006939321143947385520_);" d="M128.5,530.9c5,6.9,3.5,16.5-3.4,21.6
					c-6.9,5-16.5,3.5-21.6-3.4c-5-6.9-3.5-16.5,3.4-21.6C113.9,522.5,123.5,524,128.5,530.9z"/>
				
					<radialGradient id="SVGID_00000039115974068996329330000007884722095660806589_" cx="-4057.606" cy="-49.9725" r="15.4367" gradientTransform="matrix(-1 0 0 -1 -3941.5593 278.0507)" gradientUnits="userSpaceOnUse">
					<stop  offset="0" style="stop-color:#FFFFFF"/>
					<stop  offset="0.6402" style="stop-color:#FFE100"/>
					<stop  offset="1" style="stop-color:#C99000"/>
				</radialGradient>
				<path style="fill:url(#SVGID_00000039115974068996329330000007884722095660806589_);" d="M128.5,319c5,6.9,3.5,16.5-3.4,21.6
					c-6.9,5-16.5,3.5-21.6-3.4c-5-6.9-3.5-16.5,3.4-21.6C113.9,310.5,123.5,312.1,128.5,319z"/>
			</g>
			<g>
				
					<radialGradient id="SVGID_00000144318380432342216210000004463289470776377770_" cx="-4905.5132" cy="162.0043" r="15.4367" gradientTransform="matrix(-1 0 0 -1 -3941.5593 278.0507)" gradientUnits="userSpaceOnUse">
					<stop  offset="0" style="stop-color:#FFFFFF"/>
					<stop  offset="0.6402" style="stop-color:#FFE100"/>
					<stop  offset="1" style="stop-color:#C99000"/>
				</radialGradient>
				<path style="fill:url(#SVGID_00000144318380432342216210000004463289470776377770_);" d="M976.4,107c5,6.9,3.5,16.5-3.4,21.6
					c-6.9,5-16.5,3.5-21.6-3.4c-5-6.9-3.5-16.5,3.4-21.6C961.8,98.5,971.4,100.1,976.4,107z"/>
				
					<radialGradient id="SVGID_00000120523110228009865630000012790114636505712557_" cx="-4905.5132" cy="-685.9029" r="15.4367" gradientTransform="matrix(-1 0 0 -1 -3941.5593 278.0507)" gradientUnits="userSpaceOnUse">
					<stop  offset="0" style="stop-color:#FFFFFF"/>
					<stop  offset="0.6402" style="stop-color:#FFE100"/>
					<stop  offset="1" style="stop-color:#C99000"/>
				</radialGradient>
				<path style="fill:url(#SVGID_00000120523110228009865630000012790114636505712557_);" d="M976.4,954.9c5,6.9,3.5,16.5-3.4,21.6
					c-6.9,5-16.5,3.5-21.6-3.4c-5-6.9-3.5-16.5,3.4-21.6C961.8,946.5,971.4,948,976.4,954.9z"/>
				
					<radialGradient id="SVGID_00000156553209078020281610000008350116189635411346_" cx="-4905.5132" cy="-473.9261" r="15.4367" gradientTransform="matrix(-1 0 0 -1 -3941.5593 278.0507)" gradientUnits="userSpaceOnUse">
					<stop  offset="0" style="stop-color:#FFFFFF"/>
					<stop  offset="0.6402" style="stop-color:#FFE100"/>
					<stop  offset="1" style="stop-color:#C99000"/>
				</radialGradient>
				<path style="fill:url(#SVGID_00000156553209078020281610000008350116189635411346_);" d="M976.4,742.9c5,6.9,3.5,16.5-3.4,21.6
					c-6.9,5-16.5,3.5-21.6-3.4c-5-6.9-3.5-16.5,3.4-21.6C961.8,734.5,971.4,736,976.4,742.9z"/>
				
					<radialGradient id="SVGID_00000100378351046309602050000016072824591523068576_" cx="-4905.5132" cy="-261.9493" r="15.4367" gradientTransform="matrix(-1 0 0 -1 -3941.5593 278.0507)" gradientUnits="userSpaceOnUse">
					<stop  offset="0" style="stop-color:#FFFFFF"/>
					<stop  offset="0.6402" style="stop-color:#FFE100"/>
					<stop  offset="1" style="stop-color:#C99000"/>
				</radialGradient>
				<path style="fill:url(#SVGID_00000100378351046309602050000016072824591523068576_);" d="M976.4,530.9c5,6.9,3.5,16.5-3.4,21.6
					c-6.9,5-16.5,3.5-21.6-3.4c-5-6.9-3.5-16.5,3.4-21.6C961.8,522.5,971.4,524,976.4,530.9z"/>
				
					<radialGradient id="SVGID_00000003799747822401066690000008214554932699833514_" cx="-4905.5132" cy="-49.9725" r="15.4367" gradientTransform="matrix(-1 0 0 -1 -3941.5593 278.0507)" gradientUnits="userSpaceOnUse">
					<stop  offset="0" style="stop-color:#FFFFFF"/>
					<stop  offset="0.6402" style="stop-color:#FFE100"/>
					<stop  offset="1" style="stop-color:#C99000"/>
				</radialGradient>
				<path style="fill:url(#SVGID_00000003799747822401066690000008214554932699833514_);" d="M976.4,319c5,6.9,3.5,16.5-3.4,21.6
					c-6.9,5-16.5,3.5-21.6-3.4c-5-6.9-3.5-16.5,3.4-21.6C961.8,310.5,971.4,312.1,976.4,319z"/>
			</g>
		</g>
		
			<rect x="163.4" y="164.7" transform="matrix(-1.836970e-16 1 -1 -1.836970e-16 1080 1.023182e-12)" class="st22" width="753.2" height="750.6"/>
	</g>
	<g>
		<path class="st23" d="M293.6,321.1l-56-92.8h37.7l35.6,60l35.3-60h37.3L327,321.9v58.3h-33.4V321.1z"/>
		<path class="st23" d="M389.6,304.9c0-11.2,1.7-21.7,5.1-31.5c3.4-9.8,8.3-18.3,14.7-25.5c6.4-7.2,14.2-12.9,23.4-17
			c9.2-4.1,19.7-6.2,31.5-6.2c11.8,0,22.3,2.1,31.5,6.2c9.2,4.1,17,9.8,23.4,17c6.4,7.2,11.3,15.8,14.7,25.5
			c3.4,9.8,5.1,20.3,5.1,31.5c0,10.9-1.7,21.2-5.1,30.9c-3.4,9.7-8.3,18-14.7,25.1c-6.4,7.1-14.2,12.7-23.4,16.8
			c-9.2,4.1-19.7,6.2-31.5,6.2c-11.8,0-22.3-2.1-31.5-6.2c-9.2-4.1-17-9.7-23.4-16.8c-6.4-7.1-11.3-15.5-14.7-25.1
			C391.3,326.1,389.6,315.8,389.6,304.9z M423,304.9c0,6.4,0.7,12.6,2.2,18.6c1.5,6,3.9,11.5,7.1,16.3c3.3,4.8,7.5,8.7,12.8,11.6
			c5.2,2.9,11.6,4.4,19.2,4.4c7.5,0,13.9-1.5,19.2-4.4c5.2-2.9,9.5-6.8,12.8-11.6c3.3-4.8,5.6-10.3,7.1-16.3
			c1.5-6,2.2-12.2,2.2-18.6c0-6.7-0.7-13.1-2.2-19.4c-1.5-6.2-3.9-11.8-7.1-16.7c-3.3-4.9-7.5-8.8-12.8-11.7
			c-5.3-2.9-11.6-4.4-19.2-4.4c-7.5,0-13.9,1.5-19.2,4.4c-5.3,2.9-9.5,6.8-12.8,11.7c-3.3,4.9-5.6,10.5-7.1,16.7
			C423.8,291.8,423,298.2,423,304.9z"/>
		<path class="st23" d="M690.9,322.8c0,20.6-5.7,35.9-17.2,46c-11.5,10.1-27.4,15.1-47.7,15.1c-20.6,0-36.5-5-47.8-15
			c-11.3-10-16.9-25.4-16.9-46.1v-94.5h33.4v94.5c0,4.1,0.4,8.2,1.1,12.1c0.7,4,2.2,7.5,4.5,10.6c2.3,3.1,5.4,5.6,9.5,7.5
			c4,1.8,9.5,2.8,16.3,2.8c11.9,0,20.2-2.7,24.7-8c4.5-5.3,6.8-13.7,6.8-25v-94.5h33.4V322.8z"/>
		<path class="st23" d="M399,566.9h-33.2L340,463.4h-0.4l-25.3,103.5h-33.9l-40.2-152h33.4l24.1,103.5h0.4l26.4-103.5h31.3l26,104.7
			h0.4l24.9-104.7h32.8L399,566.9z"/>
		<path class="st23" d="M448.6,491.5c0-11.2,1.7-21.7,5.1-31.5c3.4-9.8,8.3-18.3,14.7-25.5c6.4-7.2,14.2-12.9,23.4-17
			c9.2-4.1,19.7-6.2,31.5-6.2c11.8,0,22.3,2.1,31.5,6.2c9.2,4.1,17,9.8,23.4,17c6.4,7.2,11.3,15.8,14.7,25.5
			c3.4,9.8,5.1,20.3,5.1,31.5c0,10.9-1.7,21.2-5.1,30.9c-3.4,9.7-8.3,18-14.7,25.1c-6.4,7.1-14.2,12.7-23.4,16.8
			c-9.2,4.1-19.7,6.2-31.5,6.2c-11.8,0-22.3-2.1-31.5-6.2c-9.2-4.1-17-9.7-23.4-16.8c-6.4-7.1-11.3-15.5-14.7-25.1
			C450.3,512.7,448.6,502.4,448.6,491.5z M482,491.5c0,6.4,0.7,12.6,2.2,18.6c1.5,6,3.9,11.5,7.1,16.3c3.3,4.8,7.5,8.7,12.8,11.6
			c5.2,2.9,11.6,4.4,19.2,4.4c7.5,0,13.9-1.5,19.2-4.4c5.2-2.9,9.5-6.8,12.8-11.6c3.3-4.8,5.6-10.3,7.1-16.3
			c1.5-6,2.2-12.2,2.2-18.6c0-6.7-0.7-13.1-2.2-19.4c-1.5-6.2-3.9-11.8-7.1-16.7c-3.3-4.9-7.5-8.8-12.8-11.7
			c-5.3-2.9-11.6-4.4-19.2-4.4c-7.5,0-13.9,1.5-19.2,4.4c-5.3,2.9-9.5,6.8-12.8,11.7c-3.3,4.9-5.6,10.5-7.1,16.7
			C482.7,478.4,482,484.8,482,491.5z"/>
		<path class="st23" d="M620.8,414.9H654l63.4,102h0.4v-102h31.3v152h-33.4l-63.2-101.8h-0.4v101.8h-31.3V414.9z"/>
		<path class="st23" d="M776.9,534.1h33.4v32.8h-33.4V534.1z M809.2,455.7l-8.3,65.6h-15.1l-8.1-65.6v-31.3h31.5V455.7z"/>
	</g>
	<g>
		<path class="st23" d="M245.7,634.9l51,0.1l0,13.4l-35.1,0l0,16.8l30.4,0l0,12.4l-30.4,0l0,30l-16,0L245.7,634.9z"/>
		<path class="st23" d="M306,634.9l39.1,0c3.3,0,6.2,0.5,8.8,1.6c2.6,1.1,4.8,2.5,6.7,4.3c1.9,1.8,3.3,4,4.3,6.4
			c1,2.4,1.5,5,1.5,7.7c0,4.3-0.9,8-2.7,11.1c-1.8,3.1-4.7,5.5-8.8,7.1v0.2c2,0.5,3.6,1.4,4.9,2.5c1.3,1.1,2.3,2.5,3.1,4
			c0.8,1.6,1.4,3.2,1.8,5c0.4,1.8,0.6,3.6,0.8,5.4c0.1,1.2,0.1,2.5,0.2,4.1c0.1,1.6,0.2,3.1,0.4,4.7c0.2,1.6,0.4,3.1,0.8,4.6
			c0.4,1.5,0.9,2.7,1.7,3.8l-16,0c-0.5-1.2-0.8-2.4-1.1-3.8c-0.2-1.4-0.4-2.8-0.6-4.4c-0.2-1.5-0.3-3.1-0.4-4.7
			c-0.1-1.6-0.3-3.1-0.5-4.5c-0.5-3.8-1.7-6.6-3.4-8.3c-1.8-1.8-4.6-2.6-8.6-2.7l-16,0l0,28.3l-16,0L306,634.9z M321.9,667.8l17.5,0
			c3.6,0,6.3-0.8,8.2-2.4c1.9-1.6,2.8-4.3,2.8-7.9c0-3.5-0.9-6.1-2.8-7.7c-1.9-1.6-4.6-2.4-8.2-2.4l-17.5,0L321.9,667.8z"/>
		<path class="st23" d="M379.3,635l54.3,0.1l0,13.4l-38.3,0l0,15.5l35.2,0l0,12.4l-35.2,0l0,17.8l39.1,0l0,13.4l-55.1-0.1L379.3,635
			z"/>
		<path class="st23" d="M445.2,635.1l54.3,0.1l0,13.4l-38.3,0l0,15.5l35.2,0l0,12.4l-35.2,0l0,17.8l39.1,0l0,13.4l-55.1-0.1
			L445.2,635.1z"/>
		<path class="st23" d="M539.2,635.2l22.5,0l16.9,49.9h0.2l16.1-49.9l22.5,0l-0.1,72.5l-14.9,0l0.1-51.4l-0.2,0l-17.8,51.4l-12.3,0
			l-17.7-50.9h-0.2l-0.1,50.9l-14.9,0L539.2,635.2z"/>
		<path class="st23" d="M631.4,635.3l54.3,0.1l0,13.4l-38.3,0l0,15.5l35.2,0l0,12.4l-35.2,0l0,17.8l39.1,0l0,13.4l-55.1-0.1
			L631.4,635.3z"/>
		<path class="st23" d="M717,635.3l16.4,0l27.1,72.6l-16.6,0l-5.5-16.2l-27.1,0l-5.7,16.1l-16.2,0L717,635.3z M715.5,679.8l18.8,0
			l-9.1-26.6l-0.2,0L715.5,679.8z"/>
		<path class="st23" d="M766.8,635.4l16,0l-0.1,59.1l35.4,0l0,13.4l-51.3-0.1L766.8,635.4z"/>
	</g>
	<g>
		<path class="st23" d="M244.6,736.4l28.6,0c2.9,0,5.5,0.3,7.9,0.8s4.4,1.4,6.1,2.5c1.7,1.2,3,2.7,3.9,4.6c0.9,1.9,1.4,4.3,1.4,7.1
			c0,3-0.7,5.5-2.1,7.6c-1.4,2.1-3.5,3.8-6.1,5.1c3.7,1.1,6.5,3,8.4,5.7c1.8,2.7,2.8,5.9,2.8,9.7c0,3.1-0.6,5.7-1.8,7.9
			c-1.2,2.2-2.8,4.1-4.8,5.5c-2,1.4-4.3,2.5-6.9,3.1c-2.6,0.7-5.2,1-7.9,1l-29.4,0L244.6,736.4z M257.9,786.8l14.3,0
			c1.3,0,2.6-0.1,3.7-0.4c1.2-0.3,2.2-0.7,3.1-1.3c0.9-0.6,1.6-1.4,2.2-2.4c0.5-1,0.8-2.3,0.8-3.9c0-3.1-0.9-5.3-2.6-6.7
			c-1.8-1.3-4.1-2-7-2l-14.5,0L257.9,786.8z M257.9,761l13.5,0c2.4,0,4.3-0.6,5.9-1.7s2.3-3,2.3-5.5c0-1.4-0.3-2.6-0.8-3.5
			c-0.5-0.9-1.2-1.6-2-2.1c-0.8-0.5-1.8-0.9-2.9-1.1c-1.1-0.2-2.3-0.3-3.4-0.3l-12.5,0L257.9,761z"/>
		<path class="st23" d="M304.4,736.5l45.4,0l0,11.2l-32,0l0,13l29.4,0l0,10.4l-29.4,0l0,14.9l32.7,0l0,11.2l-46.1,0L304.4,736.5z"/>
		<path class="st23" d="M372.9,747.8l-18.2,0l0-11.2l49.7,0l0,11.2l-18.2,0l0,49.5l-13.3,0L372.9,747.8z"/>
		<path class="st23" d="M424.9,747.8l-18.2,0l0-11.2l49.7,0.1l0,11.2l-18.2,0l0,49.5l-13.3,0L424.9,747.8z"/>
		<path class="st23" d="M463.4,736.7l45.4,0l0,11.2l-32,0l0,13l29.4,0l0,10.4l-29.4,0l0,14.9l32.7,0l0,11.2l-46.1,0L463.4,736.7z"/>
		<path class="st23" d="M518.5,736.7l32.7,0c2.7,0,5.2,0.4,7.4,1.3c2.2,0.9,4,2.1,5.6,3.6c1.6,1.5,2.7,3.3,3.6,5.4
			c0.8,2,1.2,4.2,1.2,6.5c0,3.6-0.8,6.7-2.3,9.3c-1.5,2.6-4,4.6-7.4,5.9l0,0.2c1.6,0.5,3,1.2,4.1,2.1s2,2.1,2.6,3.4
			c0.7,1.3,1.2,2.7,1.5,4.2c0.3,1.5,0.5,3,0.6,4.5c0.1,1,0.1,2.1,0.2,3.4c0.1,1.3,0.2,2.6,0.3,4c0.1,1.3,0.4,2.6,0.7,3.9
			c0.3,1.2,0.8,2.3,1.4,3.1l-13.3,0c-0.4-1-0.7-2-0.9-3.2c-0.2-1.2-0.4-2.4-0.5-3.7c-0.1-1.3-0.3-2.6-0.3-3.9
			c-0.1-1.3-0.2-2.6-0.4-3.8c-0.5-3.2-1.4-5.5-2.9-7c-1.5-1.5-3.9-2.2-7.2-2.2l-13.3,0l0,23.7l-13.3,0L518.5,736.7z M531.8,764.2
			l14.6,0c3,0,5.3-0.7,6.8-2c1.6-1.4,2.3-3.6,2.3-6.6c0-2.9-0.8-5.1-2.3-6.4c-1.6-1.3-3.8-2-6.8-2l-14.6,0L531.8,764.2z"/>
		<path class="st23" d="M579.9,736.8l28.6,0c2.9,0,5.5,0.3,7.9,0.8c2.4,0.5,4.4,1.4,6.1,2.5c1.7,1.2,3,2.7,3.9,4.6
			c0.9,1.9,1.4,4.3,1.4,7.1c0,3-0.7,5.5-2.1,7.6c-1.4,2.1-3.5,3.8-6.1,5.1c3.7,1.1,6.5,3,8.4,5.7c1.8,2.7,2.8,5.9,2.8,9.7
			c0,3.1-0.6,5.7-1.8,7.9c-1.2,2.2-2.8,4.1-4.8,5.5c-2,1.4-4.3,2.5-6.9,3.1c-2.6,0.7-5.2,1-7.9,1l-29.4,0L579.9,736.8z M593.2,787.1
			l14.3,0c1.3,0,2.6-0.1,3.7-0.4c1.2-0.3,2.2-0.7,3.1-1.3c0.9-0.6,1.6-1.4,2.2-2.4c0.5-1,0.8-2.3,0.8-3.9c0-3.1-0.9-5.3-2.6-6.7
			c-1.8-1.3-4.1-2-7-2l-14.5,0L593.2,787.1z M593.2,761.4l13.5,0c2.4,0,4.3-0.6,5.9-1.7c1.5-1.1,2.3-3,2.3-5.5
			c0-1.4-0.3-2.6-0.8-3.5c-0.5-0.9-1.2-1.6-2-2.1c-0.8-0.5-1.8-0.9-2.9-1.1c-1.1-0.2-2.3-0.3-3.4-0.3l-12.5,0L593.2,761.4z"/>
		<path class="st23" d="M691.2,774.6c0,8.2-2.3,14.3-6.9,18.4c-4.6,4-10.9,6-19,6c-8.2,0-14.6-2-19.1-6c-4.5-4-6.7-10.1-6.7-18.4
			l0-37.7l13.3,0l0,37.7c0,1.6,0.1,3.3,0.4,4.8c0.3,1.6,0.9,3,1.8,4.3c0.9,1.2,2.2,2.2,3.8,3c1.6,0.7,3.8,1.1,6.5,1.1
			c4.8,0,8-1.1,9.9-3.2c1.8-2.1,2.7-5.5,2.7-10l0-37.7l13.3,0L691.2,774.6z"/>
		<path class="st23" d="M702.7,736.9l13.3,0l25.3,40.7l0.2,0l0-40.7l12.5,0l-0.1,60.7l-13.3,0L715.4,757l-0.2,0l0,40.6l-12.5,0
			L702.7,736.9z"/>
		<path class="st23" d="M774.8,777.5c0,2,0.4,3.8,1.1,5.2c0.7,1.4,1.7,2.6,2.9,3.4c1.2,0.9,2.6,1.5,4.2,2c1.6,0.4,3.3,0.6,5.1,0.6
			c1.2,0,2.5-0.1,3.8-0.3s2.6-0.6,3.8-1.1c1.2-0.6,2.2-1.3,3-2.3c0.8-1,1.2-2.3,1.2-3.8c0-1.6-0.5-3-1.6-4c-1-1-2.4-1.9-4.1-2.6
			c-1.7-0.7-3.6-1.3-5.8-1.8c-2.2-0.5-4.3-1-6.5-1.7c-2.3-0.6-4.5-1.3-6.6-2.1c-2.2-0.8-4.1-1.9-5.8-3.2c-1.7-1.3-3.1-2.9-4.1-4.9
			c-1-1.9-1.6-4.3-1.6-7.1c0-3.1,0.7-5.8,2-8.1c1.3-2.3,3.1-4.2,5.2-5.7s4.6-2.7,7.3-3.4c2.7-0.7,5.4-1.1,8.2-1.1
			c3.2,0,6.2,0.4,9.1,1.1c2.9,0.7,5.5,1.9,7.8,3.5c2.3,1.6,4.1,3.6,5.4,6.1s2,5.5,2,9l-12.9,0c-0.1-1.8-0.5-3.3-1.1-4.5
			c-0.7-1.2-1.5-2.1-2.6-2.8c-1.1-0.7-2.3-1.2-3.7-1.4c-1.4-0.3-2.9-0.4-4.5-0.4c-1.1,0-2.2,0.1-3.2,0.3c-1.1,0.2-2.1,0.6-2.9,1.2
			c-0.9,0.6-1.6,1.3-2.2,2.2c-0.6,0.9-0.9,1.9-0.9,3.2c0,1.2,0.2,2.2,0.7,2.9c0.5,0.7,1.3,1.4,2.7,2c1.3,0.6,3.2,1.2,5.5,1.9
			c2.4,0.7,5.4,1.5,9.2,2.4c0.7,0.2,1.7,0.4,2.9,0.7c1.2,0.3,2.5,0.7,3.8,1.3c1.3,0.5,2.7,1.2,4,2.1c1.3,0.9,2.5,1.9,3.7,3.1
			c1.1,1.2,2,2.7,2.7,4.5c0.7,1.7,1,3.7,1,6c0,2.8-0.5,5.4-1.6,7.7c-1.1,2.4-2.7,4.4-4.8,6.2c-2.1,1.7-4.8,3.1-7.9,4.1
			s-6.8,1.5-10.9,1.5c-3.3,0-6.6-0.4-9.7-1.3c-3.1-0.9-5.9-2.2-8.3-3.9c-2.4-1.8-4.3-4-5.7-6.7s-2.1-6-2.1-9.7L774.8,777.5z"/>
	</g>
</g>
</svg>
