<?xml version="1.0" encoding="utf-8"?>
<!-- Generator: Adobe Illustrator 28.0.0, SVG Export Plug-In . SVG Version: 6.00 Build 0)  -->
<svg version="1.1" id="Layer_1" xmlns="http://www.w3.org/2000/svg" xmlns:xlink="http://www.w3.org/1999/xlink" x="0px" y="0px"
	 viewBox="0 0 1080 1080" style="enable-background:new 0 0 1080 1080;" xml:space="preserve">
<style type="text/css">
	.st0{fill:#FFFFFF;}
	.st1{fill:url(#SVGID_1_);}
	.st2{fill:url(#SVGID_00000125561389594497232280000004769774398892230291_);}
	.st3{fill:url(#SVGID_00000020356419966273567040000001458923846377899177_);}
	.st4{fill:url(#SVGID_00000080927729282772280260000014793076438122845109_);}
	.st5{fill:url(#SVGID_00000123422345596570228030000015493970597287116446_);}
	.st6{fill:url(#SVGID_00000179640195305887892130000010227711476419137722_);}
	.st7{fill:url(#SVGID_00000111876217999502103630000013717001084557981848_);}
	.st8{fill:url(#SVGID_00000005244286322080094690000004533309880789442724_);}
	.st9{fill:url(#SVGID_00000145022263775914323160000000989139213528232360_);}
	.st10{fill:url(#SVGID_00000062872698600382346840000010464225251155520683_);}
	.st11{fill:url(#SVGID_00000047029037057628262500000007361239428437916545_);}
	.st12{fill:url(#SVGID_00000129182837348169954400000003665686610381264790_);}
	.st13{fill:url(#SVGID_00000179620640471786955870000016416888941724265907_);}
	.st14{fill:url(#SVGID_00000103259355088486968390000015950107718099398580_);}
	.st15{fill:url(#SVGID_00000096058099534833294560000008430220534650807729_);}
	.st16{fill:url(#SVGID_00000016797175339138437320000001727679813359794835_);}
	.st17{fill:url(#SVGID_00000153695140716225996580000011052930899926967479_);}
	.st18{fill:url(#SVGID_00000020356581541026633660000004637557975425774517_);}
	.st19{fill:url(#SVGID_00000173128324024183884030000004285182931292027062_);}
	.st20{fill:url(#SVGID_00000009574632334656648420000014606961434581771672_);}
	.st21{fill:url(#SVGID_00000103951292490702884580000007548467950865922703_);}
	.st22{fill:none;stroke:#FF7900;stroke-width:7.2602;stroke-miterlimit:10;}
	.st23{fill:#FF7900;}
</style>
<g>
	<g>
		<rect x="224.1" y="224.1" class="st0" width="631.9" height="631.9"/>
		<linearGradient id="SVGID_1_" gradientUnits="userSpaceOnUse" x1="148.9143" y1="540" x2="931.0857" y2="540">
			<stop  offset="0" style="stop-color:#040404"/>
			<stop  offset="0.5661" style="stop-color:#262623"/>
			<stop  offset="1" style="stop-color:#000000"/>
		</linearGradient>
		<path class="st1" d="M931.1,931.1H148.9V148.9h782.2V931.1z M225.9,854.1h628.3V225.9H225.9V854.1z"/>
		<g>
			
				<radialGradient id="SVGID_00000088132883451893197080000001305521590972031907_" cx="-18.3436" cy="1805.2211" r="12.8639" gradientTransform="matrix(0 1 -1 0 1991.9264 911.9264)" gradientUnits="userSpaceOnUse">
				<stop  offset="0" style="stop-color:#FFFFFF"/>
				<stop  offset="0.6402" style="stop-color:#FFE100"/>
				<stop  offset="1" style="stop-color:#C99000"/>
			</radialGradient>
			<path style="fill:url(#SVGID_00000088132883451893197080000001305521590972031907_);" d="M179.1,883.2c5.7-4.2,13.8-2.9,18,2.8
				c4.2,5.7,2.9,13.8-2.8,18c-5.7,4.2-13.8,2.9-18-2.8C172.1,895.4,173.4,887.4,179.1,883.2z"/>
			
				<radialGradient id="SVGID_00000036246031978293065900000007120404712239214266_" cx="-18.3436" cy="1098.6317" r="12.8639" gradientTransform="matrix(0 1 -1 0 1991.9264 911.9264)" gradientUnits="userSpaceOnUse">
				<stop  offset="0" style="stop-color:#FFFFFF"/>
				<stop  offset="0.6402" style="stop-color:#FFE100"/>
				<stop  offset="1" style="stop-color:#C99000"/>
			</radialGradient>
			<path style="fill:url(#SVGID_00000036246031978293065900000007120404712239214266_);" d="M885.7,883.2c5.7-4.2,13.8-2.9,18,2.8
				c4.2,5.7,2.9,13.8-2.8,18c-5.7,4.2-13.8,2.9-18-2.8C878.7,895.4,880,887.4,885.7,883.2z"/>
			
				<radialGradient id="SVGID_00000176737256227304434680000008481251105863002790_" cx="-18.3436" cy="1275.2791" r="12.8639" gradientTransform="matrix(0 1 -1 0 1991.9264 911.9264)" gradientUnits="userSpaceOnUse">
				<stop  offset="0" style="stop-color:#FFFFFF"/>
				<stop  offset="0.6402" style="stop-color:#FFE100"/>
				<stop  offset="1" style="stop-color:#C99000"/>
			</radialGradient>
			<path style="fill:url(#SVGID_00000176737256227304434680000008481251105863002790_);" d="M709.1,883.2c5.7-4.2,13.8-2.9,18,2.8
				c4.2,5.7,2.9,13.8-2.8,18c-5.7,4.2-13.8,2.9-18-2.8C702.1,895.4,703.3,887.4,709.1,883.2z"/>
			
				<radialGradient id="SVGID_00000124879354786582864630000015174839184628835989_" cx="-18.3436" cy="1451.9264" r="12.8639" gradientTransform="matrix(0 1 -1 0 1991.9264 911.9264)" gradientUnits="userSpaceOnUse">
				<stop  offset="0" style="stop-color:#FFFFFF"/>
				<stop  offset="0.6402" style="stop-color:#FFE100"/>
				<stop  offset="1" style="stop-color:#C99000"/>
			</radialGradient>
			<path style="fill:url(#SVGID_00000124879354786582864630000015174839184628835989_);" d="M532.4,883.2c5.7-4.2,13.8-2.9,18,2.8
				c4.2,5.7,2.9,13.8-2.8,18c-5.7,4.2-13.8,2.9-18-2.8C525.4,895.4,526.7,887.4,532.4,883.2z"/>
			
				<radialGradient id="SVGID_00000045613872593392822320000002586548533223242148_" cx="-18.3436" cy="1628.5737" r="12.8639" gradientTransform="matrix(0 1 -1 0 1991.9264 911.9264)" gradientUnits="userSpaceOnUse">
				<stop  offset="0" style="stop-color:#FFFFFF"/>
				<stop  offset="0.6402" style="stop-color:#FFE100"/>
				<stop  offset="1" style="stop-color:#C99000"/>
			</radialGradient>
			<path style="fill:url(#SVGID_00000045613872593392822320000002586548533223242148_);" d="M355.8,883.2c5.7-4.2,13.8-2.9,18,2.8
				c4.2,5.7,2.9,13.8-2.8,18c-5.7,4.2-13.8,2.9-18-2.8C348.8,895.4,350,887.4,355.8,883.2z"/>
		</g>
		<g>
			<g>
				
					<radialGradient id="SVGID_00000060723446948914495290000006945536218182175406_" cx="-725.2211" cy="1805.2211" r="12.8639" gradientTransform="matrix(0 1 -1 0 1991.9264 911.9264)" gradientUnits="userSpaceOnUse">
					<stop  offset="0" style="stop-color:#FFFFFF"/>
					<stop  offset="0.6402" style="stop-color:#FFE100"/>
					<stop  offset="1" style="stop-color:#C99000"/>
				</radialGradient>
				<path style="fill:url(#SVGID_00000060723446948914495290000006945536218182175406_);" d="M179.1,176.3c5.7-4.2,13.8-2.9,18,2.8
					c4.2,5.7,2.9,13.8-2.8,18c-5.7,4.2-13.8,2.9-18-2.8C172.1,188.5,173.4,180.5,179.1,176.3z"/>
				
					<radialGradient id="SVGID_00000178164026694008188890000002712916085051777974_" cx="-725.2211" cy="1098.6317" r="12.8639" gradientTransform="matrix(0 1 -1 0 1991.9264 911.9264)" gradientUnits="userSpaceOnUse">
					<stop  offset="0" style="stop-color:#FFFFFF"/>
					<stop  offset="0.6402" style="stop-color:#FFE100"/>
					<stop  offset="1" style="stop-color:#C99000"/>
				</radialGradient>
				<path style="fill:url(#SVGID_00000178164026694008188890000002712916085051777974_);" d="M885.7,176.3c5.7-4.2,13.8-2.9,18,2.8
					c4.2,5.7,2.9,13.8-2.8,18c-5.7,4.2-13.8,2.9-18-2.8C878.7,188.5,880,180.5,885.7,176.3z"/>
				
					<radialGradient id="SVGID_00000057866064619058980840000003745851081432762298_" cx="-725.2211" cy="1275.2791" r="12.8639" gradientTransform="matrix(0 1 -1 0 1991.9264 911.9264)" gradientUnits="userSpaceOnUse">
					<stop  offset="0" style="stop-color:#FFFFFF"/>
					<stop  offset="0.6402" style="stop-color:#FFE100"/>
					<stop  offset="1" style="stop-color:#C99000"/>
				</radialGradient>
				<path style="fill:url(#SVGID_00000057866064619058980840000003745851081432762298_);" d="M709.1,176.3c5.7-4.2,13.8-2.9,18,2.8
					c4.2,5.7,2.9,13.8-2.8,18c-5.7,4.2-13.8,2.9-18-2.8C702.1,188.5,703.3,180.5,709.1,176.3z"/>
				
					<radialGradient id="SVGID_00000132084212666315500960000008241154962739113381_" cx="-725.2211" cy="1451.9264" r="12.8639" gradientTransform="matrix(0 1 -1 0 1991.9264 911.9264)" gradientUnits="userSpaceOnUse">
					<stop  offset="0" style="stop-color:#FFFFFF"/>
					<stop  offset="0.6402" style="stop-color:#FFE100"/>
					<stop  offset="1" style="stop-color:#C99000"/>
				</radialGradient>
				<path style="fill:url(#SVGID_00000132084212666315500960000008241154962739113381_);" d="M532.4,176.3c5.7-4.2,13.8-2.9,18,2.8
					c4.2,5.7,2.9,13.8-2.8,18c-5.7,4.2-13.8,2.9-18-2.8C525.4,188.5,526.7,180.5,532.4,176.3z"/>
				
					<radialGradient id="SVGID_00000034794079311544163780000012062857712657969549_" cx="-725.2211" cy="1628.5737" r="12.8639" gradientTransform="matrix(0 1 -1 0 1991.9264 911.9264)" gradientUnits="userSpaceOnUse">
					<stop  offset="0" style="stop-color:#FFFFFF"/>
					<stop  offset="0.6402" style="stop-color:#FFE100"/>
					<stop  offset="1" style="stop-color:#C99000"/>
				</radialGradient>
				<path style="fill:url(#SVGID_00000034794079311544163780000012062857712657969549_);" d="M355.8,176.3c5.7-4.2,13.8-2.9,18,2.8
					c4.2,5.7,2.9,13.8-2.8,18c-5.7,4.2-13.8,2.9-18-2.8C348.8,188.5,350,180.5,355.8,176.3z"/>
			</g>
			<g>
				
					<radialGradient id="SVGID_00000104694301705814464140000007635486280201856163_" cx="-4128.2646" cy="91.3453" r="12.8639" gradientTransform="matrix(-1 0 0 -1 -3941.5593 278.0507)" gradientUnits="userSpaceOnUse">
					<stop  offset="0" style="stop-color:#FFFFFF"/>
					<stop  offset="0.6402" style="stop-color:#FFE100"/>
					<stop  offset="1" style="stop-color:#C99000"/>
				</radialGradient>
				<path style="fill:url(#SVGID_00000104694301705814464140000007635486280201856163_);" d="M197.1,179.1c4.2,5.7,2.9,13.8-2.8,18
					c-5.7,4.2-13.8,2.9-18-2.8c-4.2-5.7-2.9-13.8,2.8-18C184.9,172.1,192.9,173.4,197.1,179.1z"/>
				
					<radialGradient id="SVGID_00000174565382467796147890000008568593042461674408_" cx="-4128.2646" cy="-615.244" r="12.8639" gradientTransform="matrix(-1 0 0 -1 -3941.5593 278.0507)" gradientUnits="userSpaceOnUse">
					<stop  offset="0" style="stop-color:#FFFFFF"/>
					<stop  offset="0.6402" style="stop-color:#FFE100"/>
					<stop  offset="1" style="stop-color:#C99000"/>
				</radialGradient>
				<path style="fill:url(#SVGID_00000174565382467796147890000008568593042461674408_);" d="M197.1,885.7c4.2,5.7,2.9,13.8-2.8,18
					c-5.7,4.2-13.8,2.9-18-2.8c-4.2-5.7-2.9-13.8,2.8-18C184.9,878.7,192.9,880,197.1,885.7z"/>
				
					<radialGradient id="SVGID_00000143598492540647969480000012780311798581908392_" cx="-4128.2646" cy="-438.5966" r="12.8639" gradientTransform="matrix(-1 0 0 -1 -3941.5593 278.0507)" gradientUnits="userSpaceOnUse">
					<stop  offset="0" style="stop-color:#FFFFFF"/>
					<stop  offset="0.6402" style="stop-color:#FFE100"/>
					<stop  offset="1" style="stop-color:#C99000"/>
				</radialGradient>
				<path style="fill:url(#SVGID_00000143598492540647969480000012780311798581908392_);" d="M197.1,709.1c4.2,5.7,2.9,13.8-2.8,18
					c-5.7,4.2-13.8,2.9-18-2.8c-4.2-5.7-2.9-13.8,2.8-18C184.9,702.1,192.9,703.3,197.1,709.1z"/>
				
					<radialGradient id="SVGID_00000011721176115716577590000002276045602013945013_" cx="-4128.2646" cy="-261.9493" r="12.8639" gradientTransform="matrix(-1 0 0 -1 -3941.5593 278.0507)" gradientUnits="userSpaceOnUse">
					<stop  offset="0" style="stop-color:#FFFFFF"/>
					<stop  offset="0.6402" style="stop-color:#FFE100"/>
					<stop  offset="1" style="stop-color:#C99000"/>
				</radialGradient>
				<path style="fill:url(#SVGID_00000011721176115716577590000002276045602013945013_);" d="M197.1,532.4c4.2,5.7,2.9,13.8-2.8,18
					c-5.7,4.2-13.8,2.9-18-2.8c-4.2-5.7-2.9-13.8,2.8-18C184.9,525.4,192.9,526.7,197.1,532.4z"/>
				
					<radialGradient id="SVGID_00000132772511570277477680000010686667147958924164_" cx="-4128.2646" cy="-85.302" r="12.8639" gradientTransform="matrix(-1 0 0 -1 -3941.5593 278.0507)" gradientUnits="userSpaceOnUse">
					<stop  offset="0" style="stop-color:#FFFFFF"/>
					<stop  offset="0.6402" style="stop-color:#FFE100"/>
					<stop  offset="1" style="stop-color:#C99000"/>
				</radialGradient>
				<path style="fill:url(#SVGID_00000132772511570277477680000010686667147958924164_);" d="M197.1,355.8c4.2,5.7,2.9,13.8-2.8,18
					c-5.7,4.2-13.8,2.9-18-2.8c-4.2-5.7-2.9-13.8,2.8-18C184.9,348.8,192.9,350,197.1,355.8z"/>
			</g>
			<g>
				
					<radialGradient id="SVGID_00000040565941859978498540000002771085222678081692_" cx="-4834.854" cy="91.3453" r="12.8639" gradientTransform="matrix(-1 0 0 -1 -3941.5593 278.0507)" gradientUnits="userSpaceOnUse">
					<stop  offset="0" style="stop-color:#FFFFFF"/>
					<stop  offset="0.6402" style="stop-color:#FFE100"/>
					<stop  offset="1" style="stop-color:#C99000"/>
				</radialGradient>
				<path style="fill:url(#SVGID_00000040565941859978498540000002771085222678081692_);" d="M903.7,179.1c4.2,5.7,2.9,13.8-2.8,18
					c-5.7,4.2-13.8,2.9-18-2.8c-4.2-5.7-2.9-13.8,2.8-18C891.5,172.1,899.5,173.4,903.7,179.1z"/>
				
					<radialGradient id="SVGID_00000081624205780345380490000004480201107613687212_" cx="-4834.854" cy="-615.244" r="12.8639" gradientTransform="matrix(-1 0 0 -1 -3941.5593 278.0507)" gradientUnits="userSpaceOnUse">
					<stop  offset="0" style="stop-color:#FFFFFF"/>
					<stop  offset="0.6402" style="stop-color:#FFE100"/>
					<stop  offset="1" style="stop-color:#C99000"/>
				</radialGradient>
				<path style="fill:url(#SVGID_00000081624205780345380490000004480201107613687212_);" d="M903.7,885.7c4.2,5.7,2.9,13.8-2.8,18
					c-5.7,4.2-13.8,2.9-18-2.8c-4.2-5.7-2.9-13.8,2.8-18C891.5,878.7,899.5,880,903.7,885.7z"/>
				
					<radialGradient id="SVGID_00000023259704350124258050000007022768174781601946_" cx="-4834.854" cy="-438.5966" r="12.8639" gradientTransform="matrix(-1 0 0 -1 -3941.5593 278.0507)" gradientUnits="userSpaceOnUse">
					<stop  offset="0" style="stop-color:#FFFFFF"/>
					<stop  offset="0.6402" style="stop-color:#FFE100"/>
					<stop  offset="1" style="stop-color:#C99000"/>
				</radialGradient>
				<path style="fill:url(#SVGID_00000023259704350124258050000007022768174781601946_);" d="M903.7,709.1c4.2,5.7,2.9,13.8-2.8,18
					c-5.7,4.2-13.8,2.9-18-2.8c-4.2-5.7-2.9-13.8,2.8-18C891.5,702.1,899.5,703.3,903.7,709.1z"/>
				
					<radialGradient id="SVGID_00000011733362779874857250000015142798360343668608_" cx="-4834.854" cy="-261.9493" r="12.8639" gradientTransform="matrix(-1 0 0 -1 -3941.5593 278.0507)" gradientUnits="userSpaceOnUse">
					<stop  offset="0" style="stop-color:#FFFFFF"/>
					<stop  offset="0.6402" style="stop-color:#FFE100"/>
					<stop  offset="1" style="stop-color:#C99000"/>
				</radialGradient>
				<path style="fill:url(#SVGID_00000011733362779874857250000015142798360343668608_);" d="M903.7,532.4c4.2,5.7,2.9,13.8-2.8,18
					c-5.7,4.2-13.8,2.9-18-2.8c-4.2-5.7-2.9-13.8,2.8-18C891.5,525.4,899.5,526.7,903.7,532.4z"/>
				
					<radialGradient id="SVGID_00000033371326469247759220000002583747079065824658_" cx="-4834.854" cy="-85.302" r="12.8639" gradientTransform="matrix(-1 0 0 -1 -3941.5593 278.0507)" gradientUnits="userSpaceOnUse">
					<stop  offset="0" style="stop-color:#FFFFFF"/>
					<stop  offset="0.6402" style="stop-color:#FFE100"/>
					<stop  offset="1" style="stop-color:#C99000"/>
				</radialGradient>
				<path style="fill:url(#SVGID_00000033371326469247759220000002583747079065824658_);" d="M903.7,355.8c4.2,5.7,2.9,13.8-2.8,18
					c-5.7,4.2-13.8,2.9-18-2.8c-4.2-5.7-2.9-13.8,2.8-18C891.5,348.8,899.5,350,903.7,355.8z"/>
			</g>
		</g>
		
			<rect x="226.1" y="227.3" transform="matrix(-1.836970e-16 1 -1 -1.836970e-16 1080 1.136868e-13)" class="st22" width="627.7" height="625.5"/>
	</g>
	<g>
		<path class="st23" d="M301.8,395.5h27.9v48.6H381v-48.6h27.9v126.7H381v-54.6h-51.3v54.6h-27.9V395.5z"/>
		<path class="st23" d="M467.9,395.5h28.6l47.4,126.7h-28.9l-9.6-28.2H458l-9.9,28.2h-28.2L467.9,395.5z M465.2,473.2h32.8l-16-46.5
			h-0.4L465.2,473.2z"/>
		<path class="st23" d="M554.8,395.5h68.3c5.7,0,10.8,0.9,15.3,2.8c4.6,1.8,8.5,4.3,11.7,7.5c3.3,3.2,5.7,6.9,7.5,11.2
			c1.7,4.3,2.6,8.8,2.6,13.5c0,7.5-1.6,13.9-4.7,19.3c-3.1,5.4-8.2,9.6-15.3,12.4v0.4c3.4,0.9,6.3,2.4,8.5,4.3c2.2,2,4.1,4.3,5.5,7
			c1.4,2.7,2.5,5.7,3.1,8.8c0.6,3.1,1.1,6.3,1.3,9.5c0.1,2,0.2,4.4,0.4,7.1c0.1,2.7,0.3,5.5,0.6,8.2c0.3,2.8,0.8,5.5,1.4,8.1
			c0.6,2.6,1.6,4.8,2.9,6.6h-27.9c-0.8-2-1.5-4.2-1.9-6.7c-0.4-2.4-0.8-5-1.1-7.6c-0.3-2.7-0.5-5.4-0.7-8.2
			c-0.2-2.8-0.4-5.4-0.8-7.9c-0.9-6.6-3-11.5-6-14.5c-3.1-3.1-8.1-4.6-15.1-4.6h-27.9v49.5h-27.9V395.5z M582.7,452.8h30.5
			c6.3,0,11-1.4,14.3-4.3c3.3-2.8,4.9-7.5,4.9-13.8c0-6.1-1.6-10.6-4.9-13.4c-3.3-2.8-8-4.2-14.3-4.2h-30.5V452.8z"/>
		<path class="st23" d="M682.9,395.5h54.6c8.2,0,15.8,1.3,22.8,3.9c7,2.6,13.1,6.5,18.3,11.7c5.1,5.2,9.2,11.7,12.1,19.5
			c2.9,7.8,4.3,17,4.3,27.5c0,9.2-1.2,17.7-3.5,25.5c-2.4,7.8-5.9,14.5-10.7,20.2c-4.8,5.7-10.8,10.1-17.9,13.4
			c-7.2,3.3-15.6,4.9-25.3,4.9h-54.6V395.5z M710.8,498.8h24.8c4,0,7.9-0.6,11.7-2c3.8-1.3,7.2-3.5,10.1-6.5c3-3,5.3-6.9,7.1-11.8
			c1.8-4.8,2.7-10.8,2.7-17.7c0-6.4-0.6-12.2-1.9-17.3c-1.2-5.1-3.3-9.5-6.1-13.2c-2.8-3.7-6.6-6.5-11.3-8.4
			c-4.7-2-10.4-2.9-17.3-2.9h-19.9V498.8z"/>
		<path class="st23" d="M301.8,551h27.9v103.3h61.7v23.4h-89.6V551z"/>
		<path class="st23" d="M514.6,629.8c0,17.2-4.8,29.9-14.4,38.3c-9.6,8.4-22.8,12.6-39.7,12.6c-17.2,0-30.4-4.2-39.8-12.5
			c-9.4-8.3-14.1-21.1-14.1-38.4V551h27.9v78.8c0,3.4,0.3,6.8,0.9,10.1c0.6,3.3,1.8,6.3,3.7,8.9c1.9,2.6,4.5,4.7,7.9,6.2
			c3.4,1.5,7.9,2.3,13.6,2.3c9.9,0,16.8-2.2,20.6-6.7c3.8-4.4,5.7-11.4,5.7-20.8V551h27.9V629.8z"/>
		<path class="st23" d="M623,593.6c-0.5-3.2-1.5-6.1-3.2-8.8c-1.7-2.7-3.7-5-6.2-7c-2.5-2-5.3-3.6-8.4-4.7c-3.1-1.1-6.4-1.7-9.8-1.7
			c-6.3,0-11.6,1.2-16,3.6c-4.4,2.4-7.9,5.7-10.6,9.8c-2.7,4.1-4.7,8.7-5.9,13.9c-1.2,5.2-1.9,10.6-1.9,16.1
			c0,5.3,0.6,10.5,1.9,15.5c1.2,5,3.2,9.6,5.9,13.6c2.7,4,6.3,7.2,10.6,9.7c4.4,2.4,9.7,3.6,16,3.6c8.5,0,15.2-2.6,20-7.9
			c4.8-5.3,7.7-12.1,8.8-20.5h27c-0.7,7.9-2.5,15.1-5.5,21.5c-3,6.4-6.9,11.8-11.7,16.3c-4.9,4.5-10.5,8-17,10.4
			c-6.5,2.4-13.7,3.6-21.5,3.6c-9.8,0-18.6-1.7-26.3-5.1c-7.7-3.4-14.2-8.1-19.5-14c-5.3-5.9-9.4-12.9-12.2-20.9
			c-2.8-8-4.3-16.6-4.3-25.7c0-9.3,1.4-18.1,4.3-26.3c2.8-8.2,6.9-15.3,12.2-21.3c5.3-6,11.8-10.8,19.5-14.2
			c7.7-3.4,16.4-5.1,26.3-5.1c7,0,13.6,1,19.8,3c6.2,2,11.8,4.9,16.7,8.8c4.9,3.8,9,8.6,12.2,14.3c3.2,5.7,5.2,12.2,6,19.5H623z"/>
		<path class="st23" d="M670,551h27.9v52.5l49.5-52.5h34.8l-49.5,50l54.3,76.6h-35l-38.1-56.9l-16,16.1v40.8H670V551z"/>
	</g>
</g>
</svg>
