<?xml version="1.0" encoding="utf-8"?>
<!-- Generator: Adobe Illustrator 28.0.0, SVG Export Plug-In . SVG Version: 6.00 Build 0)  -->
<svg version="1.1" id="Layer_1" xmlns="http://www.w3.org/2000/svg" xmlns:xlink="http://www.w3.org/1999/xlink" x="0px" y="0px"
	 viewBox="0 0 1080 1080" style="enable-background:new 0 0 1080 1080;" xml:space="preserve">
<style type="text/css">
	.st0{fill:url(#SVGID_1_);}
	.st1{fill:url(#SVGID_00000011020762465107558510000009100741857136900529_);}
	.st2{fill:url(#SVGID_00000123411416971517803300000012264424207879160202_);}
	.st3{fill:url(#SVGID_00000010301933781033858310000015375691395838878119_);}
	.st4{fill:url(#SVGID_00000163037384475965697100000017907839398806769810_);}
	.st5{fill:url(#SVGID_00000125566176736502496410000011395585345253152402_);}
	.st6{fill:url(#SVGID_00000122719338540644386200000002391351487510555277_);}
	.st7{fill:url(#SVGID_00000147211006096362820440000000494879744377208995_);}
	.st8{fill:url(#SVGID_00000073691616833525278880000011902172643720246960_);}
	.st9{fill:url(#SVGID_00000044879503625838387550000008137729574940643233_);}
	.st10{fill:url(#SVGID_00000150813118781580274710000011637307352637538211_);}
	.st11{fill:url(#SVGID_00000054953733152547019730000005499912045713515444_);}
	.st12{fill:url(#SVGID_00000006696707372607072880000005188799146766042281_);}
	.st13{fill:url(#SVGID_00000004542604405469765110000017932844827784061070_);}
	.st14{fill:url(#SVGID_00000042720175929342763470000016005157312608659097_);}
	.st15{fill:url(#SVGID_00000120519687164028060400000002211007843341156272_);}
	.st16{fill:url(#SVGID_00000133526980874362039100000007231466768899234980_);}
	.st17{fill:url(#SVGID_00000155111995230962978940000012827181578944892804_);}
	.st18{fill:url(#SVGID_00000029035989889069787690000004385052446223325342_);}
	.st19{fill:url(#SVGID_00000183944037579247088340000001630429036383646597_);}
	.st20{fill:url(#SVGID_00000009564189671033405710000015481478930081294249_);}
	.st21{fill:none;stroke:#EB661B;stroke-width:8.7123;stroke-miterlimit:10;}
</style>
<g>
	<linearGradient id="SVGID_1_" gradientUnits="userSpaceOnUse" x1="70.6972" y1="540" x2="1009.3029" y2="540">
		<stop  offset="0" style="stop-color:#040404"/>
		<stop  offset="0.5661" style="stop-color:#262623"/>
		<stop  offset="1" style="stop-color:#000000"/>
	</linearGradient>
	<path class="st0" d="M1009.3,1009.3H70.7V70.7h938.6V1009.3z M163,917h754V163H163V917z"/>
	<g>
		
			<radialGradient id="SVGID_00000003814015446693704120000003875920793807728061_" cx="51.373" cy="1874.88" r="15.4367" gradientTransform="matrix(0 1 -1 0 1990.9264 912.9264)" gradientUnits="userSpaceOnUse">
			<stop  offset="0" style="stop-color:#FFFFFF"/>
			<stop  offset="0.6402" style="stop-color:#FFE100"/>
			<stop  offset="1" style="stop-color:#C99000"/>
		</radialGradient>
		<path style="fill:url(#SVGID_00000003814015446693704120000003875920793807728061_);" d="M107,951.8c6.9-5,16.5-3.5,21.6,3.4
			c5,6.9,3.5,16.5-3.4,21.6c-6.9,5-16.5,3.5-21.6-3.4C98.5,966.5,100.1,956.8,107,951.8z"/>
		
			<radialGradient id="SVGID_00000130632525422469250960000000277135382029633446_" cx="51.373" cy="1026.9728" r="15.4367" gradientTransform="matrix(0 1 -1 0 1990.9264 912.9264)" gradientUnits="userSpaceOnUse">
			<stop  offset="0" style="stop-color:#FFFFFF"/>
			<stop  offset="0.6402" style="stop-color:#FFE100"/>
			<stop  offset="1" style="stop-color:#C99000"/>
		</radialGradient>
		<path style="fill:url(#SVGID_00000130632525422469250960000000277135382029633446_);" d="M954.9,951.8c6.9-5,16.5-3.5,21.6,3.4
			c5,6.9,3.5,16.5-3.4,21.6c-6.9,5-16.5,3.5-21.6-3.4C946.5,966.5,948,956.8,954.9,951.8z"/>
		
			<radialGradient id="SVGID_00000059278496046524261360000002368162792501904030_" cx="51.373" cy="1238.9496" r="15.4367" gradientTransform="matrix(0 1 -1 0 1990.9264 912.9264)" gradientUnits="userSpaceOnUse">
			<stop  offset="0" style="stop-color:#FFFFFF"/>
			<stop  offset="0.6402" style="stop-color:#FFE100"/>
			<stop  offset="1" style="stop-color:#C99000"/>
		</radialGradient>
		<path style="fill:url(#SVGID_00000059278496046524261360000002368162792501904030_);" d="M742.9,951.8c6.9-5,16.5-3.5,21.6,3.4
			c5,6.9,3.5,16.5-3.4,21.6c-6.9,5-16.5,3.5-21.6-3.4C734.5,966.5,736,956.8,742.9,951.8z"/>
		
			<radialGradient id="SVGID_00000016782183982861483620000010780801589847263657_" cx="51.373" cy="1450.9264" r="15.4367" gradientTransform="matrix(0 1 -1 0 1990.9264 912.9264)" gradientUnits="userSpaceOnUse">
			<stop  offset="0" style="stop-color:#FFFFFF"/>
			<stop  offset="0.6402" style="stop-color:#FFE100"/>
			<stop  offset="1" style="stop-color:#C99000"/>
		</radialGradient>
		<path style="fill:url(#SVGID_00000016782183982861483620000010780801589847263657_);" d="M530.9,951.8c6.9-5,16.5-3.5,21.6,3.4
			c5,6.9,3.5,16.5-3.4,21.6c-6.9,5-16.5,3.5-21.6-3.4C522.5,966.5,524,956.8,530.9,951.8z"/>
		
			<radialGradient id="SVGID_00000181053429782972296700000008494053288280399493_" cx="51.373" cy="1662.9032" r="15.4367" gradientTransform="matrix(0 1 -1 0 1990.9264 912.9264)" gradientUnits="userSpaceOnUse">
			<stop  offset="0" style="stop-color:#FFFFFF"/>
			<stop  offset="0.6402" style="stop-color:#FFE100"/>
			<stop  offset="1" style="stop-color:#C99000"/>
		</radialGradient>
		<path style="fill:url(#SVGID_00000181053429782972296700000008494053288280399493_);" d="M319,951.8c6.9-5,16.5-3.5,21.6,3.4
			c5,6.9,3.5,16.5-3.4,21.6c-6.9,5-16.5,3.5-21.6-3.4C310.5,966.5,312.1,956.8,319,951.8z"/>
	</g>
	<g>
		<g>
			
				<radialGradient id="SVGID_00000048486381326416453380000012347871199306780568_" cx="-796.88" cy="1874.88" r="15.4367" gradientTransform="matrix(0 1 -1 0 1990.9264 912.9264)" gradientUnits="userSpaceOnUse">
				<stop  offset="0" style="stop-color:#FFFFFF"/>
				<stop  offset="0.6402" style="stop-color:#FFE100"/>
				<stop  offset="1" style="stop-color:#C99000"/>
			</radialGradient>
			<path style="fill:url(#SVGID_00000048486381326416453380000012347871199306780568_);" d="M107,103.6c6.9-5,16.5-3.5,21.6,3.4
				c5,6.9,3.5,16.5-3.4,21.6c-6.9,5-16.5,3.5-21.6-3.4C98.5,118.2,100.1,108.6,107,103.6z"/>
			
				<radialGradient id="SVGID_00000022543192966556370610000008144095638584270219_" cx="-796.88" cy="1026.9728" r="15.4367" gradientTransform="matrix(0 1 -1 0 1990.9264 912.9264)" gradientUnits="userSpaceOnUse">
				<stop  offset="0" style="stop-color:#FFFFFF"/>
				<stop  offset="0.6402" style="stop-color:#FFE100"/>
				<stop  offset="1" style="stop-color:#C99000"/>
			</radialGradient>
			<path style="fill:url(#SVGID_00000022543192966556370610000008144095638584270219_);" d="M954.9,103.6c6.9-5,16.5-3.5,21.6,3.4
				c5,6.9,3.5,16.5-3.4,21.6c-6.9,5-16.5,3.5-21.6-3.4C946.5,118.2,948,108.6,954.9,103.6z"/>
			
				<radialGradient id="SVGID_00000106834363847761286930000016128392415036087971_" cx="-796.88" cy="1238.9496" r="15.4367" gradientTransform="matrix(0 1 -1 0 1990.9264 912.9264)" gradientUnits="userSpaceOnUse">
				<stop  offset="0" style="stop-color:#FFFFFF"/>
				<stop  offset="0.6402" style="stop-color:#FFE100"/>
				<stop  offset="1" style="stop-color:#C99000"/>
			</radialGradient>
			<path style="fill:url(#SVGID_00000106834363847761286930000016128392415036087971_);" d="M742.9,103.6c6.9-5,16.5-3.5,21.6,3.4
				c5,6.9,3.5,16.5-3.4,21.6c-6.9,5-16.5,3.5-21.6-3.4C734.5,118.2,736,108.6,742.9,103.6z"/>
			
				<radialGradient id="SVGID_00000165931111158631916920000015811453297200082568_" cx="-796.88" cy="1450.9264" r="15.4367" gradientTransform="matrix(0 1 -1 0 1990.9264 912.9264)" gradientUnits="userSpaceOnUse">
				<stop  offset="0" style="stop-color:#FFFFFF"/>
				<stop  offset="0.6402" style="stop-color:#FFE100"/>
				<stop  offset="1" style="stop-color:#C99000"/>
			</radialGradient>
			<path style="fill:url(#SVGID_00000165931111158631916920000015811453297200082568_);" d="M530.9,103.6c6.9-5,16.5-3.5,21.6,3.4
				c5,6.9,3.5,16.5-3.4,21.6c-6.9,5-16.5,3.5-21.6-3.4C522.5,118.2,524,108.6,530.9,103.6z"/>
			
				<radialGradient id="SVGID_00000176042042299034266220000001527221817690953117_" cx="-796.88" cy="1662.9032" r="15.4367" gradientTransform="matrix(0 1 -1 0 1990.9264 912.9264)" gradientUnits="userSpaceOnUse">
				<stop  offset="0" style="stop-color:#FFFFFF"/>
				<stop  offset="0.6402" style="stop-color:#FFE100"/>
				<stop  offset="1" style="stop-color:#C99000"/>
			</radialGradient>
			<path style="fill:url(#SVGID_00000176042042299034266220000001527221817690953117_);" d="M319,103.6c6.9-5,16.5-3.5,21.6,3.4
				c5,6.9,3.5,16.5-3.4,21.6c-6.9,5-16.5,3.5-21.6-3.4C310.5,118.2,312.1,108.6,319,103.6z"/>
		</g>
		<g>
			
				<radialGradient id="SVGID_00000101818586503973431350000004558430741757464477_" cx="-4059.606" cy="162.0043" r="15.4367" gradientTransform="matrix(-1 0 0 -1 -3943.5593 278.0507)" gradientUnits="userSpaceOnUse">
				<stop  offset="0" style="stop-color:#FFFFFF"/>
				<stop  offset="0.6402" style="stop-color:#FFE100"/>
				<stop  offset="1" style="stop-color:#C99000"/>
			</radialGradient>
			<path style="fill:url(#SVGID_00000101818586503973431350000004558430741757464477_);" d="M128.5,107c5,6.9,3.5,16.5-3.4,21.6
				c-6.9,5-16.5,3.5-21.6-3.4c-5-6.9-3.5-16.5,3.4-21.6C113.9,98.5,123.5,100.1,128.5,107z"/>
			
				<radialGradient id="SVGID_00000012453998197376781790000016340191805086059409_" cx="-4059.606" cy="-685.9029" r="15.4367" gradientTransform="matrix(-1 0 0 -1 -3943.5593 278.0507)" gradientUnits="userSpaceOnUse">
				<stop  offset="0" style="stop-color:#FFFFFF"/>
				<stop  offset="0.6402" style="stop-color:#FFE100"/>
				<stop  offset="1" style="stop-color:#C99000"/>
			</radialGradient>
			<path style="fill:url(#SVGID_00000012453998197376781790000016340191805086059409_);" d="M128.5,954.9c5,6.9,3.5,16.5-3.4,21.6
				c-6.9,5-16.5,3.5-21.6-3.4c-5-6.9-3.5-16.5,3.4-21.6C113.9,946.5,123.5,948,128.5,954.9z"/>
			
				<radialGradient id="SVGID_00000124137160716098401730000001405923152433798322_" cx="-4059.606" cy="-473.9261" r="15.4367" gradientTransform="matrix(-1 0 0 -1 -3943.5593 278.0507)" gradientUnits="userSpaceOnUse">
				<stop  offset="0" style="stop-color:#FFFFFF"/>
				<stop  offset="0.6402" style="stop-color:#FFE100"/>
				<stop  offset="1" style="stop-color:#C99000"/>
			</radialGradient>
			<path style="fill:url(#SVGID_00000124137160716098401730000001405923152433798322_);" d="M128.5,742.9c5,6.9,3.5,16.5-3.4,21.6
				c-6.9,5-16.5,3.5-21.6-3.4c-5-6.9-3.5-16.5,3.4-21.6C113.9,734.5,123.5,736,128.5,742.9z"/>
			
				<radialGradient id="SVGID_00000173871656783015747170000004899548751765448630_" cx="-4059.606" cy="-261.9493" r="15.4367" gradientTransform="matrix(-1 0 0 -1 -3943.5593 278.0507)" gradientUnits="userSpaceOnUse">
				<stop  offset="0" style="stop-color:#FFFFFF"/>
				<stop  offset="0.6402" style="stop-color:#FFE100"/>
				<stop  offset="1" style="stop-color:#C99000"/>
			</radialGradient>
			<path style="fill:url(#SVGID_00000173871656783015747170000004899548751765448630_);" d="M128.5,530.9c5,6.9,3.5,16.5-3.4,21.6
				c-6.9,5-16.5,3.5-21.6-3.4c-5-6.9-3.5-16.5,3.4-21.6C113.9,522.5,123.5,524,128.5,530.9z"/>
			
				<radialGradient id="SVGID_00000047767136411631847220000012716629545158939050_" cx="-4059.606" cy="-49.9725" r="15.4367" gradientTransform="matrix(-1 0 0 -1 -3943.5593 278.0507)" gradientUnits="userSpaceOnUse">
				<stop  offset="0" style="stop-color:#FFFFFF"/>
				<stop  offset="0.6402" style="stop-color:#FFE100"/>
				<stop  offset="1" style="stop-color:#C99000"/>
			</radialGradient>
			<path style="fill:url(#SVGID_00000047767136411631847220000012716629545158939050_);" d="M128.5,319c5,6.9,3.5,16.5-3.4,21.6
				c-6.9,5-16.5,3.5-21.6-3.4c-5-6.9-3.5-16.5,3.4-21.6C113.9,310.5,123.5,312.1,128.5,319z"/>
		</g>
		<g>
			
				<radialGradient id="SVGID_00000012435699218761750470000003876014997502789546_" cx="-4907.5132" cy="162.0043" r="15.4367" gradientTransform="matrix(-1 0 0 -1 -3943.5593 278.0507)" gradientUnits="userSpaceOnUse">
				<stop  offset="0" style="stop-color:#FFFFFF"/>
				<stop  offset="0.6402" style="stop-color:#FFE100"/>
				<stop  offset="1" style="stop-color:#C99000"/>
			</radialGradient>
			<path style="fill:url(#SVGID_00000012435699218761750470000003876014997502789546_);" d="M976.4,107c5,6.9,3.5,16.5-3.4,21.6
				c-6.9,5-16.5,3.5-21.6-3.4c-5-6.9-3.5-16.5,3.4-21.6C961.8,98.5,971.4,100.1,976.4,107z"/>
			
				<radialGradient id="SVGID_00000178194812154470757080000015451347628390719406_" cx="-4907.5132" cy="-685.9029" r="15.4367" gradientTransform="matrix(-1 0 0 -1 -3943.5593 278.0507)" gradientUnits="userSpaceOnUse">
				<stop  offset="0" style="stop-color:#FFFFFF"/>
				<stop  offset="0.6402" style="stop-color:#FFE100"/>
				<stop  offset="1" style="stop-color:#C99000"/>
			</radialGradient>
			<path style="fill:url(#SVGID_00000178194812154470757080000015451347628390719406_);" d="M976.4,954.9c5,6.9,3.5,16.5-3.4,21.6
				c-6.9,5-16.5,3.5-21.6-3.4c-5-6.9-3.5-16.5,3.4-21.6C961.8,946.5,971.4,948,976.4,954.9z"/>
			
				<radialGradient id="SVGID_00000011722749484033941220000006060253906130275213_" cx="-4907.5132" cy="-473.9261" r="15.4367" gradientTransform="matrix(-1 0 0 -1 -3943.5593 278.0507)" gradientUnits="userSpaceOnUse">
				<stop  offset="0" style="stop-color:#FFFFFF"/>
				<stop  offset="0.6402" style="stop-color:#FFE100"/>
				<stop  offset="1" style="stop-color:#C99000"/>
			</radialGradient>
			<path style="fill:url(#SVGID_00000011722749484033941220000006060253906130275213_);" d="M976.4,742.9c5,6.9,3.5,16.5-3.4,21.6
				c-6.9,5-16.5,3.5-21.6-3.4c-5-6.9-3.5-16.5,3.4-21.6C961.8,734.5,971.4,736,976.4,742.9z"/>
			
				<radialGradient id="SVGID_00000163772332291479397650000011503753755960628901_" cx="-4907.5132" cy="-261.9493" r="15.4367" gradientTransform="matrix(-1 0 0 -1 -3943.5593 278.0507)" gradientUnits="userSpaceOnUse">
				<stop  offset="0" style="stop-color:#FFFFFF"/>
				<stop  offset="0.6402" style="stop-color:#FFE100"/>
				<stop  offset="1" style="stop-color:#C99000"/>
			</radialGradient>
			<path style="fill:url(#SVGID_00000163772332291479397650000011503753755960628901_);" d="M976.4,530.9c5,6.9,3.5,16.5-3.4,21.6
				c-6.9,5-16.5,3.5-21.6-3.4c-5-6.9-3.5-16.5,3.4-21.6C961.8,522.5,971.4,524,976.4,530.9z"/>
			
				<radialGradient id="SVGID_00000033370619090106434960000017752655947587948701_" cx="-4907.5132" cy="-49.9725" r="15.4367" gradientTransform="matrix(-1 0 0 -1 -3943.5593 278.0507)" gradientUnits="userSpaceOnUse">
				<stop  offset="0" style="stop-color:#FFFFFF"/>
				<stop  offset="0.6402" style="stop-color:#FFE100"/>
				<stop  offset="1" style="stop-color:#C99000"/>
			</radialGradient>
			<path style="fill:url(#SVGID_00000033370619090106434960000017752655947587948701_);" d="M976.4,319c5,6.9,3.5,16.5-3.4,21.6
				c-6.9,5-16.5,3.5-21.6-3.4c-5-6.9-3.5-16.5,3.4-21.6C961.8,310.5,971.4,312.1,976.4,319z"/>
		</g>
	</g>
	
		<rect x="163.4" y="164.7" transform="matrix(-1.836970e-16 1 -1 -1.836970e-16 1080 1.023182e-12)" class="st21" width="753.2" height="750.6"/>
</g>
</svg>
