<?xml version="1.0" encoding="utf-8"?>
<!-- Generator: Adobe Illustrator 28.0.0, SVG Export Plug-In . SVG Version: 6.00 Build 0)  -->
<svg version="1.1" id="Layer_1" xmlns="http://www.w3.org/2000/svg" xmlns:xlink="http://www.w3.org/1999/xlink" x="0px" y="0px"
	 viewBox="0 0 1080 1080" style="enable-background:new 0 0 1080 1080;" xml:space="preserve">
<style type="text/css">
	.st0{fill:#FFFFFF;}
	.st1{fill:url(#SVGID_1_);}
	.st2{fill:url(#SVGID_00000108281457532407647770000014803951582594507159_);}
	.st3{fill:url(#SVGID_00000167383957384084384620000015890938090747036587_);}
	.st4{fill:url(#SVGID_00000139295783053800632260000004780175493891726775_);}
	.st5{fill:url(#SVGID_00000119821067244281794760000001989057035507092125_);}
	.st6{fill:url(#SVGID_00000111186418079016950630000007415299905791371954_);}
	.st7{fill:url(#SVGID_00000031189494473663816420000017872057658672668068_);}
	.st8{fill:url(#SVGID_00000152223473324725174740000011346250668979624613_);}
	.st9{fill:url(#SVGID_00000016794209354184714000000000742228544448118697_);}
	.st10{fill:url(#SVGID_00000167374123563781088480000007599284797053025212_);}
	.st11{fill:url(#SVGID_00000044173256204099827410000016759183800397799309_);}
	.st12{fill:url(#SVGID_00000005242809378373746440000006326106304139610293_);}
	.st13{fill:url(#SVGID_00000173880927599866311020000010717495965140415924_);}
	.st14{fill:url(#SVGID_00000169532716657006207890000006841964631256761254_);}
	.st15{fill:url(#SVGID_00000096777889546739959070000011211002774805896848_);}
	.st16{fill:url(#SVGID_00000133492401712249413350000016265490118697134002_);}
	.st17{fill:url(#SVGID_00000085945073457144682580000000019787360438113700_);}
	.st18{fill:url(#SVGID_00000147216382176832338030000014542421894591877259_);}
	.st19{fill:url(#SVGID_00000072260106627259156260000005467350119466893231_);}
	.st20{fill:url(#SVGID_00000111902900306393381600000008471169373664046470_);}
	.st21{fill:url(#SVGID_00000132787932521612280070000016990179244859995820_);}
	.st22{fill:none;stroke:#FF7900;stroke-width:8.7123;stroke-miterlimit:10;}
	.st23{fill:#FF7900;}
</style>
<g>
	<g>
		<rect x="160.9" y="160.9" class="st0" width="758.3" height="758.3"/>
		
			<linearGradient id="SVGID_1_" gradientUnits="userSpaceOnUse" x1="70.7" y1="542" x2="1009.3" y2="542" gradientTransform="matrix(1 0 0 -1 0 1082)">
			<stop  offset="0" style="stop-color:#040404"/>
			<stop  offset="0.5661" style="stop-color:#262623"/>
			<stop  offset="1" style="stop-color:#000000"/>
		</linearGradient>
		<path class="st1" d="M1009.3,1009.3H70.7V70.7h938.6V1009.3z M163,917h754V163H163V917z"/>
		<g>
			
				<radialGradient id="SVGID_00000034807367162563058070000000259965031527380896_" cx="471.3736" cy="-374.88" r="15.4364" gradientTransform="matrix(0 1 1 0 490.9264 492.9264)" gradientUnits="userSpaceOnUse">
				<stop  offset="0" style="stop-color:#FFFFFF"/>
				<stop  offset="0.6402" style="stop-color:#FFE100"/>
				<stop  offset="1" style="stop-color:#C99000"/>
			</radialGradient>
			<path style="fill:url(#SVGID_00000034807367162563058070000000259965031527380896_);" d="M107,951.8c6.9-5,16.5-3.5,21.6,3.4
				c5,6.9,3.5,16.5-3.4,21.6c-6.9,5-16.5,3.5-21.6-3.4C98.5,966.5,100.1,956.8,107,951.8z"/>
			
				<radialGradient id="SVGID_00000011712587906016760250000006775238228924262587_" cx="471.3736" cy="473.0272" r="15.4364" gradientTransform="matrix(0 1 1 0 490.9264 492.9264)" gradientUnits="userSpaceOnUse">
				<stop  offset="0" style="stop-color:#FFFFFF"/>
				<stop  offset="0.6402" style="stop-color:#FFE100"/>
				<stop  offset="1" style="stop-color:#C99000"/>
			</radialGradient>
			<path style="fill:url(#SVGID_00000011712587906016760250000006775238228924262587_);" d="M954.9,951.8c6.9-5,16.5-3.5,21.6,3.4
				c5,6.9,3.5,16.5-3.4,21.6c-6.9,5-16.5,3.5-21.6-3.4C946.5,966.5,948,956.8,954.9,951.8z"/>
			
				<radialGradient id="SVGID_00000093859987413575537310000000756796402287780224_" cx="471.3736" cy="261.0736" r="15.4248" gradientTransform="matrix(0 1 1 0 490.9264 492.9264)" gradientUnits="userSpaceOnUse">
				<stop  offset="0" style="stop-color:#FFFFFF"/>
				<stop  offset="0.6402" style="stop-color:#FFE100"/>
				<stop  offset="1" style="stop-color:#C99000"/>
			</radialGradient>
			<path style="fill:url(#SVGID_00000093859987413575537310000000756796402287780224_);" d="M742.9,951.8c6.9-5,16.5-3.5,21.6,3.4
				c5,6.9,3.5,16.5-3.4,21.6c-6.9,5-16.5,3.5-21.6-3.4C734.5,966.5,736,956.8,742.9,951.8z"/>
			
				<radialGradient id="SVGID_00000145047702724348177790000003905084862468822936_" cx="471.3736" cy="49.0736" r="15.4505" gradientTransform="matrix(0 1 1 0 490.9264 492.9264)" gradientUnits="userSpaceOnUse">
				<stop  offset="0" style="stop-color:#FFFFFF"/>
				<stop  offset="0.6402" style="stop-color:#FFE100"/>
				<stop  offset="1" style="stop-color:#C99000"/>
			</radialGradient>
			<path style="fill:url(#SVGID_00000145047702724348177790000003905084862468822936_);" d="M530.9,951.8c6.9-5,16.5-3.5,21.6,3.4
				c5,6.9,3.5,16.5-3.4,21.6c-6.9,5-16.5,3.5-21.6-3.4C522.5,966.5,524,956.8,530.9,951.8z"/>
			
				<radialGradient id="SVGID_00000145045760834804326340000009601933330059199911_" cx="471.3736" cy="-162.9032" r="15.4364" gradientTransform="matrix(0 1 1 0 490.9264 492.9264)" gradientUnits="userSpaceOnUse">
				<stop  offset="0" style="stop-color:#FFFFFF"/>
				<stop  offset="0.6402" style="stop-color:#FFE100"/>
				<stop  offset="1" style="stop-color:#C99000"/>
			</radialGradient>
			<path style="fill:url(#SVGID_00000145045760834804326340000009601933330059199911_);" d="M319,951.8c6.9-5,16.5-3.5,21.6,3.4
				c5,6.9,3.5,16.5-3.4,21.6c-6.9,5-16.5,3.5-21.6-3.4C310.5,966.5,312.1,956.8,319,951.8z"/>
		</g>
		<g>
			<g>
				
					<radialGradient id="SVGID_00000077308325805403589230000010545527187325173917_" cx="-376.88" cy="-374.88" r="15.4367" gradientTransform="matrix(0 1 1 0 490.9264 492.9264)" gradientUnits="userSpaceOnUse">
					<stop  offset="0" style="stop-color:#FFFFFF"/>
					<stop  offset="0.6402" style="stop-color:#FFE100"/>
					<stop  offset="1" style="stop-color:#C99000"/>
				</radialGradient>
				<path style="fill:url(#SVGID_00000077308325805403589230000010545527187325173917_);" d="M107,103.6c6.9-5,16.5-3.5,21.6,3.4
					c5,6.9,3.5,16.5-3.4,21.6c-6.9,5-16.5,3.5-21.6-3.4C98.5,118.2,100.1,108.6,107,103.6z"/>
				
					<radialGradient id="SVGID_00000010270371586880612600000002466997575785681538_" cx="-376.88" cy="473.0272" r="15.4367" gradientTransform="matrix(0 1 1 0 490.9264 492.9264)" gradientUnits="userSpaceOnUse">
					<stop  offset="0" style="stop-color:#FFFFFF"/>
					<stop  offset="0.6402" style="stop-color:#FFE100"/>
					<stop  offset="1" style="stop-color:#C99000"/>
				</radialGradient>
				<path style="fill:url(#SVGID_00000010270371586880612600000002466997575785681538_);" d="M954.9,103.6c6.9-5,16.5-3.5,21.6,3.4
					c5,6.9,3.5,16.5-3.4,21.6c-6.9,5-16.5,3.5-21.6-3.4C946.5,118.2,948,108.6,954.9,103.6z"/>
				
					<radialGradient id="SVGID_00000067221238818184405140000008433499319731504283_" cx="-376.88" cy="261.0736" r="15.4252" gradientTransform="matrix(0 1 1 0 490.9264 492.9264)" gradientUnits="userSpaceOnUse">
					<stop  offset="0" style="stop-color:#FFFFFF"/>
					<stop  offset="0.6402" style="stop-color:#FFE100"/>
					<stop  offset="1" style="stop-color:#C99000"/>
				</radialGradient>
				<path style="fill:url(#SVGID_00000067221238818184405140000008433499319731504283_);" d="M742.9,103.6c6.9-5,16.5-3.5,21.6,3.4
					c5,6.9,3.5,16.5-3.4,21.6c-6.9,5-16.5,3.5-21.6-3.4C734.5,118.2,736,108.6,742.9,103.6z"/>
				
					<radialGradient id="SVGID_00000046338918874139693930000010191901373025889940_" cx="-376.88" cy="49.0736" r="15.4367" gradientTransform="matrix(0 1 1 0 490.9264 492.9264)" gradientUnits="userSpaceOnUse">
					<stop  offset="0" style="stop-color:#FFFFFF"/>
					<stop  offset="0.6402" style="stop-color:#FFE100"/>
					<stop  offset="1" style="stop-color:#C99000"/>
				</radialGradient>
				<path style="fill:url(#SVGID_00000046338918874139693930000010191901373025889940_);" d="M530.9,103.6c6.9-5,16.5-3.5,21.6,3.4
					c5,6.9,3.5,16.5-3.4,21.6c-6.9,5-16.5,3.5-21.6-3.4C522.5,118.2,524,108.6,530.9,103.6z"/>
				
					<radialGradient id="SVGID_00000121958829328669073560000004898072569663126423_" cx="-376.88" cy="-162.9032" r="15.4367" gradientTransform="matrix(0 1 1 0 490.9264 492.9264)" gradientUnits="userSpaceOnUse">
					<stop  offset="0" style="stop-color:#FFFFFF"/>
					<stop  offset="0.6402" style="stop-color:#FFE100"/>
					<stop  offset="1" style="stop-color:#C99000"/>
				</radialGradient>
				<path style="fill:url(#SVGID_00000121958829328669073560000004898072569663126423_);" d="M319,103.6c6.9-5,16.5-3.5,21.6,3.4
					c5,6.9,3.5,16.5-3.4,21.6c-6.9,5-16.5,3.5-21.6-3.4C310.5,118.2,312.1,108.6,319,103.6z"/>
			</g>
			<g>
				
					<radialGradient id="SVGID_00000043456127603726503020000005971516225811706261_" cx="-4057.606" cy="1757.9957" r="15.4367" gradientTransform="matrix(-1 0 0 1 -3941.5593 -1641.9493)" gradientUnits="userSpaceOnUse">
					<stop  offset="0" style="stop-color:#FFFFFF"/>
					<stop  offset="0.6402" style="stop-color:#FFE100"/>
					<stop  offset="1" style="stop-color:#C99000"/>
				</radialGradient>
				<path style="fill:url(#SVGID_00000043456127603726503020000005971516225811706261_);" d="M128.5,107c5,6.9,3.5,16.5-3.4,21.6
					c-6.9,5-16.5,3.5-21.6-3.4c-5-6.9-3.5-16.5,3.4-21.6C113.9,98.5,123.5,100.1,128.5,107z"/>
				
					<radialGradient id="SVGID_00000047048694663841242050000006010071513943461006_" cx="-4057.606" cy="2605.9028" r="15.4367" gradientTransform="matrix(-1 0 0 1 -3941.5593 -1641.9493)" gradientUnits="userSpaceOnUse">
					<stop  offset="0" style="stop-color:#FFFFFF"/>
					<stop  offset="0.6402" style="stop-color:#FFE100"/>
					<stop  offset="1" style="stop-color:#C99000"/>
				</radialGradient>
				<path style="fill:url(#SVGID_00000047048694663841242050000006010071513943461006_);" d="M128.5,954.9c5,6.9,3.5,16.5-3.4,21.6
					c-6.9,5-16.5,3.5-21.6-3.4c-5-6.9-3.5-16.5,3.4-21.6C113.9,946.5,123.5,948,128.5,954.9z"/>
				
					<radialGradient id="SVGID_00000165956231792951133640000016818426177285113754_" cx="-4057.606" cy="2393.9492" r="15.4251" gradientTransform="matrix(-1 0 0 1 -3941.5593 -1641.9493)" gradientUnits="userSpaceOnUse">
					<stop  offset="0" style="stop-color:#FFFFFF"/>
					<stop  offset="0.6402" style="stop-color:#FFE100"/>
					<stop  offset="1" style="stop-color:#C99000"/>
				</radialGradient>
				<path style="fill:url(#SVGID_00000165956231792951133640000016818426177285113754_);" d="M128.5,742.9c5,6.9,3.5,16.5-3.4,21.6
					c-6.9,5-16.5,3.5-21.6-3.4c-5-6.9-3.5-16.5,3.4-21.6C113.9,734.5,123.5,736,128.5,742.9z"/>
				
					<radialGradient id="SVGID_00000176755769794255893170000000058984257269495481_" cx="-4057.606" cy="2181.9492" r="15.4367" gradientTransform="matrix(-1 0 0 1 -3941.5593 -1641.9493)" gradientUnits="userSpaceOnUse">
					<stop  offset="0" style="stop-color:#FFFFFF"/>
					<stop  offset="0.6402" style="stop-color:#FFE100"/>
					<stop  offset="1" style="stop-color:#C99000"/>
				</radialGradient>
				<path style="fill:url(#SVGID_00000176755769794255893170000000058984257269495481_);" d="M128.5,530.9c5,6.9,3.5,16.5-3.4,21.6
					c-6.9,5-16.5,3.5-21.6-3.4c-5-6.9-3.5-16.5,3.4-21.6C113.9,522.5,123.5,524,128.5,530.9z"/>
				
					<radialGradient id="SVGID_00000137839252501760995720000001335010205896418434_" cx="-4057.606" cy="1969.9725" r="15.4367" gradientTransform="matrix(-1 0 0 1 -3941.5593 -1641.9493)" gradientUnits="userSpaceOnUse">
					<stop  offset="0" style="stop-color:#FFFFFF"/>
					<stop  offset="0.6402" style="stop-color:#FFE100"/>
					<stop  offset="1" style="stop-color:#C99000"/>
				</radialGradient>
				<path style="fill:url(#SVGID_00000137839252501760995720000001335010205896418434_);" d="M128.5,319c5,6.9,3.5,16.5-3.4,21.6
					c-6.9,5-16.5,3.5-21.6-3.4c-5-6.9-3.5-16.5,3.4-21.6C113.9,310.5,123.5,312.1,128.5,319z"/>
			</g>
			<g>
				
					<radialGradient id="SVGID_00000180341644625302780170000015393656276236265388_" cx="-4905.5132" cy="1757.9957" r="15.4367" gradientTransform="matrix(-1 0 0 1 -3941.5593 -1641.9493)" gradientUnits="userSpaceOnUse">
					<stop  offset="0" style="stop-color:#FFFFFF"/>
					<stop  offset="0.6402" style="stop-color:#FFE100"/>
					<stop  offset="1" style="stop-color:#C99000"/>
				</radialGradient>
				<path style="fill:url(#SVGID_00000180341644625302780170000015393656276236265388_);" d="M976.4,107c5,6.9,3.5,16.5-3.4,21.6
					c-6.9,5-16.5,3.5-21.6-3.4c-5-6.9-3.5-16.5,3.4-21.6C961.8,98.5,971.4,100.1,976.4,107z"/>
				
					<radialGradient id="SVGID_00000150101129700585310320000001201713956602776715_" cx="-4905.5132" cy="2605.9028" r="15.4367" gradientTransform="matrix(-1 0 0 1 -3941.5593 -1641.9493)" gradientUnits="userSpaceOnUse">
					<stop  offset="0" style="stop-color:#FFFFFF"/>
					<stop  offset="0.6402" style="stop-color:#FFE100"/>
					<stop  offset="1" style="stop-color:#C99000"/>
				</radialGradient>
				<path style="fill:url(#SVGID_00000150101129700585310320000001201713956602776715_);" d="M976.4,954.9c5,6.9,3.5,16.5-3.4,21.6
					c-6.9,5-16.5,3.5-21.6-3.4c-5-6.9-3.5-16.5,3.4-21.6C961.8,946.5,971.4,948,976.4,954.9z"/>
				
					<radialGradient id="SVGID_00000077311077338520211760000010205005486824705690_" cx="-4905.5132" cy="2393.9492" r="15.4251" gradientTransform="matrix(-1 0 0 1 -3941.5593 -1641.9493)" gradientUnits="userSpaceOnUse">
					<stop  offset="0" style="stop-color:#FFFFFF"/>
					<stop  offset="0.6402" style="stop-color:#FFE100"/>
					<stop  offset="1" style="stop-color:#C99000"/>
				</radialGradient>
				<path style="fill:url(#SVGID_00000077311077338520211760000010205005486824705690_);" d="M976.4,742.9c5,6.9,3.5,16.5-3.4,21.6
					c-6.9,5-16.5,3.5-21.6-3.4c-5-6.9-3.5-16.5,3.4-21.6C961.8,734.5,971.4,736,976.4,742.9z"/>
				
					<radialGradient id="SVGID_00000059301092959673769430000007022857841905204885_" cx="-4905.5132" cy="2181.9492" r="15.4367" gradientTransform="matrix(-1 0 0 1 -3941.5593 -1641.9493)" gradientUnits="userSpaceOnUse">
					<stop  offset="0" style="stop-color:#FFFFFF"/>
					<stop  offset="0.6402" style="stop-color:#FFE100"/>
					<stop  offset="1" style="stop-color:#C99000"/>
				</radialGradient>
				<path style="fill:url(#SVGID_00000059301092959673769430000007022857841905204885_);" d="M976.4,530.9c5,6.9,3.5,16.5-3.4,21.6
					c-6.9,5-16.5,3.5-21.6-3.4c-5-6.9-3.5-16.5,3.4-21.6C961.8,522.5,971.4,524,976.4,530.9z"/>
				
					<radialGradient id="SVGID_00000011023801235016071760000014028716803383731613_" cx="-4905.5132" cy="1969.9725" r="15.4367" gradientTransform="matrix(-1 0 0 1 -3941.5593 -1641.9493)" gradientUnits="userSpaceOnUse">
					<stop  offset="0" style="stop-color:#FFFFFF"/>
					<stop  offset="0.6402" style="stop-color:#FFE100"/>
					<stop  offset="1" style="stop-color:#C99000"/>
				</radialGradient>
				<path style="fill:url(#SVGID_00000011023801235016071760000014028716803383731613_);" d="M976.4,319c5,6.9,3.5,16.5-3.4,21.6
					c-6.9,5-16.5,3.5-21.6-3.4c-5-6.9-3.5-16.5,3.4-21.6C961.8,310.5,971.4,312.1,976.4,319z"/>
			</g>
		</g>
		<rect x="164.7" y="163.4" class="st22" width="750.6" height="753.2"/>
	</g>
	<g>
		<g>
			<path class="st23" d="M283.2,688.5h-17.7l0.1-56.6h-22v-13.3c3.1,0.1,6.1-0.1,8.9-0.7c2.9-0.5,5.5-1.5,7.8-2.9
				c2.3-1.4,4.3-3.2,5.8-5.4s2.6-5,3.1-8.4h14.1L283.2,688.5z"/>
			<path class="st23" d="M311.3,669.3h19.6v19.2c0,2.9-0.5,5.5-1.6,7.9c-1,2.3-2.4,4.4-4.2,6.2c-1.7,1.8-3.8,3.2-6.2,4.4
				c-2.4,1.1-4.9,1.9-7.6,2.3v-9c1.3-0.2,2.5-0.7,3.6-1.4s2-1.6,2.9-2.7c0.8-1.1,1.5-2.3,1.9-3.6s0.6-2.6,0.5-4.1h-9L311.3,669.3z"
				/>
			<path class="st23" d="M341,644.5c0-8.5,0.9-15.6,2.6-21.4c1.7-5.8,4-10.4,6.9-13.9s6.3-6,10.2-7.5c3.9-1.5,8-2.2,12.3-2.2
				s8.4,0.8,12.3,2.3s7.3,4,10.3,7.5c2.9,3.5,5.3,8.1,7,13.9c1.7,5.8,2.5,12.9,2.5,21.4c0,8.7-0.9,16-2.6,21.8s-4,10.5-7,14.1
				s-6.4,6.1-10.3,7.6s-8,2.2-12.4,2.2c-4.3,0-8.4-0.8-12.3-2.3s-7.3-4-10.2-7.6c-2.9-3.6-5.2-8.3-6.9-14.1
				C341.9,660.5,341,653.2,341,644.5z M358.8,644.5c0,2.5,0.1,5.5,0.2,9c0.2,3.5,0.7,6.9,1.5,10.2c0.9,3.3,2.3,6.1,4.2,8.4
				c1.9,2.3,4.7,3.5,8.2,3.5c3.6,0,6.4-1.2,8.4-3.5s3.4-5.1,4.3-8.4c0.9-3.3,1.4-6.7,1.6-10.2s0.3-6.5,0.3-9c0-1.5,0-3.3-0.1-5.4
				c0-2.1-0.2-4.3-0.5-6.6c-0.3-2.2-0.7-4.5-1.2-6.7s-1.3-4.2-2.4-5.9s-2.5-3.2-4.1-4.2c-1.7-1.1-3.7-1.6-6.1-1.6
				c-2.3,0-4.3,0.5-6,1.6s-3,2.5-4.1,4.2c-1,1.7-1.9,3.7-2.4,5.9c-0.6,2.2-1,4.4-1.3,6.7c-0.3,2.2-0.4,4.4-0.4,6.5
				C358.8,641.2,358.8,643,358.8,644.5z"/>
			<path class="st23" d="M410.4,644.6c0-8.5,0.9-15.6,2.6-21.4c1.7-5.8,4-10.4,6.9-13.9s6.3-6,10.2-7.5c3.9-1.5,8-2.2,12.3-2.2
				s8.4,0.8,12.3,2.3s7.3,4,10.3,7.5c2.9,3.5,5.3,8.1,7,13.9c1.7,5.8,2.5,12.9,2.5,21.4c0,8.7-0.9,16-2.6,21.8s-4,10.5-7,14.1
				s-6.4,6.1-10.3,7.6s-8,2.2-12.4,2.2c-4.3,0-8.4-0.8-12.3-2.3s-7.3-4-10.2-7.6c-2.9-3.6-5.2-8.3-6.9-14.1
				C411.2,660.6,410.4,653.3,410.4,644.6z M428.1,644.6c0,2.5,0.1,5.5,0.2,9c0.2,3.5,0.7,6.9,1.5,10.2c0.9,3.3,2.3,6.1,4.2,8.4
				c1.9,2.3,4.7,3.5,8.2,3.5c3.6,0,6.4-1.2,8.4-3.5s3.4-5.1,4.3-8.4c0.9-3.3,1.4-6.7,1.6-10.2s0.3-6.5,0.3-9c0-1.5,0-3.3-0.1-5.4
				c0-2.1-0.2-4.3-0.5-6.6c-0.3-2.2-0.7-4.5-1.2-6.7s-1.3-4.2-2.4-5.9s-2.5-3.2-4.1-4.2c-1.7-1.1-3.7-1.6-6.1-1.6
				c-2.3,0-4.3,0.5-6,1.6s-3,2.5-4.1,4.2c-1,1.7-1.9,3.7-2.4,5.9c-0.6,2.2-1,4.4-1.3,6.7c-0.3,2.2-0.4,4.4-0.4,6.5
				C428.1,641.3,428.1,643.1,428.1,644.6z"/>
			<path class="st23" d="M479.8,644.6c0-8.5,0.9-15.6,2.6-21.4c1.7-5.8,4-10.4,6.9-13.9s6.3-6,10.2-7.5c3.9-1.5,8-2.2,12.3-2.2
				s8.4,0.8,12.3,2.3c3.9,1.5,7.3,4,10.3,7.5c2.9,3.5,5.3,8.1,7,13.9c1.7,5.8,2.5,12.9,2.5,21.4c0,8.7-0.9,16-2.6,21.8
				c-1.7,5.8-4,10.5-7,14.1s-6.4,6.1-10.3,7.6c-3.9,1.5-8,2.2-12.4,2.2c-4.3,0-8.4-0.8-12.3-2.3s-7.3-4-10.2-7.6
				c-2.9-3.6-5.2-8.3-6.9-14.1C480.6,660.6,479.8,653.4,479.8,644.6z M497.5,644.6c0,2.5,0.1,5.5,0.2,9c0.2,3.5,0.7,6.9,1.5,10.2
				s2.3,6.1,4.2,8.4c1.9,2.3,4.7,3.5,8.2,3.5c3.6,0,6.4-1.2,8.4-3.5s3.4-5.1,4.3-8.4c0.9-3.3,1.4-6.7,1.6-10.2
				c0.2-3.5,0.3-6.5,0.3-9c0-1.5,0-3.3-0.1-5.4c0-2.1-0.2-4.3-0.5-6.5s-0.7-4.5-1.2-6.7s-1.3-4.2-2.4-5.9c-1.1-1.7-2.5-3.2-4.1-4.2
				c-1.7-1.1-3.7-1.6-6.1-1.6c-2.3,0-4.3,0.5-6,1.6s-3,2.5-4.1,4.2c-1,1.7-1.9,3.7-2.4,5.9c-0.6,2.2-1,4.4-1.3,6.7
				c-0.3,2.2-0.4,4.4-0.4,6.5C497.5,641.3,497.5,643.1,497.5,644.6z"/>
			<path class="st23" d="M589.9,599.7l66.6,0.1v16.5h-47v19.1h43.2v15.2h-43.2v21.8h48v16.5l-67.6-0.1V599.7z"/>
			<path class="st23" d="M735,678.8c-3.5,4.5-7.4,7.6-11.6,9.5c-4.2,1.8-8.5,2.7-12.9,2.7c-6.9,0-13.1-1.2-18.5-3.6
				c-5.4-2.4-10-5.7-13.7-9.9s-6.6-9.1-8.6-14.7c-2-5.7-3-11.7-3-18.1c0-6.6,1-12.7,3-18.5c2-5.7,4.9-10.7,8.6-15
				c3.7-4.2,8.3-7.6,13.7-10s11.6-3.6,18.5-3.6c4.6,0,9,0.7,13.3,2.1c4.3,1.4,8.1,3.4,11.5,6.1c3.4,2.7,6.2,6,8.5,9.9
				s3.7,8.4,4.2,13.5h-18.7c-1.2-5-3.4-8.7-6.8-11.2c-3.4-2.5-7.4-3.7-12-3.8c-4.4,0-8.2,0.8-11.2,2.5c-3.1,1.7-5.6,4-7.5,6.9
				s-3.3,6.1-4.2,9.8s-1.3,7.4-1.3,11.4c0,3.7,0.4,7.4,1.3,10.9c0.9,3.5,2.3,6.7,4.2,9.5s4.4,5.1,7.5,6.8s6.8,2.6,11.2,2.6
				c6.4,0,11.4-1.6,15-4.9c3.6-3.3,5.7-8,6.3-14.3h-19.7v-14.6h37.4V689H737L735,678.8z"/>
			<path class="st23" d="M765.4,599.9h40.2c5.6,0,10.3,0.8,14.2,2.4c3.9,1.6,7.1,3.8,9.5,6.4c2.4,2.7,4.2,5.7,5.4,9.2
				c1.1,3.5,1.7,7,1.7,10.5c0,3.7-0.6,7.2-1.7,10.6c-1.1,3.4-2.9,6.4-5.4,9.1c-2.5,2.7-5.6,4.8-9.6,6.4c-3.9,1.6-8.7,2.4-14.2,2.4
				h-20.6v31.9h-19.6L765.4,599.9z M784.9,641.8h15.2c2.2,0,4.4-0.2,6.5-0.5s3.9-1,5.5-1.9c1.6-1,2.8-2.3,3.8-4s1.4-4,1.4-6.9
				c0-2.8-0.5-5.1-1.4-6.9c-1-1.7-2.2-3.1-3.8-4.1s-3.4-1.6-5.5-1.9c-2.1-0.3-4.2-0.5-6.5-0.5h-15.2V641.8z"/>
		</g>
		<g>
			<path class="st23" d="M309.6,310.8l-56-92.8h37.7l35.6,60l35.3-60h37.3L343,311.6v58.3h-33.4V310.8z"/>
			<path class="st23" d="M405.6,294.6c0-11.2,1.7-21.7,5.1-31.5c3.4-9.8,8.3-18.3,14.7-25.5c6.4-7.2,14.2-12.9,23.4-17
				c9.2-4.1,19.7-6.2,31.5-6.2s22.3,2.1,31.5,6.2c9.2,4.1,17,9.8,23.4,17c6.4,7.2,11.3,15.8,14.7,25.5c3.4,9.8,5.1,20.3,5.1,31.5
				c0,10.9-1.7,21.2-5.1,30.9c-3.4,9.7-8.3,18-14.7,25.1s-14.2,12.7-23.4,16.8c-9.2,4.1-19.7,6.2-31.5,6.2s-22.3-2.1-31.5-6.2
				s-17-9.7-23.4-16.8c-6.4-7.1-11.3-15.5-14.7-25.1C407.3,315.8,405.6,305.5,405.6,294.6z M439,294.6c0,6.4,0.7,12.6,2.2,18.6
				s3.9,11.5,7.1,16.3c3.3,4.8,7.5,8.7,12.8,11.6c5.2,2.9,11.6,4.4,19.2,4.4c7.5,0,13.9-1.5,19.2-4.4c5.2-2.9,9.5-6.8,12.8-11.6
				c3.3-4.8,5.6-10.3,7.1-16.3s2.2-12.2,2.2-18.6c0-6.7-0.7-13.1-2.2-19.4c-1.5-6.2-3.9-11.8-7.1-16.7c-3.3-4.9-7.5-8.8-12.8-11.7
				c-5.3-2.9-11.6-4.4-19.2-4.4c-7.5,0-13.9,1.5-19.2,4.4c-5.3,2.9-9.5,6.8-12.8,11.7c-3.3,4.9-5.6,10.5-7.1,16.7
				C439.8,281.5,439,287.9,439,294.6z"/>
			<path class="st23" d="M707,312.5c0,20.6-5.7,35.9-17.2,46s-27.4,15.1-47.7,15.1c-20.6,0-36.5-5-47.8-15s-16.9-25.4-16.9-46.1V218
				h33.4v94.5c0,4.1,0.4,8.2,1.1,12.1c0.7,4,2.2,7.5,4.5,10.6s5.4,5.6,9.5,7.5c4,1.8,9.5,2.8,16.3,2.8c11.9,0,20.2-2.7,24.7-8
				s6.8-13.7,6.8-25V218H707L707,312.5L707,312.5z"/>
			<path class="st23" d="M415,556.6h-33.2L356,453.1h-0.4l-25.3,103.5h-33.9l-40.2-152h33.4l24.1,103.5h0.4l26.4-103.5h31.3
				l26,104.7h0.4l24.9-104.7h32.8L415,556.6z"/>
			<path class="st23" d="M464.6,481.2c0-11.2,1.7-21.7,5.1-31.5c3.4-9.8,8.3-18.3,14.7-25.5c6.4-7.2,14.2-12.9,23.4-17
				c9.2-4.1,19.7-6.2,31.5-6.2c11.8,0,22.3,2.1,31.5,6.2s17,9.8,23.4,17s11.3,15.8,14.7,25.5c3.4,9.8,5.1,20.3,5.1,31.5
				c0,10.9-1.7,21.2-5.1,30.9c-3.4,9.7-8.3,18-14.7,25.1s-14.2,12.7-23.4,16.8s-19.7,6.2-31.5,6.2s-22.3-2.1-31.5-6.2
				c-9.2-4.1-17-9.7-23.4-16.8c-6.4-7.1-11.3-15.5-14.7-25.1C466.3,502.4,464.6,492.1,464.6,481.2z M498,481.2
				c0,6.4,0.7,12.6,2.2,18.6c1.5,6,3.9,11.5,7.1,16.3c3.3,4.8,7.5,8.7,12.8,11.6c5.2,2.9,11.6,4.4,19.2,4.4c7.5,0,13.9-1.5,19.2-4.4
				c5.2-2.9,9.5-6.8,12.8-11.6s5.6-10.3,7.1-16.3s2.2-12.2,2.2-18.6c0-6.7-0.7-13.1-2.2-19.4c-1.5-6.2-3.9-11.8-7.1-16.7
				c-3.3-4.9-7.5-8.8-12.8-11.7c-5.3-2.9-11.6-4.4-19.2-4.4c-7.5,0-13.9,1.5-19.2,4.4s-9.5,6.8-12.8,11.7
				c-3.3,4.9-5.6,10.5-7.1,16.7C498.8,468.1,498,474.5,498,481.2z"/>
			<path class="st23" d="M636.8,404.6H670l63.4,102h0.4v-102h31.3v152h-33.4l-63.2-101.8h-0.4v101.8h-31.3V404.6z"/>
			<path class="st23" d="M793,523.8h33.4v32.8H793V523.8z M825.2,445.4L817,511h-15.1l-8.1-65.6v-31.3h31.5L825.2,445.4L825.2,445.4
				z"/>
		</g>
	</g>
	<g>
		<rect x="253.5" y="724.9" width="573" height="146.6"/>
		<g>
			<g>
				<g>
					<path class="st0" d="M670,757.5h-57.5c-6.4,0-11.7,5.3-11.7,11.8S606,781,612.5,781h29.3l-47.2,47.5c-4.6,4.6-4.6,12,0,16.6
						c4.6,4.6,11.9,4.6,16.5,0l47.2-47.5v29.5c0,6.5,5.2,11.8,11.7,11.8c6.4,0,11.7-5.3,11.7-11.8v-57.9
						C681.7,762.8,676.4,757.5,670,757.5z"/>
				</g>
				<g>
					<path class="st23" d="M705,838.9h57.5c6.4,0,11.7-5.3,11.7-11.8c0-6.5-5.2-11.8-11.7-11.8h-29.3l47.2-47.5
						c4.6-4.6,4.6-12,0-16.6c-4.6-4.6-11.9-4.6-16.5,0l-47.2,47.5v-29.5c0-6.5-5.2-11.8-11.7-11.8c-6.4,0-11.7,5.3-11.7,11.8v57.9
						C693.3,833.7,698.6,838.9,705,838.9z"/>
				</g>
			</g>
			<g>
				<path class="st0" d="M467.9,819.1c0.4-0.2,0.7-0.4,1-0.7c0.3-0.3,0.5-0.6,0.7-1c0.2-0.4,0.3-0.8,0.3-1.2s-0.1-0.8-0.3-1.2
					c-0.2-0.4-0.4-0.7-0.7-1c-0.3-0.3-0.6-0.5-1-0.7c-0.4-0.2-0.8-0.3-1.2-0.3s-0.8,0.1-1.2,0.3c-0.4,0.2-0.7,0.4-1,0.7
					c-0.3,0.3-0.5,0.6-0.6,1c-0.2,0.4-0.2,0.8-0.2,1.2s0.1,0.8,0.2,1.2c0.2,0.4,0.4,0.7,0.6,1c0.3,0.3,0.6,0.5,1,0.7
					c0.4,0.2,0.8,0.3,1.2,0.3S467.5,819.3,467.9,819.1z"/>
				<path class="st0" d="M461.8,818.5c0.3-0.3,0.5-0.6,0.7-1c0.2-0.4,0.3-0.8,0.3-1.2s-0.1-0.8-0.3-1.2c-0.2-0.4-0.4-0.7-0.7-1
					c-0.3-0.3-0.6-0.5-1-0.7c-0.4-0.2-0.8-0.3-1.2-0.3c-0.4,0-0.8,0.1-1.2,0.3c-0.4,0.2-0.7,0.4-1,0.7c-0.3,0.3-0.5,0.6-0.6,1
					c-0.2,0.4-0.2,0.8-0.2,1.2s0.1,0.8,0.2,1.2c0.2,0.4,0.4,0.7,0.6,1c0.3,0.3,0.6,0.5,1,0.7s0.8,0.3,1.2,0.3c0.4,0,0.8-0.1,1.2-0.3
					C461.3,818.9,461.6,818.7,461.8,818.5z"/>
				<path class="st0" d="M461.1,824.7c0.3,0.3,0.6,0.5,1,0.7c0.4,0.2,0.8,0.3,1.2,0.3c0.4,0,0.8-0.1,1.2-0.3c0.4-0.2,0.7-0.4,1-0.7
					c0.3-0.3,0.5-0.6,0.7-1c0.2-0.4,0.3-0.8,0.3-1.2c0-0.4-0.1-0.8-0.3-1.2c-0.2-0.4-0.4-0.7-0.7-1c-0.3-0.3-0.6-0.5-1-0.7
					c-0.4-0.2-0.8-0.3-1.2-0.3c-0.4,0-0.8,0.1-1.2,0.3c-0.4,0.2-0.7,0.4-1,0.7c-0.3,0.3-0.5,0.6-0.7,1c-0.2,0.4-0.3,0.8-0.3,1.2
					s0.1,0.8,0.3,1.2C460.6,824.1,460.8,824.4,461.1,824.7z"/>
				<path class="st0" d="M453.2,836.7c2.5,0.7,5.3,1.1,8.3,1.1c0.7,0,1.7-0.1,2.9-0.2c1.2-0.2,2.5-0.4,3.9-0.8s3-1,4.6-1.7
					c1.6-0.7,3.3-1.6,4.9-2.7l-3.6-6.7c-1.4,0.7-2.8,1.2-4,1.7c-1.2,0.4-2.4,0.8-3.5,1c-1.1,0.3-2,0.4-2.9,0.5
					c-0.9,0.1-1.8,0.1-2.5,0.1c-1.6,0-3.1-0.2-4.5-0.7c-1.4-0.4-2.6-1.1-3.5-2c-1-0.9-1.8-1.9-2.3-3.2c-0.5-1.2-0.8-2.7-0.8-4.3
					c0-1.5,0.2-2.8,0.7-4c0.4-1.2,1.2-2.2,2-3.1c0.9-0.9,2-1.5,3.3-2c1.3-0.5,2.8-0.7,4.5-0.7h25h17.6v-28.8h-9.4v20.5h-8.2h-3.9
					c-0.1-3-0.5-5.8-1.3-8.4c-0.8-2.7-1.9-5-3.5-7c-1.6-2-3.6-3.6-6.1-4.8c-2.5-1.2-5.5-1.8-9-1.8c-1,0-2,0.1-3,0.2
					c-1,0.1-2,0.3-2.9,0.5c-0.9,0.2-1.8,0.4-2.6,0.6c-0.8,0.2-1.5,0.4-2,0.6v8.4c0.9-0.3,1.8-0.5,2.7-0.7c0.9-0.2,1.7-0.3,2.5-0.4
					c0.8-0.1,1.5-0.2,2.1-0.2c0.6,0,1.1-0.1,1.5-0.1c2.1,0,4,0.3,5.5,0.9c1.5,0.6,2.8,1.4,3.7,2.6c1,1.1,1.7,2.5,2.2,4.1
					c0.5,1.6,0.8,3.5,1,5.6h-11.7c-3,0-5.7,0.4-8.2,1.2c-2.5,0.8-4.6,2-6.3,3.5s-3.1,3.5-4.1,5.8c-1,2.3-1.5,4.9-1.5,7.9
					c0,3.2,0.5,5.9,1.6,8.3c1.1,2.3,2.5,4.3,4.3,5.8C448.5,834.8,450.7,836,453.2,836.7z"/>
				<path class="st0" d="M495,771.5c0.4,0.5,1,0.8,1.6,1.1c0.6,0.3,1.3,0.4,2,0.4c0.7,0,1.3-0.1,2-0.4c0.6-0.3,1.2-0.6,1.6-1.1
					c0.4-0.5,0.8-1,1.1-1.6c0.3-0.6,0.4-1.3,0.4-2c0-0.7-0.1-1.4-0.4-2c-0.3-0.6-0.6-1.2-1.1-1.6c-0.4-0.5-1-0.8-1.6-1.1
					c-0.6-0.3-1.3-0.4-2-0.4c-0.7,0-1.4,0.1-2,0.4c-0.6,0.3-1.2,0.6-1.6,1.1c-0.5,0.5-0.8,1-1.1,1.6c-0.3,0.6-0.4,1.3-0.4,2
					c0,0.7,0.1,1.4,0.4,2C494.2,770.5,494.5,771.1,495,771.5z"/>
				<path class="st0" d="M515.4,808.8c0,1.9-0.2,3.4-0.4,4.5c-0.3,1.2-0.7,2-1.4,2.6c-0.6,0.6-1.4,1-2.3,1.2c-0.9,0.2-2,0.3-3.3,0.3
					h-1.1v8.8h2.2c2.7,0,5.1-0.3,7-0.9c2-0.6,3.6-1.6,4.9-2.9s2.2-3.1,2.8-5.3c0.6-2.2,0.9-4.9,0.9-8.1v-28.5h-9.4L515.4,808.8
					L515.4,808.8z"/>
				<path class="st0" d="M535.1,805.6c1.2,1.2,2.7,2.1,4.3,2.6c1.7,0.6,3.5,0.9,5.4,0.9c2,0,3.8-0.2,5.3-0.6c0,0.6-0.2,1.3-0.3,2
					c-0.2,0.7-0.4,1.4-0.8,2c-0.4,0.6-0.9,1.3-1.5,1.9s-1.4,1.1-2.5,1.5c-1,0.4-2.2,0.8-3.6,1.1c-1.4,0.3-3.1,0.4-5.1,0.4h-1.7v8.8
					h2.2c4.4,0,8.1-0.5,11.1-1.4c2.9-1,5.3-2.3,7.1-4.2c1.8-1.8,3-4.1,3.7-6.7c0.7-2.7,1.1-5.7,1.1-9v-9c0-2.3-0.3-4.5-0.7-6.6
					c-0.5-2-1.3-3.8-2.4-5.4c-1.1-1.5-2.6-2.7-4.3-3.7c-1.8-0.9-4-1.3-6.7-1.3c-2.4,0-4.5,0.4-6.3,1.3s-3.4,2.1-4.6,3.5
					s-2.1,3.2-2.8,5.1c-0.6,2-1,4-1,6.1c0,2.4,0.4,4.5,1.1,6.3C532.9,803,533.8,804.4,535.1,805.6z M540.6,791.5
					c0.2-0.9,0.5-1.7,0.9-2.3s0.9-1.2,1.6-1.5s1.4-0.5,2.4-0.5s1.7,0.2,2.3,0.6c0.6,0.4,1.2,0.9,1.5,1.6c0.4,0.7,0.7,1.5,0.8,2.5
					c0.2,1,0.3,2.1,0.3,3.3v4.8c-1.2,0.7-2.8,1-4.8,1c-1.8,0-3.1-0.6-4-1.8c-0.9-1.2-1.3-2.7-1.3-4.8
					C540.3,793.4,540.4,792.5,540.6,791.5z"/>
				<rect x="566.1" y="759.1" class="st0" width="9.4" height="50.1"/>
			</g>
			<g>
				<path class="st0" d="M352,753c-0.6-0.3-1.3-0.4-2-0.4c-0.7,0-1.3,0.1-2,0.4c-0.6,0.3-1.2,0.6-1.6,1.1c-0.5,0.5-0.9,1-1.1,1.7
					c-0.3,0.6-0.4,1.3-0.4,2c0,0.7,0.1,1.3,0.4,2c0.3,0.6,0.6,1.2,1.1,1.6c0.5,0.5,1,0.8,1.6,1.1c0.6,0.3,1.2,0.4,2,0.4
					s1.4-0.1,2-0.4c0.6-0.3,1.2-0.6,1.6-1.1c0.4-0.5,0.8-1,1.1-1.6c0.3-0.6,0.4-1.3,0.4-2c0-0.7-0.1-1.4-0.4-2
					c-0.3-0.6-0.6-1.2-1.1-1.7C353.2,753.6,352.7,753.3,352,753z"/>
				<path class="st0" d="M346,763.5c-0.6-0.3-1.3-0.4-2-0.4c-0.7,0-1.4,0.1-2,0.4c-0.6,0.3-1.2,0.6-1.6,1.1c-0.4,0.5-0.8,1-1.1,1.6
					c-0.3,0.6-0.4,1.3-0.4,2s0.1,1.4,0.4,2c0.3,0.6,0.6,1.2,1.1,1.6s1,0.8,1.6,1.1c0.6,0.3,1.3,0.4,2,0.4c0.7,0,1.4-0.1,2-0.4
					c0.6-0.3,1.2-0.6,1.6-1.1c0.4-0.5,0.8-1,1.1-1.6c0.3-0.6,0.4-1.3,0.4-2s-0.1-1.4-0.4-2c-0.3-0.6-0.6-1.2-1.1-1.6
					S346.6,763.8,346,763.5z"/>
				<path class="st0" d="M363.6,801.2h-4.8c-1.6,0-2.7-0.4-3.3-1.2c-0.6-0.8-0.9-2.1-0.9-3.8v-12.3h-9.4v13.8c0,0.7-0.1,1.3-0.4,1.8
					s-0.5,0.8-0.9,1.1c-0.4,0.3-0.9,0.4-1.4,0.5c-0.6,0.1-1.2,0.1-1.9,0.1c-1.8,0-3.2-0.4-4-1.3s-1.2-2.1-1.2-3.7v-12.3h-9.4v24.4
					c0,1.8-0.2,3.3-0.6,4.6c-0.4,1.2-1,2.3-1.9,3.1c-0.8,0.8-1.9,1.3-3.2,1.7c-1.3,0.4-2.8,0.5-4.6,0.5c-3.5,0-6-0.9-7.7-2.7
					c-1.7-1.8-2.5-4.3-2.5-7.7v-10h-9.4v9.9c0,12.5,6.5,18.7,19.5,18.7c3.1,0,5.8-0.3,8.2-1s4.5-1.7,6.1-3.2c1.7-1.5,3-3.5,3.9-6
					c0.9-2.5,1.4-5.6,1.4-9.3c0.3,0.3,0.7,0.5,1.1,0.9c0.4,0.3,1,0.6,1.7,0.8c0.7,0.3,1.5,0.4,2.4,0.6c0.9,0.2,2,0.2,3.3,0.2
					c0.8,0,1.7,0,2.5-0.1c0.8-0.1,1.7-0.3,2.4-0.5c0.8-0.3,1.5-0.7,2.2-1.2c0.7-0.5,1.4-1.2,2-2c0.3,0.5,0.7,1.1,1.2,1.5
					c0.4,0.5,1.1,0.9,1.7,1.2c0.7,0.3,1.5,0.6,2.5,0.8c1,0.2,2.2,0.3,3.5,0.3H373v-28.8h-9.4L363.6,801.2L363.6,801.2z"/>
				<path class="st0" d="M352.2,764.6c-0.5,0.5-0.8,1-1.1,1.6c-0.3,0.6-0.4,1.3-0.4,2s0.1,1.4,0.4,2c0.3,0.6,0.6,1.2,1.1,1.6
					c0.4,0.5,1,0.8,1.6,1.1c0.6,0.3,1.3,0.4,2,0.4s1.3-0.1,2-0.4c0.6-0.3,1.2-0.6,1.6-1.1c0.4-0.5,0.8-1,1.1-1.6
					c0.3-0.6,0.4-1.3,0.4-2s-0.1-1.4-0.4-2c-0.3-0.6-0.6-1.2-1.1-1.6s-1-0.8-1.6-1.1s-1.3-0.4-2-0.4s-1.4,0.1-2,0.4
					C353.2,763.8,352.7,764.1,352.2,764.6z"/>
				<path class="st0" d="M422.3,792.8c-0.3-1-0.8-2-1.4-3c-0.6-1-1.5-2.1-2.6-3.3c-1.1-1.2-2.4-2.3-4-3.6c-1.6-1.2-3.5-2.6-5.7-4
					v-0.3l14-6.8v-10.8l-24.6,13.1v10.1c2.4,1.1,4.6,2.3,6.5,3.5c1.9,1.2,3.5,2.5,4.9,3.7c1.3,1.2,2.4,2.4,3.1,3.5
					c0.7,1.1,1.1,2.1,1.1,3c0,1.1-0.4,1.8-1,2.4c-0.7,0.5-1.8,0.8-3.2,0.8h-16.2H393h-1.2c-0.6,0-1.1,0-1.5-0.1
					c-0.4-0.1-0.8-0.3-1.1-0.5c-0.3-0.3-0.5-0.7-0.6-1.2c-0.2-0.5-0.2-1.2-0.2-2v-37.9H379v39.1c0,2.1,0.3,3.8,0.8,5.2
					c0.5,1.4,1.3,2.5,2.3,3.4s2.1,1.4,3.5,1.8s2.8,0.5,4.5,0.5h3h0.1h17.3c1.8,0,3.4-0.2,4.7-0.6c1.3-0.4,2.4-0.9,3.4-1.6
					c0.9-0.6,1.7-1.4,2.3-2.2c0.6-0.8,1.1-1.6,1.4-2.5c0.4-0.8,0.6-1.6,0.7-2.4c0.1-0.8,0.2-1.4,0.2-2c0-0.9,0-1.8-0.1-2.7
					C422.8,794.7,422.6,793.8,422.3,792.8z"/>
			</g>
		</g>
	</g>
</g>
</svg>
