<?xml version="1.0" encoding="utf-8"?>
<!-- Generator: Adobe Illustrator 28.0.0, SVG Export Plug-In . SVG Version: 6.00 Build 0)  -->
<svg version="1.1" id="Layer_1" xmlns="http://www.w3.org/2000/svg" xmlns:xlink="http://www.w3.org/1999/xlink" x="0px" y="0px"
	 viewBox="0 0 1080 1080" style="enable-background:new 0 0 1080 1080;" xml:space="preserve">
<style type="text/css">
	.st0{fill-rule:evenodd;clip-rule:evenodd;fill:#FFFFFF;}
	.st1{fill:#FF7900;}
</style>
<g>
	<g>
		<g>
			<path class="st0" d="M539.7,1050.1h0.5c281.7,0,510.1-228.4,510.1-510.1l0,0c0-281.7-228.4-510.1-510.1-510.1h-0.5
				C258.1,29.9,29.7,258.3,29.7,540l0,0C29.7,821.7,258.1,1050.1,539.7,1050.1z"/>
			<path class="st1" d="M540.3,1066h-0.5c-71,0-139.9-13.9-204.7-41.3c-62.6-26.5-118.9-64.4-167.2-112.7
				c-48.3-48.3-86.2-104.6-112.7-167.2C27.6,679.9,13.7,611,13.7,540s13.9-139.9,41.3-204.7c26.5-62.6,64.4-118.9,112.7-167.2
				S272.4,81.8,335,55.3C399.9,27.9,468.8,14,539.7,14h0.5c71,0,139.9,13.9,204.7,41.3c62.6,26.5,118.9,64.4,167.2,112.7
				c48.3,48.3,86.2,104.6,112.7,167.2c27.4,64.9,41.3,133.7,41.3,204.7s-13.9,139.9-41.3,204.7c-26.5,62.6-64.4,118.9-112.7,167.2
				c-48.3,48.3-104.6,86.2-167.2,112.7C680.1,1052.1,611.2,1066,540.3,1066z M539.7,45.9C473,45.9,408.3,59,347.4,84.7
				c-58.8,24.9-111.7,60.5-157.1,105.9s-81,98.2-105.9,157.1C58.7,408.6,45.7,473.3,45.7,540s13.1,131.4,38.8,192.3
				C109.4,791.1,145,844,190.4,889.4c45.4,45.4,98.2,81,157.1,105.9c60.9,25.8,125.6,38.8,192.3,38.8h0.5
				c66.7,0,131.4-13.1,192.3-38.8c58.8-24.9,111.7-60.5,157.1-105.9c45.4-45.4,81-98.2,105.9-157.1c25.8-60.9,38.8-125.6,38.8-192.3
				s-13.1-131.4-38.8-192.3C970.6,288.9,935,236,889.6,190.6c-45.4-45.4-98.2-81-157.1-105.9C671.7,59,607,45.9,540.3,45.9H539.7z"
				/>
		</g>
	</g>
	<g>
		<g>
			<path d="M791.7,529.8c-27.1-1.1-48.8,16.2-53.6,42c-1.9,10.3-3.8,20.5-7,30.4c-42.3,132.6-205.2,182.1-314.6,95.6
				c-10-8-19-17.1-28.5-25.8c0.3-0.5,0.8-1.1,1.1-1.6c9.9,0,19.9,0,29.9-0.1c22.8-0.2,40.6-17.6,40.7-39.8
				c0.1-22.6-17.7-40.4-40.8-40.4C363,590,307.3,590,251.4,590c-9.1,0-12.5,3.5-12.5,12.5c0,55.9-0.1,111.7,0,167.5
				c0.1,23.2,17.8,40.9,40.4,40.8c22.3-0.1,39.6-17.8,39.9-40.6c0.1-8,0-15.8,0-23.8c0.5-0.2,1-0.5,1.5-0.8c1.3,1.5,2.5,3.3,3.9,4.7
				c92.3,88.7,200.2,113.9,320,71.5c98.3-34.7,159.9-106.9,187.1-207.7c3.3-12.4,6-25.5,5.7-38.3
				C836.8,550.4,816.2,530.8,791.7,529.8z M817.5,583.9c-10.9,67-41.7,123.2-92.7,167.6c-56.1,48.8-121.9,72.3-196.1,69.1
				c-84-3.7-153.1-39.1-206.9-103.8c-1.1-1.3-2.2-2.5-3.2-3.8c-3.2-4-6.8-6.9-12.3-5.1c-5.7,1.9-7.1,6.3-7.1,11.9
				c0.1,16,0,32.2,0,48.2c0,2.1,0.1,4.3-0.2,6.2c-1.7,10.1-11.1,17.4-21.2,16.6c-9.8-0.7-17.9-8.7-18.6-18.7
				c-0.1-1.9-0.1-3.8-0.1-5.7V610.4c2-0.1,2.9-0.2,4-0.2h155.5c10.1,0,17.6,5.5,20.3,14.6c2.4,8.2-0.5,17.4-8.2,21.9
				c-3.6,2.1-8.3,3.4-12.4,3.5c-16,0.3-32.1,0.2-48.2,0.1c-4.9-0.1-9.3,0.9-11.7,5.5c-2.5,4.8-0.7,8.9,2.3,12.8
				c56.9,73.6,131.6,105.3,222.8,87.4c90.9-17.7,148-75.1,171.5-165.2c1.4-5.5,2.2-11.1,3.3-16.6c3.3-16.5,18.9-27,35.6-24.1
				C809.6,552.8,820.1,567.3,817.5,583.9z"/>
		</g>
		<g>
			<path class="st1" d="M817.5,583.9c-10.9,67-41.7,123.2-92.7,167.6c-56.1,48.8-121.9,72.3-196.1,69.1
				c-84-3.7-153.1-39.1-206.9-103.8c-1.1-1.3-2.2-2.5-3.2-3.8c-3.2-4-6.8-6.9-12.3-5.1c-5.7,1.9-7.1,6.3-7.1,11.9
				c0.1,16,0,32.2,0,48.2c0,2.1,0.1,4.3-0.2,6.2c-1.7,10.1-11.1,17.4-21.2,16.6c-9.8-0.7-17.9-8.7-18.6-18.7
				c-0.1-1.9-0.1-3.8-0.1-5.7V610.4c2-0.1,2.9-0.2,4-0.2h155.5c10.1,0,17.6,5.5,20.3,14.6c2.4,8.2-0.5,17.4-8.2,21.9
				c-3.6,2.1-8.3,3.4-12.4,3.5c-16,0.3-32.1,0.2-48.2,0.1c-4.9-0.1-9.3,0.9-11.7,5.5c-2.5,4.8-0.7,8.9,2.3,12.8
				c56.9,73.6,131.6,105.3,222.8,87.4c90.9-17.7,148-75.1,171.5-165.2c1.4-5.5,2.2-11.1,3.3-16.6c3.3-16.5,18.9-27,35.6-24.1
				C809.6,552.8,820.1,567.3,817.5,583.9z"/>
		</g>
		<g>
			<path d="M840.9,307.8c-0.2-27.6-28.7-46.1-54.5-36.2c-15.2,5.7-25.4,20.2-25.8,36.8c-0.1,8.5,0,16.8,0,25.3
				c-2.8-1.2-4-2.8-5.6-4.3c-86.4-83-188.3-111.7-302.8-76.6C335.9,288.3,266.9,370.4,243,489.7c-5.7,28.5,12.5,54.1,41.2,59.4
				c26.7,4.9,52.5-13.7,57.5-41.7c0.5-2.9,1-5.8,1.6-8.7C367,388.6,473.5,320,583.8,344.2c42.8,9.4,78.4,31.2,108.6,65.3
				c-12.1,0-22.5-0.1-32.8,0.1c-21.9,0.4-39.3,18.1-39.4,39.8c-0.1,21.8,17.1,40.2,39,40.3c56.9,0.3,113.8,0.2,170.7,0.1
				c7.4,0,11.2-3.8,11.2-11.3C841,421.6,841.5,364.7,840.9,307.8z M820.8,467.9c0,0.4-0.2,0.8-0.7,1.7c-53.6,0-106.7,0.1-160.1-0.1
				c-11.2,0-19.8-9.3-19.6-20.2c0.1-10.9,8.7-19.6,20.1-19.8c16.5-0.1,33-0.1,49.4,0c4.9,0.1,9.3-0.9,11.7-5.6
				c2.5-4.7,0.5-8.8-2.4-12.7c-50-66.1-116.4-97.7-199.2-90.9c-99.5,8.4-179.3,82.5-197.4,180.7c-1.1,6.1-3.6,12.5-7.1,17.6
				c-7.6,10.8-22,14.2-34.3,9.3c-12.5-5-20.2-17-18.6-30.9c2.5-21.9,8.4-43.1,17.1-63.2c40.5-93.6,110.6-152.8,211-169.9
				c108.2-18.4,198.8,16.8,269.3,101.6c0.5,0.7,1.1,1.3,1.6,2c3.1,4.2,6.9,6.8,12.3,4.8c5.4-2,6.9-6.1,6.9-11.5
				c-0.1-17.1-0.2-34.3,0-51.5c0.2-14.4,14-24,27.1-18.8c8,3.2,12.9,9.3,12.9,17.7C821.1,361.4,821,414.6,820.8,467.9z"/>
		</g>
		<g>
			<path class="st1" d="M820.8,308.1c0.2,53.4,0.1,106.5,0,159.9c0,0.4-0.2,0.8-0.7,1.7c-53.6,0-106.7,0.1-160.1-0.1
				c-11.2,0-19.8-9.3-19.6-20.2c0.1-10.9,8.7-19.6,20.1-19.8c16.5-0.1,33-0.1,49.4,0c4.9,0.1,9.3-0.9,11.7-5.6
				c2.5-4.7,0.5-8.8-2.4-12.7c-50-66.1-116.4-97.7-199.2-90.9c-99.5,8.3-179.3,82.4-197.4,180.6c-1.1,6.1-3.6,12.5-7.1,17.6
				c-7.6,10.8-22,14.2-34.3,9.3c-12.5-5-20.2-17-18.6-30.9c2.5-21.9,8.4-43.1,17.1-63.2c40.5-93.6,110.6-152.8,211-169.9
				c108.2-18.4,198.8,16.8,269.3,101.6c0.5,0.7,1.1,1.3,1.6,2c3.1,4.2,6.9,6.8,12.3,4.8c5.4-2,6.9-6.1,6.9-11.5
				c-0.1-17.1-0.2-34.3,0-51.5c0.2-14.4,14-24,27.1-18.8C815.9,293.6,820.8,299.6,820.8,308.1z"/>
		</g>
	</g>
</g>
</svg>
